FrauncesBlackOpMin.ufo
<glyph name="numbersign" format="2">
  <advance width="1333"/>
  <unicode hex="0023"/>
  <outline>
    <contour>
      <point x="418" y="646" type="curve" smooth="yes"/>
      <point x="356" y="259"/>
      <point x="226" y="194"/>
      <point x="230" y="77" type="curve" smooth="yes"/>
      <point x="232" y="10"/>
      <point x="298" y="-32"/>
      <point x="399" y="-32" type="curve" smooth="yes"/>
      <point x="466" y="-32"/>
      <point x="563" y="-10"/>
      <point x="574" y="73" type="curve" smooth="yes"/>
      <point x="584" y="182"/>
      <point x="487" y="259"/>
      <point x="542" y="646" type="curve" smooth="yes"/>
      <point x="602" y="1028"/>
      <point x="724" y="1099"/>
      <point x="720" y="1216" type="curve" smooth="yes"/>
      <point x="718" y="1283"/>
      <point x="652" y="1323"/>
      <point x="557" y="1323" type="curve" smooth="yes"/>
      <point x="460" y="1323"/>
      <point x="378" y="1293"/>
      <point x="372" y="1212" type="curve" smooth="yes"/>
      <point x="359" y="1085"/>
      <point x="477" y="1056"/>
    </contour>
    <contour>
      <point x="798" y="646" type="curve" smooth="yes"/>
      <point x="751" y="261"/>
      <point x="611" y="194"/>
      <point x="615" y="77" type="curve" smooth="yes"/>
      <point x="617" y="10"/>
      <point x="692" y="-32"/>
      <point x="784" y="-32" type="curve" smooth="yes"/>
      <point x="855" y="-32"/>
      <point x="952" y="-10"/>
      <point x="960" y="73" type="curve" smooth="yes"/>
      <point x="970" y="182"/>
      <point x="873" y="259"/>
      <point x="927" y="646" type="curve" smooth="yes"/>
      <point x="983" y="1028"/>
      <point x="1112" y="1099"/>
      <point x="1108" y="1216" type="curve" smooth="yes"/>
      <point x="1106" y="1283"/>
      <point x="1040" y="1323"/>
      <point x="950" y="1323" type="curve" smooth="yes"/>
      <point x="842" y="1323"/>
      <point x="775" y="1293"/>
      <point x="762" y="1212" type="curve" smooth="yes"/>
      <point x="745" y="1089"/>
      <point x="844" y="1058"/>
    </contour>
    <contour>
      <point x="675" y="770" type="curve" smooth="yes"/>
      <point x="931" y="770"/>
      <point x="1033" y="695"/>
      <point x="1173" y="695" type="curve" smooth="yes"/>
      <point x="1303" y="695"/>
      <point x="1363" y="762"/>
      <point x="1363" y="824" type="curve" smooth="yes"/>
      <point x="1363" y="885"/>
      <point x="1305" y="941"/>
      <point x="1186" y="941" type="curve" smooth="yes"/>
      <point x="1045" y="941"/>
      <point x="937" y="869"/>
      <point x="675" y="869" type="curve" smooth="yes"/>
      <point x="421" y="869"/>
      <point x="319" y="943"/>
      <point x="178" y="943" type="curve" smooth="yes"/>
      <point x="47" y="943"/>
      <point x="-5" y="889"/>
      <point x="-5" y="826" type="curve" smooth="yes"/>
      <point x="-5" y="753"/>
      <point x="49" y="701"/>
      <point x="180" y="699" type="curve" smooth="yes"/>
      <point x="319" y="697"/>
      <point x="421" y="770"/>
    </contour>
    <contour>
      <point x="650" y="416" type="curve" smooth="yes"/>
      <point x="906" y="416"/>
      <point x="1004" y="347"/>
      <point x="1148" y="347" type="curve" smooth="yes"/>
      <point x="1278" y="347"/>
      <point x="1334" y="410"/>
      <point x="1334" y="477" type="curve" smooth="yes"/>
      <point x="1334" y="533"/>
      <point x="1280" y="594"/>
      <point x="1155" y="594" type="curve" smooth="yes"/>
      <point x="1021" y="594"/>
      <point x="915" y="519"/>
      <point x="650" y="519" type="curve" smooth="yes"/>
      <point x="397" y="519"/>
      <point x="290" y="596"/>
      <point x="151" y="596" type="curve" smooth="yes"/>
      <point x="23" y="596"/>
      <point x="-30" y="537"/>
      <point x="-30" y="479" type="curve" smooth="yes"/>
      <point x="-30" y="402"/>
      <point x="25" y="354"/>
      <point x="153" y="351" type="curve" smooth="yes"/>
      <point x="290" y="349"/>
      <point x="394" y="416"/>
    </contour>
  </outline>
</glyph>
<glyph name="dollar" format="2">
  <advance width="1139"/>
  <unicode hex="0024"/>
  <outline>
    <contour>
      <point x="573" y="0" type="curve" smooth="yes"/>
      <point x="915" y="0"/>
      <point x="1121" y="162"/>
      <point x="1121" y="354" type="curve" smooth="yes"/>
      <point x="1121" y="492"/>
      <point x="1009" y="632"/>
      <point x="688" y="726" type="curve" smooth="yes"/>
      <point x="451" y="803"/>
      <point x="369" y="866"/>
      <point x="369" y="964" type="curve" smooth="yes"/>
      <point x="369" y="1074"/>
      <point x="449" y="1142"/>
      <point x="550" y="1142" type="curve" smooth="yes"/>
      <point x="670" y="1142"/>
      <point x="742" y="1073"/>
      <point x="742" y="984" type="curve" smooth="yes"/>
      <point x="742" y="932" type="line" smooth="yes"/>
      <point x="742" y="848"/>
      <point x="826" y="790"/>
      <point x="927" y="790" type="curve" smooth="yes"/>
      <point x="1026" y="790"/>
      <point x="1110" y="856"/>
      <point x="1110" y="938" type="curve" smooth="yes"/>
      <point x="1110" y="1114"/>
      <point x="883" y="1258"/>
      <point x="597" y="1258" type="curve" smooth="yes"/>
      <point x="284" y="1258"/>
      <point x="72" y="1088"/>
      <point x="72" y="886" type="curve" smooth="yes"/>
      <point x="72" y="714"/>
      <point x="194" y="596"/>
      <point x="474" y="508" type="curve" smooth="yes"/>
      <point x="712" y="425"/>
      <point x="789" y="362"/>
      <point x="789" y="270" type="curve" smooth="yes"/>
      <point x="789" y="174"/>
      <point x="705" y="116"/>
      <point x="589" y="116" type="curve" smooth="yes"/>
      <point x="476" y="116"/>
      <point x="402" y="190"/>
      <point x="402" y="294" type="curve" smooth="yes"/>
      <point x="402" y="346" type="line" smooth="yes"/>
      <point x="402" y="432"/>
      <point x="319" y="488"/>
      <point x="218" y="488" type="curve" smooth="yes"/>
      <point x="117" y="488"/>
      <point x="35" y="424"/>
      <point x="35" y="340" type="curve" smooth="yes"/>
      <point x="35" y="154"/>
      <point x="279" y="0"/>
    </contour>
    <contour>
      <point x="540" y="530" type="line"/>
      <point x="540" y="162"/>
      <point x="418" y="78"/>
      <point x="418" y="-28" type="curve" smooth="yes"/>
      <point x="418" y="-120"/>
      <point x="501" y="-160"/>
      <point x="585" y="-160" type="curve" smooth="yes"/>
      <point x="682" y="-160"/>
      <point x="747" y="-116"/>
      <point x="748" y="-28" type="curve" smooth="yes"/>
      <point x="750" y="78"/>
      <point x="626" y="160"/>
      <point x="626" y="530" type="curve"/>
    </contour>
    <contour>
      <point x="622" y="710" type="line"/>
      <point x="622" y="1102"/>
      <point x="746" y="1184"/>
      <point x="746" y="1296" type="curve" smooth="yes"/>
      <point x="746" y="1384"/>
      <point x="661" y="1428"/>
      <point x="579" y="1428" type="curve" smooth="yes"/>
      <point x="489" y="1428"/>
      <point x="414" y="1388"/>
      <point x="414" y="1300" type="curve" smooth="yes"/>
      <point x="414" y="1194"/>
      <point x="540" y="1110"/>
      <point x="538" y="710" type="curve"/>
    </contour>
  </outline>
</glyph>
<glyph name="percent" format="2">
  <advance width="1862"/>
  <unicode hex="0025"/>
  <outline>
    <contour>
      <point x="1448" y="1092" type="curve" smooth="yes"/>
      <point x="1509" y="1138"/>
      <point x="1543" y="1186"/>
      <point x="1543" y="1234" type="curve" smooth="yes"/>
      <point x="1543" y="1284"/>
      <point x="1481" y="1330"/>
      <point x="1399" y="1330" type="curve" smooth="yes"/>
      <point x="1312" y="1330"/>
      <point x="1236" y="1302"/>
      <point x="1168" y="1234" type="curve" smooth="yes"/>
      <point x="1142" y="1138"/>
      <point x="1142" y="991"/>
      <point x="898" y="726" type="curve" smooth="yes"/>
      <point x="623" y="424"/>
      <point x="402" y="326"/>
      <point x="400" y="230" type="curve" smooth="yes"/>
      <point x="317" y="176"/>
      <point x="280" y="128"/>
      <point x="280" y="70" type="curve" smooth="yes"/>
      <point x="280" y="16"/>
      <point x="338" y="-30"/>
      <point x="437" y="-30" type="curve" smooth="yes"/>
      <point x="547" y="-30"/>
      <point x="629" y="6"/>
      <point x="707" y="76" type="curve" smooth="yes"/>
      <point x="725" y="180"/>
      <point x="737" y="364"/>
      <point x="995" y="662" type="curve" smooth="yes"/>
      <point x="1242" y="930"/>
      <point x="1403" y="1006"/>
    </contour>
    <contour>
      <point x="441" y="1330" type="curve" smooth="yes"/>
      <point x="198" y="1330"/>
      <point x="29" y="1182"/>
      <point x="29" y="968" type="curve" smooth="yes"/>
      <point x="29" y="748"/>
      <point x="198" y="594"/>
      <point x="441" y="594" type="curve" smooth="yes"/>
      <point x="686" y="594"/>
      <point x="861" y="748"/>
      <point x="861" y="968" type="curve" smooth="yes"/>
      <point x="861" y="1182"/>
      <point x="686" y="1330"/>
    </contour>
    <contour>
      <point x="531" y="918" type="curve" smooth="yes"/>
      <point x="531" y="790"/>
      <point x="503" y="700"/>
      <point x="459" y="700" type="curve" smooth="yes"/>
      <point x="393" y="700"/>
      <point x="348" y="824"/>
      <point x="348" y="1006" type="curve" smooth="yes"/>
      <point x="348" y="1128"/>
      <point x="383" y="1224"/>
      <point x="428" y="1224" type="curve" smooth="yes"/>
      <point x="492" y="1224"/>
      <point x="531" y="1100"/>
    </contour>
    <contour>
      <point x="1413" y="706" type="curve" smooth="yes"/>
      <point x="1170" y="706"/>
      <point x="1001" y="558"/>
      <point x="1001" y="344" type="curve" smooth="yes"/>
      <point x="1001" y="124"/>
      <point x="1170" y="-30"/>
      <point x="1413" y="-30" type="curve" smooth="yes"/>
      <point x="1658" y="-30"/>
      <point x="1833" y="124"/>
      <point x="1833" y="344" type="curve" smooth="yes"/>
      <point x="1833" y="558"/>
      <point x="1658" y="706"/>
    </contour>
    <contour>
      <point x="1504" y="294" type="curve" smooth="yes"/>
      <point x="1504" y="166"/>
      <point x="1475" y="76"/>
      <point x="1432" y="76" type="curve" smooth="yes"/>
      <point x="1366" y="76"/>
      <point x="1320" y="200"/>
      <point x="1320" y="382" type="curve" smooth="yes"/>
      <point x="1320" y="504"/>
      <point x="1355" y="600"/>
      <point x="1401" y="600" type="curve" smooth="yes"/>
      <point x="1465" y="600"/>
      <point x="1504" y="476"/>
    </contour>
  </outline>
</glyph>
<glyph name="ampersand" format="2">
  <advance width="1524"/>
  <unicode hex="0026"/>
  <outline>
    <contour>
      <point x="690" y="1246" type="curve" smooth="yes"/>
      <point x="624" y="1246"/>
      <point x="581" y="1156"/>
      <point x="581" y="1036" type="curve" smooth="yes"/>
      <point x="581" y="908"/>
      <point x="646" y="808"/>
      <point x="744" y="766" type="curve" smooth="yes"/>
      <point x="871" y="714"/>
      <point x="921" y="660"/>
      <point x="1030" y="558" type="curve" smooth="yes"/>
      <point x="1430" y="192" type="line" smooth="yes"/>
      <point x="1446" y="164"/>
      <point x="1442" y="136"/>
      <point x="1452" y="130" type="curve" smooth="yes"/>
      <point x="1533" y="116"/>
      <point x="1559" y="102"/>
      <point x="1559" y="62" type="curve" smooth="yes"/>
      <point x="1559" y="20"/>
      <point x="1520" y="0"/>
      <point x="1454" y="0" type="curve" smooth="yes"/>
      <point x="1174" y="0" type="line" smooth="yes"/>
      <point x="1108" y="0"/>
      <point x="1075" y="26"/>
      <point x="1030" y="70" type="curve" smooth="yes"/>
      <point x="616" y="460" type="line" smooth="yes"/>
      <point x="523" y="550"/>
      <point x="486" y="604"/>
      <point x="373" y="648" type="curve" smooth="yes"/>
      <point x="245" y="700"/>
      <point x="157" y="816"/>
      <point x="157" y="966" type="curve" smooth="yes"/>
      <point x="157" y="1190"/>
      <point x="385" y="1370"/>
      <point x="783" y="1370" type="curve" smooth="yes"/>
      <point x="1066" y="1370"/>
      <point x="1238" y="1240"/>
      <point x="1238" y="1050" type="curve" smooth="yes"/>
      <point x="1238" y="864"/>
      <point x="1031" y="747"/>
      <point x="614" y="674" type="curve"/>
      <point x="608" y="742" type="line"/>
      <point x="734" y="802"/>
      <point x="793" y="898"/>
      <point x="793" y="1038" type="curve" smooth="yes"/>
      <point x="793" y="1168"/>
      <point x="744" y="1246"/>
    </contour>
    <contour>
      <point x="540" y="606" type="line"/>
      <point x="473" y="602"/>
      <point x="410" y="494"/>
      <point x="410" y="380" type="curve" smooth="yes"/>
      <point x="410" y="238"/>
      <point x="492" y="148"/>
      <point x="616" y="148" type="curve" smooth="yes"/>
      <point x="719" y="148"/>
      <point x="805" y="176"/>
      <point x="873" y="268" type="curve"/>
      <point x="1026" y="198" type="line"/>
      <point x="878" y="24"/>
      <point x="698" y="-30"/>
      <point x="474" y="-30" type="curve" smooth="yes"/>
      <point x="159" y="-30"/>
      <point x="-12" y="130"/>
      <point x="-12" y="318" type="curve" smooth="yes"/>
      <point x="-12" y="518"/>
      <point x="231" y="676"/>
      <point x="540" y="676" type="curve"/>
    </contour>
    <contour>
      <point x="1092" y="376" type="line"/>
      <point x="1073" y="420" type="line" smooth="yes"/>
      <point x="1119" y="456"/>
      <point x="1152" y="506"/>
      <point x="1152" y="540" type="curve" smooth="yes"/>
      <point x="1152" y="586"/>
      <point x="1137" y="610"/>
      <point x="1114" y="624" type="curve" smooth="yes"/>
      <point x="1106" y="636" type="line" smooth="yes"/>
      <point x="1073" y="656"/>
      <point x="1053" y="676"/>
      <point x="1053" y="704" type="curve" smooth="yes"/>
      <point x="1053" y="744"/>
      <point x="1082" y="758"/>
      <point x="1133" y="758" type="curve" smooth="yes"/>
      <point x="1413" y="758" type="line" smooth="yes"/>
      <point x="1487" y="758"/>
      <point x="1526" y="738"/>
      <point x="1526" y="692" type="curve" smooth="yes"/>
      <point x="1526" y="658"/>
      <point x="1502" y="632"/>
      <point x="1432" y="612" type="curve" smooth="yes"/>
      <point x="1409" y="598"/>
      <point x="1384" y="558"/>
      <point x="1300" y="478" type="curve" smooth="yes"/>
      <point x="1213" y="324" type="line"/>
    </contour>
  </outline>
</glyph>
<glyph name="parenleft" format="2">
  <advance width="896"/>
  <unicode hex="0028"/>
  <outline>
    <contour>
      <point x="105" y="580" type="curve" smooth="yes"/>
      <point x="105" y="108"/>
      <point x="358" y="-228"/>
      <point x="628" y="-324" type="curve" smooth="yes"/>
      <point x="696" y="-336"/>
      <point x="766" y="-340"/>
      <point x="801" y="-340" type="curve" smooth="yes"/>
      <point x="845" y="-340"/>
      <point x="873" y="-316"/>
      <point x="873" y="-284" type="curve" smooth="yes"/>
      <point x="873" y="-264"/>
      <point x="859" y="-246"/>
      <point x="808" y="-230" type="curve" smooth="yes"/>
      <point x="641" y="-138"/>
      <point x="534" y="160"/>
      <point x="534" y="580" type="curve" smooth="yes"/>
      <point x="534" y="998"/>
      <point x="645" y="1298"/>
      <point x="808" y="1390" type="curve" smooth="yes"/>
      <point x="859" y="1406"/>
      <point x="873" y="1426"/>
      <point x="873" y="1450" type="curve" smooth="yes"/>
      <point x="873" y="1476"/>
      <point x="845" y="1502"/>
      <point x="805" y="1502" type="curve" smooth="yes"/>
      <point x="770" y="1502"/>
      <point x="725" y="1492"/>
      <point x="641" y="1476" type="curve" smooth="yes"/>
      <point x="321" y="1360"/>
      <point x="105" y="1004"/>
    </contour>
  </outline>
</glyph>
<glyph name="parenright" format="2">
  <advance width="896"/>
  <unicode hex="0029"/>
  <outline>
    <contour>
      <point x="791" y="584" type="curve" smooth="yes"/>
      <point x="791" y="1056"/>
      <point x="538" y="1392"/>
      <point x="268" y="1488" type="curve" smooth="yes"/>
      <point x="200" y="1500"/>
      <point x="130" y="1504"/>
      <point x="95" y="1504" type="curve" smooth="yes"/>
      <point x="52" y="1504"/>
      <point x="23" y="1480"/>
      <point x="23" y="1448" type="curve" smooth="yes"/>
      <point x="23" y="1428"/>
      <point x="37" y="1410"/>
      <point x="89" y="1394" type="curve" smooth="yes"/>
      <point x="255" y="1302"/>
      <point x="363" y="1004"/>
      <point x="363" y="584" type="curve" smooth="yes"/>
      <point x="363" y="166"/>
      <point x="251" y="-134"/>
      <point x="89" y="-226" type="curve" smooth="yes"/>
      <point x="37" y="-242"/>
      <point x="23" y="-262"/>
      <point x="23" y="-286" type="curve" smooth="yes"/>
      <point x="23" y="-312"/>
      <point x="52" y="-338"/>
      <point x="91" y="-338" type="curve" smooth="yes"/>
      <point x="126" y="-338"/>
      <point x="171" y="-328"/>
      <point x="255" y="-312" type="curve" smooth="yes"/>
      <point x="575" y="-196"/>
      <point x="791" y="160"/>
    </contour>
  </outline>
</glyph>
<glyph name="plus" format="2">
  <advance width="1026"/>
  <unicode hex="002B"/>
  <outline>
    <contour>
      <point x="23" y="612" type="curve" smooth="yes"/>
      <point x="23" y="553"/>
      <point x="94" y="507"/>
      <point x="177" y="507" type="curve" smooth="yes"/>
      <point x="295" y="507"/>
      <point x="433" y="535"/>
      <point x="519" y="535" type="curve" smooth="yes"/>
      <point x="608" y="535"/>
      <point x="740" y="507"/>
      <point x="849" y="507" type="curve" smooth="yes"/>
      <point x="942" y="507"/>
      <point x="1003" y="553"/>
      <point x="1003" y="612" type="curve" smooth="yes"/>
      <point x="1003" y="673"/>
      <point x="940" y="721"/>
      <point x="849" y="721" type="curve" smooth="yes"/>
      <point x="740" y="721"/>
      <point x="608" y="693"/>
      <point x="519" y="693" type="curve" smooth="yes"/>
      <point x="418" y="693"/>
      <point x="295" y="721"/>
      <point x="179" y="721" type="curve" smooth="yes"/>
      <point x="102" y="721"/>
      <point x="23" y="673"/>
    </contour>
    <contour>
      <point x="521" y="168" type="curve" smooth="yes"/>
      <point x="603" y="168"/>
      <point x="667" y="220"/>
      <point x="667" y="281" type="curve" smooth="yes"/>
      <point x="667" y="396"/>
      <point x="639" y="531"/>
      <point x="639" y="616" type="curve" smooth="yes"/>
      <point x="639" y="703"/>
      <point x="667" y="832"/>
      <point x="667" y="939" type="curve" smooth="yes"/>
      <point x="667" y="1008"/>
      <point x="603" y="1052"/>
      <point x="521" y="1052" type="curve" smooth="yes"/>
      <point x="438" y="1052"/>
      <point x="371" y="1006"/>
      <point x="371" y="939" type="curve" smooth="yes"/>
      <point x="371" y="832"/>
      <point x="400" y="703"/>
      <point x="400" y="616" type="curve" smooth="yes"/>
      <point x="400" y="517"/>
      <point x="371" y="396"/>
      <point x="371" y="283" type="curve" smooth="yes"/>
      <point x="371" y="226"/>
      <point x="438" y="168"/>
    </contour>
  </outline>
</glyph>
<glyph name="comma" format="2">
  <advance width="642"/>
  <unicode hex="002C"/>
  <outline>
    <contour>
      <point x="192" y="-16" type="curve" smooth="yes"/>
      <point x="276" y="-34" type="line" smooth="yes"/>
      <point x="342" y="-48"/>
      <point x="362" y="-81"/>
      <point x="362" y="-135" type="curve" smooth="yes"/>
      <point x="362" y="-210"/>
      <point x="274" y="-259"/>
      <point x="147" y="-277" type="curve" smooth="yes"/>
      <point x="70" y="-287"/>
      <point x="43" y="-317"/>
      <point x="43" y="-351" type="curve" smooth="yes"/>
      <point x="43" y="-392"/>
      <point x="78" y="-422"/>
      <point x="146" y="-422" type="curve" smooth="yes"/>
      <point x="383" y="-422"/>
      <point x="626" y="-263"/>
      <point x="626" y="-10" type="curve" smooth="yes"/>
      <point x="626" y="224"/>
      <point x="469" y="341"/>
      <point x="295" y="341" type="curve" smooth="yes"/>
      <point x="157" y="341"/>
      <point x="49" y="264"/>
      <point x="49" y="166" type="curve" smooth="yes"/>
      <point x="49" y="80"/>
      <point x="87" y="10"/>
    </contour>
  </outline>
</glyph>
<glyph name="hyphen" format="2">
  <advance width="880"/>
  <unicode hex="002D"/>
  <outline>
    <contour>
      <point x="761" y="604" type="curve" smooth="yes"/>
      <point x="214" y="604" type="line" smooth="yes"/>
      <point x="159" y="604"/>
      <point x="114" y="590"/>
      <point x="73" y="529" type="curve" smooth="yes"/>
      <point x="50" y="495" type="line" smooth="yes"/>
      <point x="33" y="471"/>
      <point x="23" y="446"/>
      <point x="23" y="432" type="curve" smooth="yes"/>
      <point x="23" y="398"/>
      <point x="33" y="378"/>
      <point x="102" y="378" type="curve" smooth="yes"/>
      <point x="650" y="378" type="line" smooth="yes"/>
      <point x="733" y="378"/>
      <point x="782" y="400"/>
      <point x="811" y="450" type="curve" smooth="yes"/>
      <point x="837" y="493" type="line" smooth="yes"/>
      <point x="851" y="517"/>
      <point x="857" y="535"/>
      <point x="857" y="551" type="curve" smooth="yes"/>
      <point x="857" y="586"/>
      <point x="811" y="604"/>
    </contour>
  </outline>
</glyph>
<glyph name="slash" format="2">
  <advance width="865"/>
  <unicode hex="002F"/>
  <outline>
    <contour>
      <point x="840" y="1364" type="curve" smooth="yes"/>
      <point x="861" y="1440"/>
      <point x="873" y="1512"/>
      <point x="760" y="1534" type="curve" smooth="yes"/>
      <point x="678" y="1552"/>
      <point x="579" y="1494"/>
      <point x="548" y="1424" type="curve" smooth="yes"/>
      <point x="496" y="1294"/>
      <point x="643" y="1120"/>
      <point x="383" y="690" type="curve" smooth="yes"/>
      <point x="95" y="222"/>
      <point x="105" y="126"/>
      <point x="25" y="-36" type="curve" smooth="yes"/>
      <point x="-7" y="-114"/>
      <point x="27" y="-174"/>
      <point x="128" y="-190" type="curve" smooth="yes"/>
      <point x="198" y="-204"/>
      <point x="287" y="-172"/>
      <point x="328" y="-84" type="curve" smooth="yes"/>
      <point x="389" y="68"/>
      <point x="222" y="168"/>
      <point x="482" y="654" type="curve" smooth="yes"/>
      <point x="723" y="1098"/>
      <point x="777" y="1218"/>
    </contour>
  </outline>
</glyph>
<glyph name="zero" format="2">
  <advance width="1351"/>
  <unicode hex="0030"/>
  <outline>
    <contour>
      <point x="670" y="1330" type="curve" smooth="yes"/>
      <point x="266" y="1330"/>
      <point x="4" y="1074"/>
      <point x="4" y="672" type="curve" smooth="yes"/>
      <point x="4" y="220"/>
      <point x="247" y="-30"/>
      <point x="670" y="-30" type="curve" smooth="yes"/>
      <point x="1061" y="-30"/>
      <point x="1349" y="214"/>
      <point x="1349" y="672" type="curve" smooth="yes"/>
      <point x="1349" y="1080"/>
      <point x="1077" y="1330"/>
    </contour>
    <contour>
      <point x="840" y="590" type="curve" smooth="yes"/>
      <point x="840" y="240"/>
      <point x="781" y="112"/>
      <point x="700" y="112" type="curve" smooth="yes"/>
      <point x="577" y="112"/>
      <point x="509" y="296"/>
      <point x="509" y="740" type="curve" smooth="yes"/>
      <point x="509" y="1028"/>
      <point x="556" y="1188"/>
      <point x="645" y="1188" type="curve" smooth="yes"/>
      <point x="768" y="1188"/>
      <point x="840" y="1002"/>
    </contour>
  </outline>
</glyph>
<glyph name="one" format="2">
  <advance width="993"/>
  <unicode hex="0031"/>
  <outline>
    <contour>
      <point x="91" y="1094" type="line" smooth="yes"/>
      <point x="23" y="1094"/>
      <point x="-8" y="1122"/>
      <point x="-8" y="1162" type="curve" smooth="yes"/>
      <point x="-8" y="1202"/>
      <point x="33" y="1232"/>
      <point x="99" y="1232" type="curve" smooth="yes"/>
      <point x="146" y="1232" type="line" smooth="yes"/>
      <point x="293" y="1232"/>
      <point x="408" y="1236"/>
      <point x="494" y="1292" type="curve" smooth="yes"/>
      <point x="534" y="1318"/>
      <point x="564" y="1330"/>
      <point x="614" y="1330" type="curve" smooth="yes"/>
      <point x="674" y="1330"/>
      <point x="711" y="1306"/>
      <point x="711" y="1246" type="curve" smooth="yes"/>
      <point x="711" y="286" type="line" smooth="yes"/>
      <point x="711" y="208"/>
      <point x="753" y="152"/>
      <point x="812" y="144" type="curve" smooth="yes"/>
      <point x="810" y="136" type="line" smooth="yes"/>
      <point x="868" y="130"/>
      <point x="911" y="110"/>
      <point x="911" y="72" type="curve" smooth="yes"/>
      <point x="911" y="22"/>
      <point x="876" y="0"/>
      <point x="810" y="0" type="curve" smooth="yes"/>
      <point x="144" y="0" type="line" smooth="yes"/>
      <point x="80" y="0"/>
      <point x="41" y="22"/>
      <point x="41" y="72" type="curve" smooth="yes"/>
      <point x="41" y="114"/>
      <point x="79" y="134"/>
      <point x="146" y="142" type="curve" smooth="yes"/>
      <point x="138" y="150" type="line" smooth="yes"/>
      <point x="206" y="160"/>
      <point x="260" y="206"/>
      <point x="260" y="286" type="curve" smooth="yes"/>
      <point x="260" y="940" type="line" smooth="yes"/>
      <point x="260" y="1048"/>
      <point x="202" y="1094"/>
      <point x="109" y="1094" type="curve" smooth="yes"/>
    </contour>
  </outline>
</glyph>
<glyph name="two" format="2">
  <advance width="1154"/>
  <unicode hex="0032"/>
  <outline>
    <contour>
      <point x="301" y="540" type="curve" smooth="yes"/>
      <point x="96" y="381"/>
      <point x="-21" y="234"/>
      <point x="-21" y="80" type="curve" smooth="yes"/>
      <point x="-21" y="10"/>
      <point x="25" y="-30"/>
      <point x="115" y="-30" type="curve" smooth="yes"/>
      <point x="313" y="-30"/>
      <point x="212" y="124"/>
      <point x="348" y="124" type="curve" smooth="yes"/>
      <point x="464" y="124"/>
      <point x="544" y="-30"/>
      <point x="816" y="-30" type="curve" smooth="yes"/>
      <point x="1040" y="-30"/>
      <point x="1147" y="111"/>
      <point x="1147" y="312" type="curve" smooth="yes"/>
      <point x="1147" y="374"/>
      <point x="1117" y="426"/>
      <point x="1046" y="426" type="curve" smooth="yes"/>
      <point x="1011" y="426"/>
      <point x="976" y="410"/>
      <point x="962" y="364" type="curve" smooth="yes"/>
      <point x="932" y="280"/>
      <point x="894" y="254"/>
      <point x="818" y="254" type="curve" smooth="yes"/>
      <point x="710" y="254"/>
      <point x="581" y="342"/>
      <point x="468" y="342" type="curve" smooth="yes"/>
      <point x="300" y="342"/>
      <point x="227" y="248"/>
      <point x="227" y="154" type="curve"/>
      <point x="258" y="156" type="line"/>
      <point x="258" y="280"/>
      <point x="418" y="353"/>
      <point x="667" y="472" type="curve" smooth="yes"/>
      <point x="922" y="596"/>
      <point x="1086" y="746"/>
      <point x="1086" y="966" type="curve" smooth="yes"/>
      <point x="1086" y="1174"/>
      <point x="884" y="1328"/>
      <point x="554" y="1328" type="curve" smooth="yes"/>
      <point x="202" y="1328"/>
      <point x="6" y="1150"/>
      <point x="6" y="974" type="curve" smooth="yes"/>
      <point x="6" y="862"/>
      <point x="82" y="796"/>
      <point x="206" y="796" type="curve" smooth="yes"/>
      <point x="347" y="796"/>
      <point x="453" y="868"/>
      <point x="453" y="980" type="curve" smooth="yes"/>
      <point x="453" y="1040" type="line" smooth="yes"/>
      <point x="453" y="1133"/>
      <point x="474" y="1198"/>
      <point x="534" y="1198" type="curve" smooth="yes"/>
      <point x="577" y="1198"/>
      <point x="610" y="1116"/>
      <point x="610" y="960" type="curve" smooth="yes"/>
      <point x="610" y="796"/>
      <point x="543" y="682"/>
    </contour>
  </outline>
</glyph>
<glyph name="four" format="2">
  <advance width="1209"/>
  <unicode hex="0034"/>
  <outline>
    <contour>
      <point x="632" y="646" type="curve" smooth="yes"/>
      <point x="634" y="262" type="line" smooth="yes"/>
      <point x="634" y="204"/>
      <point x="606" y="180"/>
      <point x="552" y="164" type="curve" smooth="yes"/>
      <point x="536" y="148" type="line" smooth="yes"/>
      <point x="447" y="130"/>
      <point x="389" y="120"/>
      <point x="389" y="70" type="curve" smooth="yes"/>
      <point x="389" y="20"/>
      <point x="424" y="0"/>
      <point x="501" y="0" type="curve" smooth="yes"/>
      <point x="1108" y="0" type="line" smooth="yes"/>
      <point x="1182" y="0"/>
      <point x="1220" y="20"/>
      <point x="1220" y="70" type="curve" smooth="yes"/>
      <point x="1220" y="120"/>
      <point x="1176" y="146"/>
      <point x="1112" y="154" type="curve" smooth="yes"/>
      <point x="1092" y="160" type="line" smooth="yes"/>
      <point x="1036" y="168"/>
      <point x="1009" y="198"/>
      <point x="1009" y="256" type="curve" smooth="yes"/>
      <point x="1007" y="832" type="line" smooth="yes"/>
      <point x="1007" y="884"/>
      <point x="970" y="906"/>
      <point x="919" y="906" type="curve" smooth="yes"/>
      <point x="880" y="906"/>
      <point x="840" y="900"/>
      <point x="787" y="858" type="curve" smooth="yes"/>
      <point x="690" y="762" type="line" smooth="yes"/>
      <point x="649" y="728"/>
      <point x="632" y="696"/>
    </contour>
    <contour>
      <point x="325" y="788" type="curve" smooth="yes"/>
      <point x="144" y="554" type="line" smooth="yes"/>
      <point x="78" y="500"/>
      <point x="6" y="450"/>
      <point x="6" y="410" type="curve" smooth="yes"/>
      <point x="6" y="348"/>
      <point x="60" y="312"/>
      <point x="155" y="312" type="curve" smooth="yes"/>
      <point x="1077" y="312" type="line" smooth="yes"/>
      <point x="1178" y="312"/>
      <point x="1220" y="338"/>
      <point x="1222" y="400" type="curve" smooth="yes"/>
      <point x="1224" y="446"/>
      <point x="1156" y="468"/>
      <point x="1077" y="468" type="curve" smooth="yes"/>
      <point x="243" y="468" type="line"/>
      <point x="218" y="414" type="line"/>
      <point x="624" y="844" type="line" smooth="yes"/>
      <point x="824" y="990"/>
      <point x="908" y="1068"/>
      <point x="908" y="1146" type="curve" smooth="yes"/>
      <point x="908" y="1254"/>
      <point x="801" y="1330"/>
      <point x="659" y="1330" type="curve" smooth="yes"/>
      <point x="484" y="1330"/>
      <point x="379" y="1237"/>
      <point x="379" y="1140" type="curve" smooth="yes"/>
      <point x="379" y="1064"/>
      <point x="459" y="1040"/>
      <point x="459" y="970" type="curve" smooth="yes"/>
      <point x="459" y="918"/>
      <point x="418" y="856"/>
    </contour>
  </outline>
</glyph>
<glyph name="five" format="2">
  <advance width="1156"/>
  <unicode hex="0035"/>
  <outline>
    <contour>
      <point x="29" y="262" type="curve" smooth="yes"/>
      <point x="29" y="98"/>
      <point x="208" y="-30"/>
      <point x="494" y="-30" type="curve" smooth="yes"/>
      <point x="847" y="-30"/>
      <point x="1117" y="148"/>
      <point x="1117" y="418" type="curve" smooth="yes"/>
      <point x="1117" y="652"/>
      <point x="906" y="802"/>
      <point x="595" y="802" type="curve" smooth="yes"/>
      <point x="431" y="802"/>
      <point x="277" y="754"/>
      <point x="196" y="636" type="curve"/>
      <point x="342" y="656" type="line"/>
      <point x="342" y="1174" type="line"/>
      <point x="196" y="1094" type="line"/>
      <point x="278" y="1002"/>
      <point x="441" y="908"/>
      <point x="674" y="908" type="curve" smooth="yes"/>
      <point x="1042" y="908"/>
      <point x="1152" y="1057"/>
      <point x="1152" y="1258" type="curve" smooth="yes"/>
      <point x="1152" y="1304"/>
      <point x="1102" y="1328"/>
      <point x="1051" y="1328" type="curve" smooth="yes"/>
      <point x="1002" y="1328"/>
      <point x="958" y="1302"/>
      <point x="948" y="1262" type="curve" smooth="yes"/>
      <point x="953" y="1209"/>
      <point x="916" y="1174"/>
      <point x="859" y="1174" type="curve" smooth="yes"/>
      <point x="757" y="1174"/>
      <point x="536" y="1326"/>
      <point x="325" y="1326" type="curve" smooth="yes"/>
      <point x="192" y="1326"/>
      <point x="132" y="1270"/>
      <point x="132" y="1180" type="curve" smooth="yes"/>
      <point x="132" y="614" type="line" smooth="yes"/>
      <point x="132" y="568"/>
      <point x="187" y="528"/>
      <point x="249" y="528" type="curve" smooth="yes"/>
      <point x="301" y="528"/>
      <point x="330" y="548"/>
      <point x="383" y="592" type="curve" smooth="yes"/>
      <point x="403" y="636"/>
      <point x="431" y="648"/>
      <point x="459" y="648" type="curve" smooth="yes"/>
      <point x="576" y="648"/>
      <point x="645" y="548"/>
      <point x="645" y="358" type="curve" smooth="yes"/>
      <point x="645" y="204"/>
      <point x="587" y="114"/>
      <point x="503" y="114" type="curve" smooth="yes"/>
      <point x="494" y="114"/>
      <point x="492" y="162"/>
      <point x="492" y="212" type="curve" smooth="yes"/>
      <point x="492" y="264" type="line" smooth="yes"/>
      <point x="492" y="374"/>
      <point x="402" y="448"/>
      <point x="297" y="448" type="curve" smooth="yes"/>
      <point x="142" y="448"/>
      <point x="29" y="370"/>
    </contour>
  </outline>
</glyph>
<glyph name="six" format="2">
  <advance width="1261"/>
  <unicode hex="0036"/>
  <outline>
    <contour>
      <point x="773" y="1326" type="curve" smooth="yes"/>
      <point x="334" y="1326"/>
      <point x="2" y="1106"/>
      <point x="2" y="564" type="curve" smooth="yes"/>
      <point x="2" y="155"/>
      <point x="250" y="-30"/>
      <point x="581" y="-30" type="curve" smooth="yes"/>
      <point x="975" y="-30"/>
      <point x="1234" y="168"/>
      <point x="1234" y="454" type="curve" smooth="yes"/>
      <point x="1234" y="693"/>
      <point x="1061" y="826"/>
      <point x="810" y="826" type="curve" smooth="yes"/>
      <point x="535" y="826"/>
      <point x="311" y="658"/>
      <point x="311" y="454" type="curve"/>
      <point x="459" y="424" type="line"/>
      <point x="459" y="558"/>
      <point x="537" y="654"/>
      <point x="639" y="654" type="curve" smooth="yes"/>
      <point x="736" y="654"/>
      <point x="820" y="563"/>
      <point x="820" y="386" type="curve" smooth="yes"/>
      <point x="820" y="221"/>
      <point x="750" y="132"/>
      <point x="634" y="132" type="curve" smooth="yes"/>
      <point x="545" y="132"/>
      <point x="468" y="240"/>
      <point x="468" y="602" type="curve" smooth="yes"/>
      <point x="468" y="1043"/>
      <point x="555" y="1186"/>
      <point x="647" y="1186" type="curve" smooth="yes"/>
      <point x="723" y="1186"/>
      <point x="764" y="1132"/>
      <point x="764" y="1078" type="curve" smooth="yes"/>
      <point x="764" y="1042" type="line" smooth="yes"/>
      <point x="764" y="930"/>
      <point x="874" y="862"/>
      <point x="999" y="862" type="curve" smooth="yes"/>
      <point x="1145" y="862"/>
      <point x="1238" y="926"/>
      <point x="1238" y="1036" type="curve" smooth="yes"/>
      <point x="1238" y="1188"/>
      <point x="1072" y="1326"/>
    </contour>
  </outline>
</glyph>
<glyph name="seven" format="2">
  <advance width="1063"/>
  <unicode hex="0037"/>
  <outline>
    <contour>
      <point x="871" y="1108" type="curve" smooth="yes"/>
      <point x="686" y="924" type="line" smooth="yes"/>
      <point x="274" y="532"/>
      <point x="260" y="360"/>
      <point x="260" y="206" type="curve" smooth="yes"/>
      <point x="260" y="60"/>
      <point x="356" y="-30"/>
      <point x="507" y="-30" type="curve" smooth="yes"/>
      <point x="719" y="-30"/>
      <point x="832" y="60"/>
      <point x="830" y="162" type="curve" smooth="yes"/>
      <point x="830" y="282"/>
      <point x="686" y="332"/>
      <point x="686" y="462" type="curve" smooth="yes"/>
      <point x="686" y="578"/>
      <point x="714" y="680"/>
      <point x="785" y="808" type="curve" smooth="yes"/>
      <point x="966" y="1008" type="line" smooth="yes"/>
      <point x="1090" y="1107"/>
      <point x="1096" y="1146"/>
      <point x="1096" y="1192" type="curve" smooth="yes"/>
      <point x="1096" y="1254"/>
      <point x="1014" y="1298"/>
      <point x="884" y="1298" type="curve" smooth="yes"/>
      <point x="212" y="1298" type="line" smooth="yes"/>
      <point x="111" y="1298"/>
      <point x="54" y="1252"/>
      <point x="47" y="1184" type="curve" smooth="yes"/>
      <point x="23" y="912" type="line" smooth="yes"/>
      <point x="19" y="856"/>
      <point x="64" y="826"/>
      <point x="122" y="826" type="curve" smooth="yes"/>
      <point x="185" y="826"/>
      <point x="229" y="858"/>
      <point x="251" y="900" type="curve" smooth="yes"/>
      <point x="290" y="980" type="line" smooth="yes"/>
      <point x="309" y="1032"/>
      <point x="354" y="1050"/>
      <point x="416" y="1050" type="curve" smooth="yes"/>
      <point x="937" y="1050" type="line"/>
      <point x="919" y="1230" type="line"/>
      <point x="919" y="1194"/>
      <point x="917" y="1154"/>
    </contour>
  </outline>
</glyph>
<glyph name="eight" format="2">
  <advance width="1182"/>
  <unicode hex="0038"/>
  <outline>
    <contour>
      <point x="538" y="-30" type="curve" smooth="yes"/>
      <point x="931" y="-30"/>
      <point x="1187" y="116"/>
      <point x="1187" y="328" type="curve" smooth="yes"/>
      <point x="1187" y="482"/>
      <point x="1063" y="618"/>
      <point x="756" y="718" type="curve" smooth="yes"/>
      <point x="507" y="800"/>
      <point x="426" y="880"/>
      <point x="426" y="990" type="curve" smooth="yes"/>
      <point x="426" y="1094"/>
      <point x="472" y="1170"/>
      <point x="550" y="1170" type="curve" smooth="yes"/>
      <point x="647" y="1170"/>
      <point x="715" y="1094"/>
      <point x="715" y="970" type="curve" smooth="yes"/>
      <point x="715" y="862"/>
      <point x="682" y="734"/>
      <point x="610" y="682" type="curve"/>
      <point x="717" y="636" type="line"/>
      <point x="966" y="688"/>
      <point x="1162" y="840"/>
      <point x="1162" y="998" type="curve" smooth="yes"/>
      <point x="1162" y="1178"/>
      <point x="946" y="1328"/>
      <point x="604" y="1328" type="curve" smooth="yes"/>
      <point x="165" y="1328"/>
      <point x="-12" y="1136"/>
      <point x="-12" y="924" type="curve" smooth="yes"/>
      <point x="-12" y="726"/>
      <point x="150" y="598"/>
      <point x="494" y="492" type="curve" smooth="yes"/>
      <point x="682" y="416"/>
      <point x="740" y="366"/>
      <point x="740" y="272" type="curve" smooth="yes"/>
      <point x="740" y="176"/>
      <point x="688" y="118"/>
      <point x="579" y="118" type="curve" smooth="yes"/>
      <point x="478" y="118"/>
      <point x="422" y="192"/>
      <point x="422" y="306" type="curve" smooth="yes"/>
      <point x="422" y="388"/>
      <point x="439" y="476"/>
      <point x="523" y="544" type="curve"/>
      <point x="424" y="572" type="line"/>
      <point x="181" y="532"/>
      <point x="16" y="430"/>
      <point x="16" y="272" type="curve" smooth="yes"/>
      <point x="16" y="92"/>
      <point x="190" y="-30"/>
    </contour>
  </outline>
</glyph>
<glyph name="colon" format="2">
  <advance width="560"/>
  <unicode hex="003A"/>
  <outline>
    <contour>
      <point x="310" y="-30" type="curve" smooth="yes"/>
      <point x="457" y="-30"/>
      <point x="572" y="59"/>
      <point x="572" y="166" type="curve" smooth="yes"/>
      <point x="572" y="273"/>
      <point x="457" y="360"/>
      <point x="310" y="360" type="curve" smooth="yes"/>
      <point x="167" y="360"/>
      <point x="53" y="273"/>
      <point x="53" y="166" type="curve" smooth="yes"/>
      <point x="53" y="59"/>
      <point x="167" y="-30"/>
    </contour>
    <contour>
      <point x="310" y="551" type="curve" smooth="yes"/>
      <point x="457" y="551"/>
      <point x="572" y="640"/>
      <point x="572" y="747" type="curve" smooth="yes"/>
      <point x="572" y="854"/>
      <point x="457" y="941"/>
      <point x="310" y="941" type="curve" smooth="yes"/>
      <point x="167" y="941"/>
      <point x="53" y="854"/>
      <point x="53" y="747" type="curve" smooth="yes"/>
      <point x="53" y="640"/>
      <point x="167" y="551"/>
    </contour>
  </outline>
</glyph>
<glyph name="semicolon" format="2">
  <advance width="634"/>
  <unicode hex="003B"/>
  <outline>
    <contour>
      <point x="165" y="-16" type="curve" smooth="yes"/>
      <point x="252" y="-34" type="line" smooth="yes"/>
      <point x="319" y="-48"/>
      <point x="340" y="-81"/>
      <point x="340" y="-135" type="curve" smooth="yes"/>
      <point x="340" y="-210"/>
      <point x="249" y="-259"/>
      <point x="117" y="-277" type="curve" smooth="yes"/>
      <point x="37" y="-287"/>
      <point x="10" y="-317"/>
      <point x="10" y="-351" type="curve" smooth="yes"/>
      <point x="10" y="-392"/>
      <point x="45" y="-422"/>
      <point x="115" y="-422" type="curve" smooth="yes"/>
      <point x="362" y="-422"/>
      <point x="613" y="-263"/>
      <point x="613" y="-10" type="curve" smooth="yes"/>
      <point x="613" y="224"/>
      <point x="450" y="341"/>
      <point x="269" y="341" type="curve" smooth="yes"/>
      <point x="126" y="341"/>
      <point x="15" y="264"/>
      <point x="15" y="166" type="curve" smooth="yes"/>
      <point x="15" y="80"/>
      <point x="56" y="10"/>
    </contour>
    <contour>
      <point x="298" y="558" type="curve" smooth="yes"/>
      <point x="440" y="558"/>
      <point x="550" y="646"/>
      <point x="550" y="753" type="curve" smooth="yes"/>
      <point x="550" y="861"/>
      <point x="440" y="947"/>
      <point x="298" y="947" type="curve" smooth="yes"/>
      <point x="159" y="947"/>
      <point x="48" y="861"/>
      <point x="48" y="753" type="curve" smooth="yes"/>
      <point x="48" y="646"/>
      <point x="159" y="558"/>
    </contour>
  </outline>
</glyph>
<glyph name="less" format="2">
  <advance width="1107"/>
  <unicode hex="003C"/>
  <outline>
    <contour>
      <point x="996" y="194" type="curve" smooth="yes"/>
      <point x="1020" y="271"/>
      <point x="972" y="343"/>
      <point x="781" y="404" type="curve" smooth="yes"/>
      <point x="632" y="479"/>
      <point x="407" y="557"/>
      <point x="171" y="628" type="curve"/>
      <point x="171" y="596" type="line"/>
      <point x="408" y="667"/>
      <point x="636" y="737"/>
      <point x="787" y="822" type="curve" smooth="yes"/>
      <point x="943" y="881"/>
      <point x="1010" y="935"/>
      <point x="994" y="1010" type="curve" smooth="yes"/>
      <point x="963" y="1095"/>
      <point x="829" y="1107"/>
      <point x="723" y="1034" type="curve" smooth="yes"/>
      <point x="659" y="955"/>
      <point x="384" y="818"/>
      <point x="174" y="733" type="curve" smooth="yes"/>
      <point x="47" y="702"/>
      <point x="2" y="658"/>
      <point x="2" y="612" type="curve" smooth="yes"/>
      <point x="2" y="567"/>
      <point x="49" y="523"/>
      <point x="174" y="491" type="curve" smooth="yes"/>
      <point x="384" y="407"/>
      <point x="640" y="257"/>
      <point x="723" y="190" type="curve" smooth="yes"/>
      <point x="871" y="117"/>
      <point x="977" y="133"/>
    </contour>
  </outline>
</glyph>
<glyph name="equal" format="2">
  <advance width="1028"/>
  <unicode hex="003D"/>
  <outline>
    <contour>
      <point x="25" y="804" type="curve" smooth="yes"/>
      <point x="25" y="745"/>
      <point x="98" y="699"/>
      <point x="179" y="699" type="curve" smooth="yes"/>
      <point x="297" y="699"/>
      <point x="435" y="717"/>
      <point x="521" y="717" type="curve" smooth="yes"/>
      <point x="610" y="717"/>
      <point x="742" y="699"/>
      <point x="851" y="699" type="curve" smooth="yes"/>
      <point x="946" y="699"/>
      <point x="1005" y="745"/>
      <point x="1005" y="804" type="curve" smooth="yes"/>
      <point x="1005" y="865"/>
      <point x="941" y="913"/>
      <point x="851" y="913" type="curve" smooth="yes"/>
      <point x="742" y="913"/>
      <point x="610" y="895"/>
      <point x="521" y="895" type="curve" smooth="yes"/>
      <point x="420" y="895"/>
      <point x="297" y="913"/>
      <point x="181" y="913" type="curve" smooth="yes"/>
      <point x="105" y="913"/>
      <point x="25" y="865"/>
    </contour>
    <contour>
      <point x="23" y="440" type="curve" smooth="yes"/>
      <point x="23" y="382"/>
      <point x="96" y="335"/>
      <point x="177" y="335" type="curve" smooth="yes"/>
      <point x="295" y="335"/>
      <point x="433" y="354"/>
      <point x="519" y="354" type="curve" smooth="yes"/>
      <point x="608" y="354"/>
      <point x="740" y="335"/>
      <point x="849" y="335" type="curve" smooth="yes"/>
      <point x="943" y="335"/>
      <point x="1003" y="382"/>
      <point x="1003" y="440" type="curve" smooth="yes"/>
      <point x="1003" y="501"/>
      <point x="939" y="549"/>
      <point x="849" y="549" type="curve" smooth="yes"/>
      <point x="740" y="549"/>
      <point x="608" y="531"/>
      <point x="519" y="531" type="curve" smooth="yes"/>
      <point x="418" y="531"/>
      <point x="295" y="549"/>
      <point x="179" y="549" type="curve" smooth="yes"/>
      <point x="103" y="549"/>
      <point x="23" y="501"/>
    </contour>
  </outline>
</glyph>
<glyph name="question" format="2">
  <advance width="925"/>
  <unicode hex="003F"/>
  <outline>
    <contour>
      <point x="243" y="588" type="line" smooth="yes"/>
      <point x="241" y="602"/>
      <point x="241" y="606"/>
      <point x="241" y="614" type="curve" smooth="yes"/>
      <point x="241" y="654"/>
      <point x="264" y="694"/>
      <point x="342" y="720" type="curve" smooth="yes"/>
      <point x="422" y="760" type="line" smooth="yes"/>
      <point x="488" y="802"/>
      <point x="536" y="909"/>
      <point x="536" y="1038" type="curve" smooth="yes"/>
      <point x="536" y="1212"/>
      <point x="482" y="1296"/>
      <point x="398" y="1296" type="curve" smooth="yes"/>
      <point x="348" y="1296"/>
      <point x="319" y="1256"/>
      <point x="319" y="1184" type="curve" smooth="yes"/>
      <point x="319" y="1100" type="line" smooth="yes"/>
      <point x="319" y="1016"/>
      <point x="231" y="954"/>
      <point x="119" y="954" type="curve" smooth="yes"/>
      <point x="4" y="954"/>
      <point x="-70" y="1014"/>
      <point x="-70" y="1118" type="curve" smooth="yes"/>
      <point x="-70" y="1271"/>
      <point x="164" y="1430"/>
      <point x="431" y="1430" type="curve" smooth="yes"/>
      <point x="773" y="1430"/>
      <point x="970" y="1297"/>
      <point x="970" y="1054" type="curve" smooth="yes"/>
      <point x="970" y="854"/>
      <point x="818" y="725"/>
      <point x="573" y="640" type="curve" smooth="yes"/>
      <point x="562" y="628" type="line" smooth="yes"/>
      <point x="505" y="610"/>
      <point x="472" y="576"/>
      <point x="447" y="514" type="curve" smooth="yes"/>
      <point x="453" y="496" type="line" smooth="yes"/>
      <point x="437" y="444"/>
      <point x="404" y="418"/>
      <point x="346" y="418" type="curve" smooth="yes"/>
      <point x="299" y="418"/>
      <point x="256" y="453"/>
      <point x="245" y="512" type="curve" smooth="yes"/>
    </contour>
    <contour>
      <point x="344" y="-30" type="curve" smooth="yes"/>
      <point x="493" y="-30"/>
      <point x="609" y="58"/>
      <point x="609" y="164" type="curve" smooth="yes"/>
      <point x="609" y="270"/>
      <point x="493" y="356"/>
      <point x="344" y="356" type="curve" smooth="yes"/>
      <point x="199" y="356"/>
      <point x="83" y="270"/>
      <point x="83" y="164" type="curve" smooth="yes"/>
      <point x="83" y="58"/>
      <point x="199" y="-30"/>
    </contour>
  </outline>
</glyph>
<glyph name="at" format="2">
  <advance width="1603"/>
  <unicode hex="0040"/>
  <outline>
    <contour>
      <point x="971" y="467" type="curve"/>
      <point x="1001" y="545" type="line"/>
      <point x="948" y="568"/>
      <point x="921" y="582"/>
      <point x="844" y="582" type="curve" smooth="yes"/>
      <point x="608" y="582"/>
      <point x="471" y="499"/>
      <point x="471" y="382" type="curve" smooth="yes"/>
      <point x="471" y="263"/>
      <point x="585" y="180"/>
      <point x="763" y="180" type="curve" smooth="yes"/>
      <point x="872" y="180"/>
      <point x="981" y="222"/>
      <point x="1024" y="295" type="curve"/>
      <point x="979" y="372" type="line"/>
      <point x="967" y="333"/>
      <point x="929" y="317"/>
      <point x="876" y="317" type="curve" smooth="yes"/>
      <point x="809" y="317"/>
      <point x="762" y="356"/>
      <point x="762" y="410" type="curve" smooth="yes"/>
      <point x="762" y="459"/>
      <point x="803" y="491"/>
      <point x="842" y="491" type="curve" smooth="yes"/>
      <point x="902" y="491"/>
      <point x="928" y="483"/>
    </contour>
    <contour>
      <point x="480" y="729" type="curve" smooth="yes"/>
      <point x="480" y="662"/>
      <point x="538" y="616"/>
      <point x="622" y="616" type="curve" smooth="yes"/>
      <point x="712" y="616"/>
      <point x="774" y="668"/>
      <point x="774" y="733" type="curve" smooth="yes"/>
      <point x="774" y="780" type="line" smooth="yes"/>
      <point x="774" y="820"/>
      <point x="787" y="838"/>
      <point x="814" y="838" type="curve" smooth="yes"/>
      <point x="874" y="838"/>
      <point x="920" y="794"/>
      <point x="920" y="671" type="curve" smooth="yes"/>
      <point x="920" y="382" type="line" smooth="yes"/>
      <point x="920" y="236"/>
      <point x="1025" y="180"/>
      <point x="1140" y="180" type="curve" smooth="yes"/>
      <point x="1366" y="180"/>
      <point x="1542" y="337"/>
      <point x="1542" y="608" type="curve" smooth="yes"/>
      <point x="1542" y="984"/>
      <point x="1242" y="1240"/>
      <point x="833" y="1240" type="curve" smooth="yes"/>
      <point x="392" y="1240"/>
      <point x="69" y="945"/>
      <point x="69" y="539" type="curve" smooth="yes"/>
      <point x="69" y="113"/>
      <point x="379" y="-168"/>
      <point x="847" y="-168" type="curve" smooth="yes"/>
      <point x="1122" y="-168"/>
      <point x="1368" y="-81"/>
      <point x="1497" y="55" type="curve" smooth="yes"/>
      <point x="1539" y="87"/>
      <point x="1547" y="107"/>
      <point x="1547" y="129" type="curve" smooth="yes"/>
      <point x="1547" y="162"/>
      <point x="1517" y="188"/>
      <point x="1462" y="188" type="curve" smooth="yes"/>
      <point x="1419" y="188"/>
      <point x="1394" y="178"/>
      <point x="1323" y="133" type="curve" smooth="yes"/>
      <point x="1249" y="51"/>
      <point x="1064" y="-22"/>
      <point x="849" y="-22" type="curve" smooth="yes"/>
      <point x="506" y="-22"/>
      <point x="261" y="212"/>
      <point x="261" y="539" type="curve" smooth="yes"/>
      <point x="261" y="865"/>
      <point x="500" y="1105"/>
      <point x="821" y="1105" type="curve" smooth="yes"/>
      <point x="1128" y="1105"/>
      <point x="1354" y="901"/>
      <point x="1354" y="606" type="curve" smooth="yes"/>
      <point x="1354" y="404"/>
      <point x="1293" y="323"/>
      <point x="1222" y="323" type="curve" smooth="yes"/>
      <point x="1186" y="323"/>
      <point x="1172" y="358"/>
      <point x="1172" y="420" type="curve" smooth="yes"/>
      <point x="1172" y="705" type="line" smooth="yes"/>
      <point x="1172" y="856"/>
      <point x="1037" y="927"/>
      <point x="848" y="927" type="curve" smooth="yes"/>
      <point x="603" y="927"/>
      <point x="480" y="824"/>
    </contour>
  </outline>
</glyph>
<glyph name="A" format="2">
  <advance width="1629"/>
  <unicode hex="0041"/>
  <anchor x="876" y="1462" name="center"/>
  <outline>
    <contour>
      <point x="461" y="598" type="line"/>
      <point x="468" y="450" type="line"/>
      <point x="1123" y="450" type="line"/>
      <point x="1110" y="598" type="line"/>
    </contour>
    <contour>
      <point x="682" y="72" type="curve" smooth="yes"/>
      <point x="682" y="104"/>
      <point x="653" y="136"/>
      <point x="614" y="166" type="curve" smooth="yes"/>
      <point x="591" y="188" type="line" smooth="yes"/>
      <point x="521" y="222"/>
      <point x="544" y="284"/>
      <point x="583" y="412" type="curve" smooth="yes"/>
      <point x="657" y="1098" type="line" smooth="yes"/>
      <point x="671" y="1134"/>
      <point x="700" y="1150"/>
      <point x="746" y="1150" type="curve" smooth="yes"/>
      <point x="791" y="1150"/>
      <point x="822" y="1139"/>
      <point x="838" y="1098" type="curve" smooth="yes"/>
      <point x="964" y="286" type="line" smooth="yes"/>
      <point x="979" y="218"/>
      <point x="962" y="172"/>
      <point x="943" y="160" type="curve" smooth="yes"/>
      <point x="946" y="152" type="line" smooth="yes"/>
      <point x="898" y="136"/>
      <point x="863" y="118"/>
      <point x="863" y="72" type="curve" smooth="yes"/>
      <point x="863" y="24"/>
      <point x="896" y="0"/>
      <point x="948" y="0" type="curve" smooth="yes"/>
      <point x="1471" y="0" type="line" smooth="yes"/>
      <point x="1549" y="0"/>
      <point x="1599" y="24"/>
      <point x="1599" y="70" type="curve" smooth="yes"/>
      <point x="1599" y="106"/>
      <point x="1594" y="126"/>
      <point x="1537" y="158" type="curve" smooth="yes"/>
      <point x="1471" y="192"/>
      <point x="1430" y="254"/>
      <point x="1419" y="320" type="curve" smooth="yes"/>
      <point x="1285" y="1152" type="line" smooth="yes"/>
      <point x="1267" y="1202"/>
      <point x="1255" y="1238"/>
      <point x="1304" y="1256" type="curve" smooth="yes"/>
      <point x="1351" y="1272"/>
      <point x="1368" y="1292"/>
      <point x="1368" y="1328" type="curve" smooth="yes"/>
      <point x="1368" y="1370"/>
      <point x="1320" y="1400"/>
      <point x="1252" y="1400" type="curve" smooth="yes"/>
      <point x="418" y="1400" type="line" smooth="yes"/>
      <point x="367" y="1400"/>
      <point x="321" y="1368"/>
      <point x="321" y="1324" type="curve" smooth="yes"/>
      <point x="321" y="1300"/>
      <point x="342" y="1272"/>
      <point x="389" y="1246" type="curve" smooth="yes"/>
      <point x="431" y="1220"/>
      <point x="404" y="1178"/>
      <point x="387" y="1132" type="curve" smooth="yes"/>
      <point x="305" y="412" type="line" smooth="yes"/>
      <point x="280" y="296"/>
      <point x="204" y="220"/>
      <point x="109" y="170" type="curve" smooth="yes"/>
      <point x="64" y="138"/>
      <point x="33" y="106"/>
      <point x="33" y="74" type="curve" smooth="yes"/>
      <point x="33" y="20"/>
      <point x="66" y="0"/>
      <point x="144" y="0" type="curve" smooth="yes"/>
      <point x="593" y="0" type="line" smooth="yes"/>
      <point x="647" y="0"/>
      <point x="682" y="28"/>
    </contour>
  </outline>
</glyph>
<glyph name="B" format="2">
  <advance width="1535"/>
  <unicode hex="0042"/>
  <outline>
    <contour>
      <point x="1485" y="344" type="curve" smooth="yes"/>
      <point x="1485" y="556"/>
      <point x="1269" y="698"/>
      <point x="946" y="698" type="curve" smooth="yes"/>
      <point x="923" y="698"/>
      <point x="929" y="680"/>
      <point x="886" y="670" type="curve"/>
      <point x="1032" y="650" type="line"/>
      <point x="1255" y="650"/>
      <point x="1403" y="778"/>
      <point x="1403" y="970" type="curve" smooth="yes"/>
      <point x="1403" y="1232"/>
      <point x="1162" y="1400"/>
      <point x="781" y="1400" type="curve" smooth="yes"/>
      <point x="144" y="1400" type="line" smooth="yes"/>
      <point x="78" y="1400"/>
      <point x="39" y="1374"/>
      <point x="39" y="1332" type="curve" smooth="yes"/>
      <point x="39" y="1296"/>
      <point x="64" y="1270"/>
      <point x="97" y="1256" type="curve" smooth="yes"/>
      <point x="99" y="1246" type="line" smooth="yes"/>
      <point x="171" y="1224"/>
      <point x="225" y="1182"/>
      <point x="225" y="1114" type="curve" smooth="yes"/>
      <point x="225" y="264" type="line" smooth="yes"/>
      <point x="225" y="210"/>
      <point x="175" y="178"/>
      <point x="105" y="156" type="curve" smooth="yes"/>
      <point x="95" y="144" type="line" smooth="yes"/>
      <point x="58" y="130"/>
      <point x="37" y="104"/>
      <point x="37" y="68" type="curve" smooth="yes"/>
      <point x="37" y="26"/>
      <point x="76" y="0"/>
      <point x="142" y="0" type="curve" smooth="yes"/>
      <point x="898" y="0" type="line" smooth="yes"/>
      <point x="1255" y="0"/>
      <point x="1485" y="134"/>
    </contour>
    <contour>
      <point x="853" y="582" type="line" smooth="yes"/>
      <point x="954" y="582"/>
      <point x="1020" y="496"/>
      <point x="1020" y="360" type="curve" smooth="yes"/>
      <point x="1020" y="230"/>
      <point x="960" y="138"/>
      <point x="876" y="138" type="curve" smooth="yes"/>
      <point x="884" y="138" type="line" smooth="yes"/>
      <point x="766" y="138"/>
      <point x="686" y="190"/>
      <point x="686" y="272" type="curve" smooth="yes"/>
      <point x="686" y="1252" type="line"/>
      <point x="770" y="1252" type="line" smooth="yes"/>
      <point x="876" y="1252"/>
      <point x="939" y="1146"/>
      <point x="939" y="986" type="curve" smooth="yes"/>
      <point x="939" y="808"/>
      <point x="834" y="718"/>
      <point x="587" y="718" type="curve" smooth="yes"/>
      <point x="558" y="718" type="line"/>
      <point x="536" y="582" type="line"/>
    </contour>
  </outline>
</glyph>
<glyph name="C" format="2">
  <advance width="1401"/>
  <unicode hex="0043"/>
  <anchor x="717" y="1550" name="center"/>
  <outline>
    <contour>
      <point x="1399" y="374" type="curve" smooth="yes"/>
      <point x="1399" y="408"/>
      <point x="1370" y="436"/>
      <point x="1343" y="436" type="curve" smooth="yes"/>
      <point x="1310" y="436"/>
      <point x="1288" y="430"/>
      <point x="1240" y="382" type="curve" smooth="yes"/>
      <point x="1182" y="286"/>
      <point x="1027" y="222"/>
      <point x="900" y="222" type="curve" smooth="yes"/>
      <point x="661" y="222"/>
      <point x="494" y="442"/>
      <point x="494" y="756" type="curve" smooth="yes"/>
      <point x="494" y="1072"/>
      <point x="604" y="1258"/>
      <point x="754" y="1258" type="curve" smooth="yes"/>
      <point x="883" y="1258"/>
      <point x="1014" y="1194"/>
      <point x="1112" y="1020" type="curve" smooth="yes"/>
      <point x="1166" y="956"/>
      <point x="1221" y="936"/>
      <point x="1269" y="936" type="curve" smooth="yes"/>
      <point x="1333" y="936"/>
      <point x="1370" y="966"/>
      <point x="1370" y="1002" type="curve" smooth="yes"/>
      <point x="1370" y="1026"/>
      <point x="1369" y="1042"/>
      <point x="1347" y="1100" type="curve" smooth="yes"/>
      <point x="1298" y="1308" type="line" smooth="yes"/>
      <point x="1257" y="1400"/>
      <point x="1224" y="1432"/>
      <point x="1160" y="1432" type="curve" smooth="yes"/>
      <point x="1084" y="1432"/>
      <point x="1077" y="1380"/>
      <point x="997" y="1380" type="curve" smooth="yes"/>
      <point x="961" y="1380"/>
      <point x="903" y="1426"/>
      <point x="799" y="1426" type="curve" smooth="yes"/>
      <point x="365" y="1426"/>
      <point x="47" y="1116"/>
      <point x="47" y="676" type="curve" smooth="yes"/>
      <point x="47" y="260"/>
      <point x="313" y="-30"/>
      <point x="727" y="-30" type="curve" smooth="yes"/>
      <point x="1111" y="-30"/>
      <point x="1399" y="184"/>
    </contour>
  </outline>
</glyph>
<glyph name="E" format="2">
  <advance width="1473"/>
  <unicode hex="0045"/>
  <anchor x="799" y="-130" name="right"/>
  <outline>
    <contour>
      <point x="552" y="780" type="line"/>
      <point x="499" y="638" type="line"/>
      <point x="828" y="638" type="line" smooth="yes"/>
      <point x="904" y="638"/>
      <point x="954" y="624"/>
      <point x="979" y="582" type="curve" smooth="yes"/>
      <point x="1057" y="514"/>
      <point x="1084" y="486"/>
      <point x="1149" y="486" type="curve" smooth="yes"/>
      <point x="1211" y="486"/>
      <point x="1255" y="508"/>
      <point x="1255" y="550" type="curve" smooth="yes"/>
      <point x="1255" y="564"/>
      <point x="1248" y="584"/>
      <point x="1242" y="606" type="curve" smooth="yes"/>
      <point x="1185" y="848" type="line" smooth="yes"/>
      <point x="1162" y="904"/>
      <point x="1133" y="932"/>
      <point x="1067" y="932" type="curve" smooth="yes"/>
      <point x="997" y="932"/>
      <point x="968" y="906"/>
      <point x="925" y="852" type="curve" smooth="yes"/>
      <point x="908" y="800"/>
      <point x="892" y="780"/>
      <point x="824" y="780" type="curve" smooth="yes"/>
    </contour>
    <contour>
      <point x="41" y="1328" type="curve" smooth="yes"/>
      <point x="41" y="1288"/>
      <point x="78" y="1258"/>
      <point x="113" y="1250" type="curve" smooth="yes"/>
      <point x="169" y="1236" type="line" smooth="yes"/>
      <point x="204" y="1228"/>
      <point x="227" y="1202"/>
      <point x="227" y="1164" type="curve" smooth="yes"/>
      <point x="227" y="268" type="line" smooth="yes"/>
      <point x="227" y="208"/>
      <point x="202" y="180"/>
      <point x="148" y="164" type="curve" smooth="yes"/>
      <point x="136" y="156" type="line" smooth="yes"/>
      <point x="68" y="142"/>
      <point x="41" y="114"/>
      <point x="41" y="68" type="curve" smooth="yes"/>
      <point x="41" y="22"/>
      <point x="76" y="0"/>
      <point x="130" y="0" type="curve" smooth="yes"/>
      <point x="1018" y="0" type="line" smooth="yes"/>
      <point x="1094" y="0"/>
      <point x="1130" y="-42"/>
      <point x="1203" y="-42" type="curve" smooth="yes"/>
      <point x="1263" y="-42"/>
      <point x="1306" y="-18"/>
      <point x="1337" y="48" type="curve" smooth="yes"/>
      <point x="1411" y="288" type="line" smooth="yes"/>
      <point x="1426" y="326"/>
      <point x="1428" y="352"/>
      <point x="1428" y="370" type="curve" smooth="yes"/>
      <point x="1428" y="420"/>
      <point x="1386" y="452"/>
      <point x="1296" y="452" type="curve" smooth="yes"/>
      <point x="1232" y="452"/>
      <point x="1182" y="420"/>
      <point x="1084" y="314" type="curve" smooth="yes"/>
      <point x="1024" y="188"/>
      <point x="927" y="160"/>
      <point x="805" y="160" type="curve" smooth="yes"/>
      <point x="915" y="160" type="line" smooth="yes"/>
      <point x="768" y="160"/>
      <point x="688" y="232"/>
      <point x="688" y="340" type="curve" smooth="yes"/>
      <point x="688" y="1260" type="line"/>
      <point x="713" y="1260" type="line" smooth="yes"/>
      <point x="886" y="1260"/>
      <point x="1003" y="1198"/>
      <point x="1098" y="1056" type="curve" smooth="yes"/>
      <point x="1158" y="988"/>
      <point x="1217" y="970"/>
      <point x="1273" y="970" type="curve" smooth="yes"/>
      <point x="1339" y="970"/>
      <point x="1384" y="994"/>
      <point x="1384" y="1034" type="curve" smooth="yes"/>
      <point x="1384" y="1044"/>
      <point x="1382" y="1062"/>
      <point x="1376" y="1084" type="curve" smooth="yes"/>
      <point x="1316" y="1356" type="line" smooth="yes"/>
      <point x="1299" y="1416"/>
      <point x="1263" y="1446"/>
      <point x="1213" y="1446" type="curve" smooth="yes"/>
      <point x="1173" y="1446"/>
      <point x="1145" y="1437"/>
      <point x="1108" y="1422" type="curve" smooth="yes"/>
      <point x="1059" y="1405"/>
      <point x="1025" y="1400"/>
      <point x="974" y="1400" type="curve" smooth="yes"/>
      <point x="126" y="1400" type="line" smooth="yes"/>
      <point x="72" y="1400"/>
      <point x="41" y="1372"/>
    </contour>
  </outline>
</glyph>
<glyph name="I" format="2">
  <advance width="919"/>
  <unicode hex="0049"/>
  <outline>
    <contour>
      <point x="690" y="252" type="curve" smooth="yes"/>
      <point x="690" y="1146" type="line" smooth="yes"/>
      <point x="690" y="1200"/>
      <point x="715" y="1224"/>
      <point x="766" y="1236" type="curve" smooth="yes"/>
      <point x="805" y="1246" type="line" smooth="yes"/>
      <point x="869" y="1256"/>
      <point x="896" y="1280"/>
      <point x="896" y="1328" type="curve" smooth="yes"/>
      <point x="896" y="1378"/>
      <point x="863" y="1400"/>
      <point x="795" y="1400" type="curve" smooth="yes"/>
      <point x="128" y="1400" type="line" smooth="yes"/>
      <point x="49" y="1400"/>
      <point x="19" y="1378"/>
      <point x="19" y="1328" type="curve" smooth="yes"/>
      <point x="19" y="1280"/>
      <point x="43" y="1260"/>
      <point x="101" y="1248" type="curve" smooth="yes"/>
      <point x="152" y="1236" type="line" smooth="yes"/>
      <point x="202" y="1224"/>
      <point x="229" y="1200"/>
      <point x="229" y="1146" type="curve" smooth="yes"/>
      <point x="229" y="252" type="line" smooth="yes"/>
      <point x="229" y="200"/>
      <point x="202" y="176"/>
      <point x="152" y="164" type="curve" smooth="yes"/>
      <point x="126" y="154" type="line" smooth="yes"/>
      <point x="56" y="140"/>
      <point x="23" y="118"/>
      <point x="23" y="72" type="curve" smooth="yes"/>
      <point x="23" y="22"/>
      <point x="49" y="0"/>
      <point x="128" y="0" type="curve" smooth="yes"/>
      <point x="791" y="0" type="line" smooth="yes"/>
      <point x="863" y="0"/>
      <point x="900" y="22"/>
      <point x="900" y="72" type="curve" smooth="yes"/>
      <point x="900" y="120"/>
      <point x="873" y="144"/>
      <point x="810" y="154" type="curve" smooth="yes"/>
      <point x="766" y="164" type="line" smooth="yes"/>
      <point x="715" y="174"/>
      <point x="690" y="200"/>
    </contour>
  </outline>
</glyph>
<glyph name="J" format="2">
  <advance width="1084"/>
  <unicode hex="004A"/>
  <anchor x="581" y="1464" name="center"/>
  <outline>
    <contour>
      <point x="1084" y="280" type="curve" smooth="yes"/>
      <point x="1084" y="345"/>
      <point x="1044" y="416"/>
      <point x="1001" y="468" type="curve" smooth="yes"/>
      <point x="956" y="524"/>
      <point x="933" y="592"/>
      <point x="933" y="684" type="curve" smooth="yes"/>
      <point x="931" y="1114" type="line" smooth="yes"/>
      <point x="931" y="1190"/>
      <point x="962" y="1228"/>
      <point x="1016" y="1242" type="curve" smooth="yes"/>
      <point x="1018" y="1250" type="line" smooth="yes"/>
      <point x="1067" y="1264"/>
      <point x="1096" y="1282"/>
      <point x="1096" y="1330" type="curve" smooth="yes"/>
      <point x="1096" y="1378"/>
      <point x="1065" y="1400"/>
      <point x="993" y="1400" type="curve" smooth="yes"/>
      <point x="350" y="1400" type="line" smooth="yes"/>
      <point x="309" y="1400"/>
      <point x="266" y="1378"/>
      <point x="266" y="1330" type="curve" smooth="yes"/>
      <point x="266" y="1284"/>
      <point x="299" y="1260"/>
      <point x="356" y="1250" type="curve" smooth="yes"/>
      <point x="363" y="1244" type="line" smooth="yes"/>
      <point x="437" y="1230"/>
      <point x="470" y="1192"/>
      <point x="470" y="1112" type="curve" smooth="yes"/>
      <point x="470" y="664" type="line" smooth="yes"/>
      <point x="470" y="542"/>
      <point x="492" y="452"/>
      <point x="560" y="370" type="curve" smooth="yes"/>
      <point x="605" y="307"/>
      <point x="643" y="270"/>
      <point x="643" y="208" type="curve" smooth="yes"/>
      <point x="643" y="132"/>
      <point x="597" y="88"/>
      <point x="527" y="88" type="curve" smooth="yes"/>
      <point x="445" y="88"/>
      <point x="412" y="134"/>
      <point x="412" y="206" type="curve" smooth="yes"/>
      <point x="412" y="266" type="line" smooth="yes"/>
      <point x="412" y="372"/>
      <point x="319" y="440"/>
      <point x="208" y="440" type="curve" smooth="yes"/>
      <point x="58" y="440"/>
      <point x="-23" y="362"/>
      <point x="-23" y="244" type="curve" smooth="yes"/>
      <point x="-23" y="80"/>
      <point x="155" y="-38"/>
      <point x="474" y="-38" type="curve" smooth="yes"/>
      <point x="850" y="-38"/>
      <point x="1084" y="88"/>
    </contour>
  </outline>
</glyph>
<glyph name="K" format="2">
  <advance width="1743"/>
  <unicode hex="004B"/>
  <outline>
    <contour>
      <point x="464" y="462" type="line"/>
      <point x="554" y="374" type="line"/>
      <point x="1174" y="1000" type="line" smooth="yes"/>
      <point x="1378" y="1118"/>
      <point x="1491" y="1186"/>
      <point x="1549" y="1208" type="curve" smooth="yes"/>
      <point x="1621" y="1228"/>
      <point x="1652" y="1258"/>
      <point x="1650" y="1318" type="curve" smooth="yes"/>
      <point x="1648" y="1362"/>
      <point x="1597" y="1400"/>
      <point x="1508" y="1400" type="curve" smooth="yes"/>
      <point x="989" y="1400" type="line" smooth="yes"/>
      <point x="921" y="1400"/>
      <point x="871" y="1378"/>
      <point x="871" y="1332" type="curve" smooth="yes"/>
      <point x="871" y="1304"/>
      <point x="873" y="1282"/>
      <point x="941" y="1258" type="curve" smooth="yes"/>
      <point x="946" y="1242" type="line" smooth="yes"/>
      <point x="991" y="1222"/>
      <point x="1009" y="1196"/>
      <point x="1009" y="1164" type="curve" smooth="yes"/>
      <point x="1009" y="1104"/>
      <point x="956" y="1050"/>
      <point x="853" y="990" type="curve" smooth="yes"/>
    </contour>
    <contour>
      <point x="781" y="712" type="line"/>
      <point x="983" y="286" type="line" smooth="yes"/>
      <point x="999" y="256"/>
      <point x="1014" y="240"/>
      <point x="1014" y="208" type="curve" smooth="yes"/>
      <point x="1014" y="182"/>
      <point x="1005" y="170"/>
      <point x="968" y="146" type="curve" smooth="yes"/>
      <point x="933" y="126"/>
      <point x="919" y="108"/>
      <point x="919" y="68" type="curve" smooth="yes"/>
      <point x="919" y="22"/>
      <point x="958" y="0"/>
      <point x="1020" y="0" type="curve" smooth="yes"/>
      <point x="1537" y="0" type="line" smooth="yes"/>
      <point x="1638" y="0"/>
      <point x="1681" y="32"/>
      <point x="1681" y="84" type="curve" smooth="yes"/>
      <point x="1681" y="136"/>
      <point x="1646" y="154"/>
      <point x="1582" y="176" type="curve" smooth="yes"/>
      <point x="1570" y="190"/>
      <point x="1568" y="200"/>
      <point x="1553" y="240" type="curve" smooth="yes"/>
      <point x="1133" y="922" type="line"/>
    </contour>
    <contour>
      <point x="686" y="252" type="curve" smooth="yes"/>
      <point x="686" y="1146" type="line" smooth="yes"/>
      <point x="686" y="1200"/>
      <point x="711" y="1224"/>
      <point x="762" y="1236" type="curve" smooth="yes"/>
      <point x="801" y="1246" type="line" smooth="yes"/>
      <point x="865" y="1256"/>
      <point x="892" y="1280"/>
      <point x="892" y="1328" type="curve" smooth="yes"/>
      <point x="892" y="1378"/>
      <point x="859" y="1400"/>
      <point x="791" y="1400" type="curve" smooth="yes"/>
      <point x="124" y="1400" type="line" smooth="yes"/>
      <point x="45" y="1400"/>
      <point x="14" y="1378"/>
      <point x="14" y="1328" type="curve" smooth="yes"/>
      <point x="14" y="1280"/>
      <point x="39" y="1260"/>
      <point x="97" y="1248" type="curve" smooth="yes"/>
      <point x="148" y="1236" type="line" smooth="yes"/>
      <point x="198" y="1224"/>
      <point x="225" y="1200"/>
      <point x="225" y="1146" type="curve" smooth="yes"/>
      <point x="225" y="252" type="line" smooth="yes"/>
      <point x="225" y="200"/>
      <point x="198" y="176"/>
      <point x="148" y="164" type="curve" smooth="yes"/>
      <point x="122" y="154" type="line" smooth="yes"/>
      <point x="52" y="140"/>
      <point x="19" y="118"/>
      <point x="19" y="72" type="curve" smooth="yes"/>
      <point x="19" y="22"/>
      <point x="45" y="0"/>
      <point x="124" y="0" type="curve" smooth="yes"/>
      <point x="787" y="0" type="line" smooth="yes"/>
      <point x="859" y="0"/>
      <point x="896" y="22"/>
      <point x="896" y="72" type="curve" smooth="yes"/>
      <point x="896" y="120"/>
      <point x="869" y="144"/>
      <point x="805" y="154" type="curve" smooth="yes"/>
      <point x="762" y="164" type="line" smooth="yes"/>
      <point x="711" y="174"/>
      <point x="686" y="200"/>
    </contour>
  </outline>
</glyph>
<glyph name="M" format="2">
  <advance width="2124"/>
  <unicode hex="004D"/>
  <outline>
    <contour>
      <point x="1170" y="376" type="line"/>
      <point x="843" y="1272" type="line" smooth="yes"/>
      <point x="787" y="1362"/>
      <point x="692" y="1400"/>
      <point x="608" y="1400" type="curve" smooth="yes"/>
      <point x="222" y="1400" type="line" smooth="yes"/>
      <point x="159" y="1400"/>
      <point x="117" y="1378"/>
      <point x="117" y="1332" type="curve" smooth="yes"/>
      <point x="117" y="1296"/>
      <point x="134" y="1256"/>
      <point x="175" y="1242" type="curve" smooth="yes"/>
      <point x="214" y="1228" type="line" smooth="yes"/>
      <point x="253" y="1214"/>
      <point x="286" y="1190"/>
      <point x="280" y="1150" type="curve" smooth="yes"/>
      <point x="206" y="268" type="line" smooth="yes"/>
      <point x="202" y="214"/>
      <point x="171" y="188"/>
      <point x="122" y="166" type="curve" smooth="yes"/>
      <point x="84" y="150" type="line" smooth="yes"/>
      <point x="27" y="128"/>
      <point x="16" y="100"/>
      <point x="16" y="64" type="curve" smooth="yes"/>
      <point x="16" y="14"/>
      <point x="60" y="0"/>
      <point x="122" y="0" type="curve" smooth="yes"/>
      <point x="525" y="0" type="line" smooth="yes"/>
      <point x="593" y="0"/>
      <point x="639" y="24"/>
      <point x="639" y="66" type="curve" smooth="yes"/>
      <point x="639" y="110"/>
      <point x="628" y="130"/>
      <point x="591" y="142" type="curve" smooth="yes"/>
      <point x="515" y="170" type="line" smooth="yes"/>
      <point x="457" y="192"/>
      <point x="431" y="224"/>
      <point x="435" y="268" type="curve" smooth="yes"/>
      <point x="509" y="1184" type="line"/>
      <point x="371" y="1170" type="line"/>
      <point x="762" y="208" type="line" smooth="yes"/>
      <point x="840" y="96"/>
      <point x="886" y="84"/>
      <point x="979" y="84" type="curve" smooth="yes"/>
      <point x="1046" y="84"/>
      <point x="1112" y="130"/>
      <point x="1166" y="224" type="curve" smooth="yes"/>
      <point x="1555" y="1216" type="line"/>
      <point x="1391" y="1214" type="line"/>
      <point x="1454" y="244" type="line" smooth="yes"/>
      <point x="1458" y="192"/>
      <point x="1436" y="164"/>
      <point x="1399" y="156" type="curve" smooth="yes"/>
      <point x="1347" y="144" type="line" smooth="yes"/>
      <point x="1310" y="136"/>
      <point x="1290" y="114"/>
      <point x="1290" y="68" type="curve" smooth="yes"/>
      <point x="1290" y="22"/>
      <point x="1308" y="0"/>
      <point x="1353" y="0" type="curve" smooth="yes"/>
      <point x="1978" y="0" type="line" smooth="yes"/>
      <point x="2052" y="0"/>
      <point x="2083" y="22"/>
      <point x="2083" y="68" type="curve" smooth="yes"/>
      <point x="2083" y="114"/>
      <point x="2064" y="130"/>
      <point x="2025" y="144" type="curve" smooth="yes"/>
      <point x="1992" y="156" type="line" smooth="yes"/>
      <point x="1943" y="174"/>
      <point x="1922" y="192"/>
      <point x="1918" y="244" type="curve" smooth="yes"/>
      <point x="1860" y="1140" type="line" smooth="yes"/>
      <point x="1856" y="1192"/>
      <point x="1883" y="1214"/>
      <point x="1916" y="1230" type="curve" smooth="yes"/>
      <point x="1976" y="1256" type="line" smooth="yes"/>
      <point x="2004" y="1272"/>
      <point x="2021" y="1288"/>
      <point x="2021" y="1338" type="curve" smooth="yes"/>
      <point x="2021" y="1380"/>
      <point x="1978" y="1400"/>
      <point x="1875" y="1400" type="curve" smooth="yes"/>
      <point x="1875" y="1400"/>
      <point x="1630" y="1400"/>
      <point x="1586" y="1400" type="curve" smooth="yes"/>
      <point x="1506" y="1400"/>
      <point x="1411" y="1360"/>
      <point x="1353" y="1268" type="curve" smooth="yes"/>
      <point x="1026" y="368" type="line"/>
    </contour>
  </outline>
</glyph>
<glyph name="N" format="2">
  <advance width="1644"/>
  <unicode hex="004E"/>
  <anchor x="748" y="1546" name="center"/>
  <outline>
    <contour>
      <point x="678" y="74" type="curve" smooth="yes"/>
      <point x="678" y="120"/>
      <point x="655" y="140"/>
      <point x="610" y="162" type="curve" smooth="yes"/>
      <point x="575" y="188" type="line" smooth="yes"/>
      <point x="515" y="222"/>
      <point x="476" y="282"/>
      <point x="476" y="346" type="curve" smooth="yes"/>
      <point x="476" y="1090" type="line"/>
      <point x="367" y="1018" type="line"/>
      <point x="1003" y="212" type="line" smooth="yes"/>
      <point x="1059" y="168"/>
      <point x="1063" y="144"/>
      <point x="1063" y="106" type="curve" smooth="yes"/>
      <point x="1063" y="56"/>
      <point x="1129" y="0"/>
      <point x="1240" y="0" type="curve" smooth="yes"/>
      <point x="1473" y="0" type="line" smooth="yes"/>
      <point x="1529" y="0"/>
      <point x="1568" y="24"/>
      <point x="1568" y="72" type="curve" smooth="yes"/>
      <point x="1568" y="102"/>
      <point x="1571" y="130"/>
      <point x="1535" y="162" type="curve" smooth="yes"/>
      <point x="1487" y="214" type="line" smooth="yes"/>
      <point x="1461" y="244"/>
      <point x="1436" y="282"/>
      <point x="1436" y="332" type="curve" smooth="yes"/>
      <point x="1436" y="1020" type="line" smooth="yes"/>
      <point x="1436" y="1118"/>
      <point x="1469" y="1174"/>
      <point x="1543" y="1204" type="curve" smooth="yes"/>
      <point x="1539" y="1226" type="line" smooth="yes"/>
      <point x="1617" y="1258"/>
      <point x="1627" y="1284"/>
      <point x="1627" y="1324" type="curve" smooth="yes"/>
      <point x="1627" y="1368"/>
      <point x="1588" y="1400"/>
      <point x="1529" y="1400" type="curve" smooth="yes"/>
      <point x="1071" y="1400" type="line" smooth="yes"/>
      <point x="1016" y="1400"/>
      <point x="981" y="1372"/>
      <point x="981" y="1328" type="curve" smooth="yes"/>
      <point x="981" y="1286"/>
      <point x="1002" y="1254"/>
      <point x="1084" y="1226" type="curve" smooth="yes"/>
      <point x="1112" y="1204" type="line" smooth="yes"/>
      <point x="1158" y="1180"/>
      <point x="1193" y="1134"/>
      <point x="1193" y="1030" type="curve" smooth="yes"/>
      <point x="1193" y="298" type="line"/>
      <point x="1302" y="452" type="line"/>
      <point x="599" y="1320" type="line" smooth="yes"/>
      <point x="542" y="1384"/>
      <point x="517" y="1400"/>
      <point x="472" y="1400" type="curve" smooth="yes"/>
      <point x="95" y="1400" type="line" smooth="yes"/>
      <point x="46" y="1400"/>
      <point x="16" y="1380"/>
      <point x="16" y="1334" type="curve" smooth="yes"/>
      <point x="16" y="1292"/>
      <point x="44" y="1266"/>
      <point x="91" y="1234" type="curve" smooth="yes"/>
      <point x="173" y="1164" type="line" smooth="yes"/>
      <point x="216" y="1130"/>
      <point x="233" y="1098"/>
      <point x="233" y="1026" type="curve" smooth="yes"/>
      <point x="233" y="336" type="line" smooth="yes"/>
      <point x="233" y="266"/>
      <point x="198" y="210"/>
      <point x="152" y="188" type="curve" smooth="yes"/>
      <point x="113" y="164" type="line" smooth="yes"/>
      <point x="58" y="138"/>
      <point x="29" y="116"/>
      <point x="29" y="68" type="curve" smooth="yes"/>
      <point x="29" y="18"/>
      <point x="72" y="0"/>
      <point x="134" y="0" type="curve" smooth="yes"/>
      <point x="564" y="0" type="line" smooth="yes"/>
      <point x="632" y="0"/>
      <point x="678" y="26"/>
    </contour>
  </outline>
</glyph>
<glyph name="O" format="2">
  <advance width="1644"/>
  <unicode hex="004F"/>
  <outline>
    <contour>
      <point x="824" y="1426" type="curve" smooth="yes"/>
      <point x="317" y="1426"/>
      <point x="47" y="1100"/>
      <point x="47" y="708" type="curve" smooth="yes"/>
      <point x="47" y="270"/>
      <point x="321" y="-30"/>
      <point x="824" y="-30" type="curve" smooth="yes"/>
      <point x="1300" y="-30"/>
      <point x="1599" y="280"/>
      <point x="1599" y="710" type="curve" smooth="yes"/>
      <point x="1599" y="1122"/>
      <point x="1298" y="1426"/>
    </contour>
    <contour>
      <point x="1127" y="578" type="curve" smooth="yes"/>
      <point x="1127" y="300"/>
      <point x="1066" y="154"/>
      <point x="935" y="154" type="curve" smooth="yes"/>
      <point x="757" y="154"/>
      <point x="515" y="446"/>
      <point x="515" y="830" type="curve" smooth="yes"/>
      <point x="515" y="1080"/>
      <point x="572" y="1246"/>
      <point x="715" y="1246" type="curve" smooth="yes"/>
      <point x="893" y="1246"/>
      <point x="1127" y="958"/>
    </contour>
  </outline>
</glyph>
<glyph name="P" format="2">
  <advance width="1487"/>
  <unicode hex="0050"/>
  <outline>
    <contour>
      <point x="1504" y="868" type="curve" smooth="yes"/>
      <point x="1504" y="1186"/>
      <point x="1185" y="1400"/>
      <point x="707" y="1400" type="curve" smooth="yes"/>
      <point x="105" y="1400" type="line" smooth="yes"/>
      <point x="64" y="1400"/>
      <point x="41" y="1374"/>
      <point x="41" y="1330" type="curve" smooth="yes"/>
      <point x="41" y="1290"/>
      <point x="60" y="1264"/>
      <point x="99" y="1254" type="curve" smooth="yes"/>
      <point x="150" y="1242" type="line" smooth="yes"/>
      <point x="200" y="1230"/>
      <point x="227" y="1198"/>
      <point x="227" y="1152" type="curve" smooth="yes"/>
      <point x="227" y="244" type="line" smooth="yes"/>
      <point x="227" y="200"/>
      <point x="200" y="168"/>
      <point x="150" y="156" type="curve" smooth="yes"/>
      <point x="99" y="144" type="line" smooth="yes"/>
      <point x="56" y="134"/>
      <point x="41" y="108"/>
      <point x="41" y="68" type="curve" smooth="yes"/>
      <point x="41" y="26"/>
      <point x="64" y="0"/>
      <point x="105" y="0" type="curve" smooth="yes"/>
      <point x="810" y="0" type="line" smooth="yes"/>
      <point x="849" y="0"/>
      <point x="873" y="26"/>
      <point x="873" y="68" type="curve" smooth="yes"/>
      <point x="873" y="108"/>
      <point x="853" y="136"/>
      <point x="816" y="144" type="curve" smooth="yes"/>
      <point x="764" y="156" type="line" smooth="yes"/>
      <point x="715" y="168"/>
      <point x="688" y="200"/>
      <point x="688" y="244" type="curve" smooth="yes"/>
      <point x="688" y="1252" type="line"/>
      <point x="696" y="1252" type="line" smooth="yes"/>
      <point x="894" y="1252"/>
      <point x="1030" y="1104"/>
      <point x="1030" y="898" type="curve" smooth="yes"/>
      <point x="1030" y="678"/>
      <point x="892" y="566"/>
      <point x="762" y="566" type="curve" smooth="yes"/>
      <point x="630" y="566"/>
      <point x="575" y="596"/>
      <point x="496" y="636" type="curve"/>
      <point x="476" y="506" type="line"/>
      <point x="597" y="452"/>
      <point x="700" y="422"/>
      <point x="958" y="422" type="curve" smooth="yes"/>
      <point x="1283" y="422"/>
      <point x="1504" y="602"/>
    </contour>
  </outline>
</glyph>
<glyph name="Q" format="2">
  <advance width="1664"/>
  <unicode hex="0051"/>
  <outline>
    <contour>
      <point x="812" y="374" type="curve" smooth="yes"/>
      <point x="900" y="-161"/>
      <point x="1162" y="-352"/>
      <point x="1283" y="-352" type="curve" smooth="yes"/>
      <point x="1438" y="-352"/>
      <point x="1522" y="-320"/>
      <point x="1572" y="-268" type="curve" smooth="yes"/>
      <point x="1603" y="-214" type="line" smooth="yes"/>
      <point x="1646" y="-176"/>
      <point x="1667" y="-142"/>
      <point x="1667" y="-100" type="curve" smooth="yes"/>
      <point x="1667" y="-60"/>
      <point x="1620" y="-34"/>
      <point x="1566" y="-34" type="curve" smooth="yes"/>
      <point x="1502" y="-34"/>
      <point x="1463" y="-64"/>
      <point x="1415" y="-64" type="curve" smooth="yes"/>
      <point x="1236" y="-64"/>
      <point x="1065" y="40"/>
      <point x="985" y="400" type="curve" smooth="yes"/>
      <point x="964" y="456"/>
      <point x="933" y="488"/>
      <point x="886" y="488" type="curve" smooth="yes"/>
      <point x="845" y="488"/>
      <point x="805" y="466"/>
      <point x="805" y="432" type="curve" smooth="yes"/>
      <point x="805" y="410"/>
      <point x="808" y="396"/>
    </contour>
    <contour>
      <point x="824" y="1426" type="curve" smooth="yes"/>
      <point x="317" y="1426"/>
      <point x="47" y="1100"/>
      <point x="47" y="708" type="curve" smooth="yes"/>
      <point x="47" y="270"/>
      <point x="321" y="-30"/>
      <point x="824" y="-30" type="curve" smooth="yes"/>
      <point x="1300" y="-30"/>
      <point x="1599" y="280"/>
      <point x="1599" y="710" type="curve" smooth="yes"/>
      <point x="1599" y="1122"/>
      <point x="1298" y="1426"/>
    </contour>
    <contour>
      <point x="1127" y="578" type="curve" smooth="yes"/>
      <point x="1127" y="300"/>
      <point x="1066" y="154"/>
      <point x="935" y="154" type="curve" smooth="yes"/>
      <point x="757" y="154"/>
      <point x="515" y="446"/>
      <point x="515" y="830" type="curve" smooth="yes"/>
      <point x="515" y="1080"/>
      <point x="572" y="1246"/>
      <point x="715" y="1246" type="curve" smooth="yes"/>
      <point x="893" y="1246"/>
      <point x="1127" y="958"/>
    </contour>
  </outline>
</glyph>
<glyph name="T" format="2">
  <advance width="1434"/>
  <unicode hex="0054"/>
  <outline>
    <contour>
      <point x="389" y="1400" type="line" smooth="yes"/>
      <point x="297" y="1400"/>
      <point x="268" y="1444"/>
      <point x="225" y="1444" type="curve" smooth="yes"/>
      <point x="138" y="1444"/>
      <point x="77" y="1413"/>
      <point x="64" y="1356" type="curve" smooth="yes"/>
      <point x="29" y="1104" type="line" smooth="yes"/>
      <point x="12" y="1032"/>
      <point x="47" y="1002"/>
      <point x="111" y="1002" type="curve" smooth="yes"/>
      <point x="159" y="1002"/>
      <point x="200" y="1018"/>
      <point x="262" y="1096" type="curve" smooth="yes"/>
      <point x="319" y="1204"/>
      <point x="356" y="1256"/>
      <point x="406" y="1256" type="curve" smooth="yes"/>
      <point x="484" y="1256" type="line"/>
      <point x="484" y="268" type="line" smooth="yes"/>
      <point x="484" y="208"/>
      <point x="457" y="178"/>
      <point x="408" y="164" type="curve" smooth="yes"/>
      <point x="389" y="154" type="line" smooth="yes"/>
      <point x="319" y="140"/>
      <point x="280" y="116"/>
      <point x="280" y="72" type="curve" smooth="yes"/>
      <point x="280" y="24"/>
      <point x="323" y="0"/>
      <point x="385" y="0" type="curve" smooth="yes"/>
      <point x="1046" y="0" type="line" smooth="yes"/>
      <point x="1110" y="0"/>
      <point x="1152" y="24"/>
      <point x="1152" y="72" type="curve" smooth="yes"/>
      <point x="1152" y="116"/>
      <point x="1114" y="138"/>
      <point x="1042" y="154" type="curve" smooth="yes"/>
      <point x="1024" y="164" type="line" smooth="yes"/>
      <point x="974" y="178"/>
      <point x="948" y="208"/>
      <point x="948" y="268" type="curve" smooth="yes"/>
      <point x="948" y="1256" type="line"/>
      <point x="1028" y="1256" type="line" smooth="yes"/>
      <point x="1077" y="1256"/>
      <point x="1121" y="1194"/>
      <point x="1166" y="1092" type="curve" smooth="yes"/>
      <point x="1228" y="1014"/>
      <point x="1277" y="998"/>
      <point x="1329" y="998" type="curve" smooth="yes"/>
      <point x="1399" y="998"/>
      <point x="1428" y="1026"/>
      <point x="1407" y="1100" type="curve" smooth="yes"/>
      <point x="1368" y="1358" type="line" smooth="yes"/>
      <point x="1353" y="1416"/>
      <point x="1292" y="1448"/>
      <point x="1220" y="1448" type="curve" smooth="yes"/>
      <point x="1158" y="1448"/>
      <point x="1126" y="1400"/>
      <point x="1051" y="1400" type="curve"/>
    </contour>
  </outline>
</glyph>
<glyph name="X" format="2">
  <advance width="1607"/>
  <unicode hex="0058"/>
  <outline>
    <contour>
      <point x="1372" y="236" type="curve" smooth="yes"/>
      <point x="867" y="1108" type="line" smooth="yes"/>
      <point x="814" y="1172"/>
      <point x="775" y="1224"/>
      <point x="859" y="1240" type="curve" smooth="yes"/>
      <point x="861" y="1246" type="line" smooth="yes"/>
      <point x="896" y="1254"/>
      <point x="933" y="1280"/>
      <point x="933" y="1326" type="curve" smooth="yes"/>
      <point x="933" y="1374"/>
      <point x="890" y="1400"/>
      <point x="814" y="1400" type="curve" smooth="yes"/>
      <point x="99" y="1400" type="line" smooth="yes"/>
      <point x="62" y="1400"/>
      <point x="35" y="1376"/>
      <point x="35" y="1330" type="curve" smooth="yes"/>
      <point x="35" y="1294"/>
      <point x="49" y="1266"/>
      <point x="119" y="1242" type="curve" smooth="yes"/>
      <point x="173" y="1224"/>
      <point x="187" y="1208"/>
      <point x="222" y="1158" type="curve" smooth="yes"/>
      <point x="696" y="302" type="line" smooth="yes"/>
      <point x="810" y="204"/>
      <point x="845" y="186"/>
      <point x="717" y="162" type="curve" smooth="yes"/>
      <point x="676" y="152"/>
      <point x="653" y="130"/>
      <point x="653" y="80" type="curve" smooth="yes"/>
      <point x="653" y="32"/>
      <point x="705" y="0"/>
      <point x="777" y="0" type="curve" smooth="yes"/>
      <point x="1479" y="0" type="line" smooth="yes"/>
      <point x="1549" y="0"/>
      <point x="1584" y="30"/>
      <point x="1584" y="76" type="curve" smooth="yes"/>
      <point x="1584" y="128"/>
      <point x="1557" y="158"/>
      <point x="1512" y="162" type="curve" smooth="yes"/>
      <point x="1450" y="168"/>
      <point x="1417" y="184"/>
    </contour>
    <contour>
      <point x="935" y="622" type="line"/>
      <point x="1281" y="1072" type="line" smooth="yes"/>
      <point x="1345" y="1154"/>
      <point x="1360" y="1190"/>
      <point x="1423" y="1210" type="curve" smooth="yes"/>
      <point x="1500" y="1238"/>
      <point x="1522" y="1266"/>
      <point x="1526" y="1322" type="curve" smooth="yes"/>
      <point x="1531" y="1368"/>
      <point x="1483" y="1400"/>
      <point x="1415" y="1400" type="curve" smooth="yes"/>
      <point x="970" y="1400" type="line" smooth="yes"/>
      <point x="902" y="1400"/>
      <point x="869" y="1374"/>
      <point x="869" y="1326" type="curve" smooth="yes"/>
      <point x="869" y="1280"/>
      <point x="894" y="1260"/>
      <point x="964" y="1238" type="curve" smooth="yes"/>
      <point x="987" y="1224" type="line" smooth="yes"/>
      <point x="1059" y="1202"/>
      <point x="1049" y="1122"/>
      <point x="943" y="1040" type="curve" smooth="yes"/>
      <point x="742" y="692" type="line"/>
    </contour>
    <contour>
      <point x="674" y="780" type="line"/>
      <point x="348" y="326" type="line" smooth="yes"/>
      <point x="297" y="260"/>
      <point x="237" y="214"/>
      <point x="157" y="200" type="curve" smooth="yes"/>
      <point x="43" y="180"/>
      <point x="21" y="128"/>
      <point x="21" y="90" type="curve" smooth="yes"/>
      <point x="21" y="28"/>
      <point x="76" y="0"/>
      <point x="148" y="0" type="curve" smooth="yes"/>
      <point x="602" y="0" type="line" smooth="yes"/>
      <point x="670" y="0"/>
      <point x="702" y="28"/>
      <point x="702" y="72" type="curve" smooth="yes"/>
      <point x="702" y="104"/>
      <point x="698" y="136"/>
      <point x="626" y="164" type="curve" smooth="yes"/>
      <point x="571" y="188" type="line" smooth="yes"/>
      <point x="529" y="206"/>
      <point x="519" y="246"/>
      <point x="558" y="290" type="curve" smooth="yes"/>
      <point x="865" y="710" type="line"/>
    </contour>
  </outline>
</glyph>
<glyph name="Y" format="2">
  <advance width="1415"/>
  <unicode hex="0059"/>
  <anchor x="647" y="1420" name="center"/>
  <outline>
    <contour>
      <point x="482" y="492" type="line"/>
      <point x="482" y="248" type="line" smooth="yes"/>
      <point x="482" y="196"/>
      <point x="457" y="172"/>
      <point x="408" y="160" type="curve" smooth="yes"/>
      <point x="356" y="148" type="line" smooth="yes"/>
      <point x="319" y="140"/>
      <point x="299" y="118"/>
      <point x="299" y="70" type="curve" smooth="yes"/>
      <point x="299" y="24"/>
      <point x="342" y="0"/>
      <point x="402" y="0" type="curve" smooth="yes"/>
      <point x="1026" y="0" type="line" smooth="yes"/>
      <point x="1098" y="0"/>
      <point x="1129" y="22"/>
      <point x="1129" y="70" type="curve" smooth="yes"/>
      <point x="1129" y="118"/>
      <point x="1108" y="140"/>
      <point x="1071" y="148" type="curve" smooth="yes"/>
      <point x="1020" y="160" type="line" smooth="yes"/>
      <point x="970" y="172"/>
      <point x="946" y="196"/>
      <point x="946" y="248" type="curve" smooth="yes"/>
      <point x="946" y="492" type="line"/>
    </contour>
    <contour>
      <point x="917" y="410" type="line"/>
      <point x="1220" y="1072" type="line" smooth="yes"/>
      <point x="1270" y="1172"/>
      <point x="1291" y="1200"/>
      <point x="1337" y="1218" type="curve" smooth="yes"/>
      <point x="1382" y="1232"/>
      <point x="1395" y="1276"/>
      <point x="1395" y="1316" type="curve" smooth="yes"/>
      <point x="1395" y="1372"/>
      <point x="1362" y="1400"/>
      <point x="1285" y="1400" type="curve" smooth="yes"/>
      <point x="979" y="1400" type="line" smooth="yes"/>
      <point x="916" y="1400"/>
      <point x="878" y="1370"/>
      <point x="878" y="1326" type="curve" smooth="yes"/>
      <point x="878" y="1288"/>
      <point x="898" y="1250"/>
      <point x="950" y="1234" type="curve" smooth="yes"/>
      <point x="1020" y="1208"/>
      <point x="1034" y="1180"/>
      <point x="1036" y="1150" type="curve" smooth="yes"/>
      <point x="1036" y="1128"/>
      <point x="1028" y="1100"/>
      <point x="1011" y="1068" type="curve" smooth="yes"/>
      <point x="775" y="506" type="line"/>
      <point x="906" y="546" type="line"/>
      <point x="653" y="1114" type="line" smooth="yes"/>
      <point x="622" y="1174"/>
      <point x="651" y="1224"/>
      <point x="715" y="1238" type="curve" smooth="yes"/>
      <point x="758" y="1248" type="line" smooth="yes"/>
      <point x="793" y="1256"/>
      <point x="808" y="1280"/>
      <point x="808" y="1326" type="curve" smooth="yes"/>
      <point x="808" y="1372"/>
      <point x="770" y="1400"/>
      <point x="715" y="1400" type="curve" smooth="yes"/>
      <point x="126" y="1400" type="line" smooth="yes"/>
      <point x="61" y="1400"/>
      <point x="21" y="1376"/>
      <point x="21" y="1330" type="curve" smooth="yes"/>
      <point x="21" y="1294"/>
      <point x="27" y="1258"/>
      <point x="72" y="1242" type="curve" smooth="yes"/>
      <point x="126" y="1224"/>
      <point x="130" y="1198"/>
      <point x="171" y="1122" type="curve" smooth="yes"/>
      <point x="515" y="410" type="line"/>
    </contour>
  </outline>
</glyph>
<glyph name="backslash" format="2">
  <advance width="865"/>
  <unicode hex="005C"/>
  <outline>
    <contour>
      <point x="25" y="1364" type="curve" smooth="yes"/>
      <point x="4" y="1440"/>
      <point x="-8" y="1512"/>
      <point x="105" y="1534" type="curve" smooth="yes"/>
      <point x="187" y="1552"/>
      <point x="286" y="1494"/>
      <point x="317" y="1424" type="curve" smooth="yes"/>
      <point x="369" y="1294"/>
      <point x="222" y="1120"/>
      <point x="482" y="690" type="curve" smooth="yes"/>
      <point x="770" y="222"/>
      <point x="760" y="126"/>
      <point x="840" y="-36" type="curve" smooth="yes"/>
      <point x="872" y="-114"/>
      <point x="838" y="-174"/>
      <point x="737" y="-190" type="curve" smooth="yes"/>
      <point x="667" y="-204"/>
      <point x="578" y="-172"/>
      <point x="538" y="-84" type="curve" smooth="yes"/>
      <point x="476" y="68"/>
      <point x="643" y="168"/>
      <point x="383" y="654" type="curve" smooth="yes"/>
      <point x="142" y="1098"/>
      <point x="89" y="1218"/>
    </contour>
  </outline>
</glyph>
<glyph name="bracketright" format="2">
  <advance width="902"/>
  <unicode hex="005D"/>
  <outline>
    <contour>
      <point x="332" y="-118" type="line" smooth="yes"/>
      <point x="332" y="-178"/>
      <point x="264" y="-226"/>
      <point x="181" y="-226" type="curve" smooth="yes"/>
      <point x="140" y="-226" type="line" smooth="yes"/>
      <point x="47" y="-226"/>
      <point x="10" y="-244"/>
      <point x="10" y="-286" type="curve" smooth="yes"/>
      <point x="10" y="-320"/>
      <point x="47" y="-352"/>
      <point x="136" y="-352" type="curve" smooth="yes"/>
      <point x="573" y="-352" type="line" smooth="yes"/>
      <point x="665" y="-352"/>
      <point x="737" y="-290"/>
      <point x="737" y="-214" type="curve" smooth="yes"/>
      <point x="737" y="1376" type="line" smooth="yes"/>
      <point x="737" y="1452"/>
      <point x="665" y="1514"/>
      <point x="573" y="1514" type="curve" smooth="yes"/>
      <point x="136" y="1514" type="line" smooth="yes"/>
      <point x="47" y="1514"/>
      <point x="10" y="1480"/>
      <point x="10" y="1448" type="curve" smooth="yes"/>
      <point x="10" y="1406"/>
      <point x="47" y="1388"/>
      <point x="140" y="1388" type="curve" smooth="yes"/>
      <point x="181" y="1388" type="line" smooth="yes"/>
      <point x="264" y="1388"/>
      <point x="332" y="1340"/>
      <point x="332" y="1280" type="curve" smooth="yes"/>
    </contour>
  </outline>
</glyph>
<glyph name="underscore" format="2">
  <advance width="1273"/>
  <unicode hex="005F"/>
  <outline>
    <contour>
      <point x="103" y="91" type="curve" smooth="yes"/>
      <point x="103" y="36"/>
      <point x="149" y="0"/>
      <point x="235" y="0" type="curve" smooth="yes"/>
      <point x="1071" y="0" type="line" smooth="yes"/>
      <point x="1154" y="0"/>
      <point x="1205" y="36"/>
      <point x="1205" y="91" type="curve" smooth="yes"/>
      <point x="1205" y="147"/>
      <point x="1148" y="186"/>
      <point x="1071" y="186" type="curve" smooth="yes"/>
      <point x="237" y="186" type="line" smooth="yes"/>
      <point x="158" y="186"/>
      <point x="103" y="147"/>
    </contour>
  </outline>
</glyph>
<glyph name="a" format="2">
  <advance width="1183"/>
  <unicode hex="0061"/>
  <anchor x="638" y="1067" name="center"/>
  <outline>
    <contour>
      <point x="61" y="732" type="curve" smooth="yes"/>
      <point x="61" y="620"/>
      <point x="147" y="569"/>
      <point x="272" y="569" type="curve" smooth="yes"/>
      <point x="412" y="569"/>
      <point x="511" y="644"/>
      <point x="511" y="732" type="curve" smooth="yes"/>
      <point x="511" y="773" type="line" smooth="yes"/>
      <point x="511" y="834"/>
      <point x="537" y="869"/>
      <point x="571" y="869" type="curve" smooth="yes"/>
      <point x="588" y="869"/>
      <point x="636" y="801"/>
      <point x="636" y="683" type="curve" smooth="yes"/>
      <point x="636" y="184" type="line" smooth="yes"/>
      <point x="636" y="37"/>
      <point x="768" y="-31"/>
      <point x="918" y="-31" type="curve" smooth="yes"/>
      <point x="1109" y="-31"/>
      <point x="1226" y="47"/>
      <point x="1226" y="114" type="curve" smooth="yes"/>
      <point x="1226" y="149"/>
      <point x="1196" y="175"/>
      <point x="1141" y="175" type="curve" smooth="yes"/>
      <point x="1117" y="175"/>
      <point x="1110" y="169"/>
      <point x="1103" y="169" type="curve" smooth="yes"/>
      <point x="1066" y="169"/>
      <point x="1052" y="200"/>
      <point x="1052" y="239" type="curve" smooth="yes"/>
      <point x="1052" y="698" type="line" smooth="yes"/>
      <point x="1052" y="899"/>
      <point x="899" y="998"/>
      <point x="680" y="998" type="curve" smooth="yes"/>
      <point x="286" y="998"/>
      <point x="61" y="848"/>
    </contour>
    <contour>
      <point x="718" y="367" type="curve"/>
      <point x="760" y="469" type="line"/>
      <point x="707" y="494"/>
      <point x="685" y="506"/>
      <point x="610" y="506" type="curve" smooth="yes"/>
      <point x="207" y="506"/>
      <point x="41" y="384"/>
      <point x="41" y="218" type="curve" smooth="yes"/>
      <point x="41" y="69"/>
      <point x="173" y="-31"/>
      <point x="351" y="-31" type="curve" smooth="yes"/>
      <point x="527" y="-31"/>
      <point x="683" y="39"/>
      <point x="779" y="159" type="curve"/>
      <point x="752" y="253" type="line"/>
      <point x="729" y="190"/>
      <point x="652" y="167"/>
      <point x="605" y="167" type="curve" smooth="yes"/>
      <point x="541" y="167"/>
      <point x="490" y="212"/>
      <point x="490" y="286" type="curve" smooth="yes"/>
      <point x="490" y="347"/>
      <point x="526" y="400"/>
      <point x="560" y="400" type="curve" smooth="yes"/>
      <point x="620" y="400"/>
      <point x="670" y="388"/>
    </contour>
  </outline>
</glyph>
<glyph name="b" format="2">
  <advance width="1326"/>
  <unicode hex="0062"/>
  <outline>
    <contour>
      <point x="67" y="1238" type="curve" smooth="yes"/>
      <point x="57" y="1238" type="line" smooth="yes"/>
      <point x="82" y="1238"/>
      <point x="105" y="1206"/>
      <point x="105" y="1146" type="curve" smooth="yes"/>
      <point x="105" y="39" type="line" smooth="yes"/>
      <point x="105" y="-2"/>
      <point x="137" y="-24"/>
      <point x="181" y="-24" type="curve" smooth="yes"/>
      <point x="238" y="-24"/>
      <point x="281" y="-18"/>
      <point x="365" y="4" type="curve" smooth="yes"/>
      <point x="523" y="53" type="line" smooth="yes"/>
      <point x="523" y="1391" type="line" smooth="yes"/>
      <point x="523" y="1440"/>
      <point x="485" y="1479"/>
      <point x="430" y="1479" type="curve" smooth="yes"/>
      <point x="377" y="1479"/>
      <point x="349" y="1461"/>
      <point x="282" y="1438" type="curve" smooth="yes"/>
      <point x="59" y="1367" type="line" smooth="yes"/>
      <point x="3" y="1346"/>
      <point x="-25" y="1318"/>
      <point x="-25" y="1287" type="curve" smooth="yes"/>
      <point x="-25" y="1257"/>
      <point x="9" y="1238"/>
    </contour>
    <contour>
      <point x="376" y="683" type="line"/>
      <point x="430" y="755"/>
      <point x="538" y="787"/>
      <point x="655" y="787" type="curve" smooth="yes"/>
      <point x="813" y="787"/>
      <point x="868" y="632"/>
      <point x="868" y="453" type="curve" smooth="yes"/>
      <point x="868" y="279"/>
      <point x="788" y="141"/>
      <point x="618" y="141" type="curve" smooth="yes"/>
      <point x="537" y="141"/>
      <point x="440" y="175"/>
      <point x="392" y="263" type="curve"/>
      <point x="316" y="161" type="line"/>
      <point x="409" y="33"/>
      <point x="581" y="-29"/>
      <point x="737" y="-29" type="curve" smooth="yes"/>
      <point x="1100" y="-29"/>
      <point x="1305" y="204"/>
      <point x="1305" y="524" type="curve" smooth="yes"/>
      <point x="1305" y="794"/>
      <point x="1122" y="1000"/>
      <point x="808" y="1000" type="curve" smooth="yes"/>
      <point x="622" y="1000"/>
      <point x="442" y="902"/>
      <point x="333" y="769" type="curve"/>
    </contour>
  </outline>
</glyph>
<glyph name="c" format="2">
  <advance width="1072"/>
  <unicode hex="0063"/>
  <anchor x="573" y="1075" name="center"/>
  <outline>
    <contour>
      <point x="1061" y="706" type="curve" smooth="yes"/>
      <point x="1061" y="881"/>
      <point x="895" y="998"/>
      <point x="624" y="998" type="curve" smooth="yes"/>
      <point x="276" y="998"/>
      <point x="37" y="771"/>
      <point x="37" y="449" type="curve" smooth="yes"/>
      <point x="37" y="165"/>
      <point x="275" y="-31"/>
      <point x="587" y="-31" type="curve" smooth="yes"/>
      <point x="827" y="-31"/>
      <point x="1031" y="104"/>
      <point x="1031" y="265" type="curve" smooth="yes"/>
      <point x="1031" y="308"/>
      <point x="997" y="339"/>
      <point x="953" y="339" type="curve" smooth="yes"/>
      <point x="919" y="339"/>
      <point x="891" y="327"/>
      <point x="835" y="288" type="curve" smooth="yes"/>
      <point x="808" y="249"/>
      <point x="762" y="224"/>
      <point x="692" y="224" type="curve" smooth="yes"/>
      <point x="550" y="224"/>
      <point x="437" y="359"/>
      <point x="437" y="549" type="curve" smooth="yes"/>
      <point x="437" y="710"/>
      <point x="471" y="838"/>
      <point x="556" y="838" type="curve" smooth="yes"/>
      <point x="610" y="838"/>
      <point x="634" y="800"/>
      <point x="634" y="743" type="curve" smooth="yes"/>
      <point x="634" y="710" type="line" smooth="yes"/>
      <point x="634" y="616"/>
      <point x="721" y="545"/>
      <point x="855" y="545" type="curve" smooth="yes"/>
      <point x="980" y="545"/>
      <point x="1061" y="614"/>
    </contour>
  </outline>
</glyph>
<glyph name="d" format="2">
  <advance width="1324"/>
  <unicode hex="0064"/>
  <outline>
    <contour>
      <point x="1203" y="1414" type="line" smooth="yes"/>
      <point x="1203" y="1459"/>
      <point x="1182" y="1477"/>
      <point x="1152" y="1477" type="curve" smooth="yes"/>
      <point x="1113" y="1477"/>
      <point x="1083" y="1471"/>
      <point x="1034" y="1452" type="curve" smooth="yes"/>
      <point x="753" y="1359" type="line" smooth="yes"/>
      <point x="697" y="1340"/>
      <point x="666" y="1320"/>
      <point x="666" y="1283" type="curve" smooth="yes"/>
      <point x="666" y="1251"/>
      <point x="705" y="1232"/>
      <point x="760" y="1232" type="curve" smooth="yes"/>
      <point x="753" y="1232" type="line" smooth="yes"/>
      <point x="779" y="1232"/>
      <point x="794" y="1212"/>
      <point x="794" y="1161" type="curve" smooth="yes"/>
      <point x="794" y="159" type="line" smooth="yes"/>
      <point x="794" y="41"/>
      <point x="862" y="0"/>
      <point x="1019" y="0" type="curve" smooth="yes"/>
      <point x="1231" y="0" type="line" smooth="yes"/>
      <point x="1308" y="0"/>
      <point x="1330" y="22"/>
      <point x="1330" y="61" type="curve" smooth="yes"/>
      <point x="1330" y="96"/>
      <point x="1319" y="122"/>
      <point x="1263" y="135" type="curve" smooth="yes"/>
      <point x="1263" y="139" type="line" smooth="yes"/>
      <point x="1226" y="149"/>
      <point x="1203" y="177"/>
      <point x="1203" y="239" type="curve" smooth="yes"/>
    </contour>
    <contour>
      <point x="899" y="304" type="line"/>
      <point x="828" y="218"/>
      <point x="791" y="184"/>
      <point x="673" y="184" type="curve" smooth="yes"/>
      <point x="565" y="184"/>
      <point x="486" y="312"/>
      <point x="486" y="518" type="curve" smooth="yes"/>
      <point x="486" y="716"/>
      <point x="592" y="840"/>
      <point x="751" y="840" type="curve" smooth="yes"/>
      <point x="825" y="840"/>
      <point x="880" y="792"/>
      <point x="924" y="706" type="curve"/>
      <point x="1010" y="830" type="line"/>
      <point x="926" y="951"/>
      <point x="788" y="1000"/>
      <point x="612" y="1000" type="curve" smooth="yes"/>
      <point x="293" y="1000"/>
      <point x="44" y="775"/>
      <point x="44" y="447" type="curve" smooth="yes"/>
      <point x="44" y="167"/>
      <point x="259" y="-29"/>
      <point x="525" y="-29" type="curve" smooth="yes"/>
      <point x="710" y="-29"/>
      <point x="824" y="51"/>
      <point x="977" y="208" type="curve"/>
    </contour>
  </outline>
</glyph>
<glyph name="h" format="2">
  <advance width="1348"/>
  <unicode hex="0068"/>
  <outline>
    <contour>
      <point x="485" y="657" type="line" smooth="yes"/>
      <point x="381" y="749" type="line"/>
      <point x="445" y="816" type="line" smooth="yes"/>
      <point x="564" y="932"/>
      <point x="724" y="1000"/>
      <point x="916" y="1000" type="curve" smooth="yes"/>
      <point x="1058" y="1000"/>
      <point x="1181" y="906"/>
      <point x="1198" y="720" type="curve" smooth="yes"/>
      <point x="1233" y="228" type="line" smooth="yes"/>
      <point x="1241" y="173"/>
      <point x="1251" y="145"/>
      <point x="1278" y="137" type="curve" smooth="yes"/>
      <point x="1264" y="133" type="line" smooth="yes"/>
      <point x="1304" y="124"/>
      <point x="1336" y="104"/>
      <point x="1336" y="65" type="curve" smooth="yes"/>
      <point x="1336" y="24"/>
      <point x="1298" y="0"/>
      <point x="1261" y="0" type="curve" smooth="yes"/>
      <point x="731" y="0" type="line" smooth="yes"/>
      <point x="696" y="0"/>
      <point x="667" y="22"/>
      <point x="667" y="69" type="curve" smooth="yes"/>
      <point x="667" y="106"/>
      <point x="703" y="129"/>
      <point x="753" y="137" type="curve" smooth="yes"/>
      <point x="729" y="141" type="line" smooth="yes"/>
      <point x="781" y="149"/>
      <point x="806" y="175"/>
      <point x="796" y="251" type="curve" smooth="yes"/>
      <point x="776" y="630" type="line" smooth="yes"/>
      <point x="771" y="738"/>
      <point x="719" y="785"/>
      <point x="653" y="785" type="curve" smooth="yes"/>
      <point x="610" y="785"/>
      <point x="574" y="765"/>
      <point x="530" y="708" type="curve" smooth="yes"/>
    </contour>
    <contour>
      <point x="527" y="1412" type="curve" smooth="yes"/>
      <point x="527" y="226" type="line" smooth="yes"/>
      <point x="527" y="182"/>
      <point x="527" y="155"/>
      <point x="543" y="145" type="curve" smooth="yes"/>
      <point x="581" y="133" type="line" smooth="yes"/>
      <point x="628" y="116"/>
      <point x="655" y="102"/>
      <point x="655" y="63" type="curve" smooth="yes"/>
      <point x="655" y="20"/>
      <point x="617" y="0"/>
      <point x="575" y="0" type="curve" smooth="yes"/>
      <point x="57" y="0" type="line" smooth="yes"/>
      <point x="3" y="0"/>
      <point x="-22" y="24"/>
      <point x="-22" y="65" type="curve" smooth="yes"/>
      <point x="-22" y="102"/>
      <point x="-1" y="116"/>
      <point x="45" y="131" type="curve" smooth="yes"/>
      <point x="47" y="139" type="line" smooth="yes"/>
      <point x="66" y="153"/>
      <point x="111" y="165"/>
      <point x="111" y="226" type="curve" smooth="yes"/>
      <point x="111" y="1163" type="line" smooth="yes"/>
      <point x="111" y="1214"/>
      <point x="76" y="1236"/>
      <point x="66" y="1236" type="curve" smooth="yes"/>
      <point x="81" y="1236" type="line" smooth="yes"/>
      <point x="18" y="1236"/>
      <point x="-21" y="1255"/>
      <point x="-21" y="1293" type="curve" smooth="yes"/>
      <point x="-21" y="1320"/>
      <point x="-6" y="1348"/>
      <point x="57" y="1367" type="curve" smooth="yes"/>
      <point x="306" y="1446" type="line" smooth="yes"/>
      <point x="376" y="1467"/>
      <point x="412" y="1479"/>
      <point x="458" y="1479" type="curve" smooth="yes"/>
      <point x="501" y="1479"/>
      <point x="527" y="1452"/>
    </contour>
  </outline>
</glyph>
<glyph name="i" format="2">
  <advance width="671"/>
  <unicode hex="0069"/>
  <outline>
    <contour>
      <point x="584" y="932" type="line" smooth="yes"/>
      <point x="584" y="973"/>
      <point x="556" y="1000"/>
      <point x="512" y="1000" type="curve" smooth="yes"/>
      <point x="469" y="1000"/>
      <point x="433" y="987"/>
      <point x="366" y="967" type="curve" smooth="yes"/>
      <point x="108" y="887" type="line" smooth="yes"/>
      <point x="47" y="871"/>
      <point x="33" y="838"/>
      <point x="33" y="812" type="curve" smooth="yes"/>
      <point x="33" y="771"/>
      <point x="62" y="753"/>
      <point x="113" y="753" type="curve" smooth="yes"/>
      <point x="106" y="753" type="line" smooth="yes"/>
      <point x="135" y="753"/>
      <point x="168" y="730"/>
      <point x="168" y="679" type="curve" smooth="yes"/>
      <point x="168" y="218" type="line" smooth="yes"/>
      <point x="168" y="177"/>
      <point x="143" y="157"/>
      <point x="133" y="145" type="curve" smooth="yes"/>
      <point x="88" y="124" type="line" smooth="yes"/>
      <point x="40" y="110"/>
      <point x="25" y="97"/>
      <point x="25" y="67" type="curve" smooth="yes"/>
      <point x="25" y="24"/>
      <point x="60" y="0"/>
      <point x="119" y="0" type="curve" smooth="yes"/>
      <point x="630" y="0" type="line" smooth="yes"/>
      <point x="670" y="0"/>
      <point x="714" y="20"/>
      <point x="714" y="63" type="curve" smooth="yes"/>
      <point x="714" y="94"/>
      <point x="691" y="102"/>
      <point x="652" y="118" type="curve" smooth="yes"/>
      <point x="605" y="141" type="line" smooth="yes"/>
      <point x="591" y="153"/>
      <point x="584" y="175"/>
      <point x="584" y="218" type="curve" smooth="yes"/>
    </contour>
    <contour>
      <point x="341" y="1083" type="curve" smooth="yes"/>
      <point x="475" y="1083"/>
      <point x="586" y="1169"/>
      <point x="586" y="1273" type="curve" smooth="yes"/>
      <point x="586" y="1377"/>
      <point x="475" y="1459"/>
      <point x="341" y="1459" type="curve" smooth="yes"/>
      <point x="208" y="1459"/>
      <point x="98" y="1377"/>
      <point x="98" y="1273" type="curve" smooth="yes"/>
      <point x="98" y="1169"/>
      <point x="208" y="1083"/>
    </contour>
  </outline>
</glyph>
<glyph name="k" format="2">
  <advance width="1371"/>
  <unicode hex="006B"/>
  <outline>
    <contour>
      <point x="884" y="698" type="line"/>
      <point x="1231" y="222" type="line" smooth="yes"/>
      <point x="1255" y="180"/>
      <point x="1290" y="159"/>
      <point x="1294" y="145" type="curve" smooth="yes"/>
      <point x="1327" y="129"/>
      <point x="1343" y="104"/>
      <point x="1343" y="67" type="curve" smooth="yes"/>
      <point x="1343" y="29"/>
      <point x="1296" y="0"/>
      <point x="1218" y="0" type="curve" smooth="yes"/>
      <point x="834" y="0" type="line" smooth="yes"/>
      <point x="799" y="0"/>
      <point x="775" y="22"/>
      <point x="775" y="61" type="curve" smooth="yes"/>
      <point x="775" y="96"/>
      <point x="797" y="108"/>
      <point x="815" y="129" type="curve" smooth="yes"/>
      <point x="821" y="145"/>
      <point x="829" y="163"/>
      <point x="829" y="184" type="curve" smooth="yes"/>
      <point x="829" y="202"/>
      <point x="821" y="216"/>
      <point x="814" y="233" type="curve" smooth="yes"/>
      <point x="647" y="526" type="line"/>
    </contour>
    <contour>
      <point x="470" y="449" type="line"/>
      <point x="814" y="712" type="line" smooth="yes"/>
      <point x="849" y="745"/>
      <point x="843" y="771"/>
      <point x="843" y="796" type="curve" smooth="yes"/>
      <point x="843" y="820"/>
      <point x="828" y="828"/>
      <point x="801" y="843" type="curve" smooth="yes"/>
      <point x="766" y="859"/>
      <point x="754" y="879"/>
      <point x="754" y="914" type="curve" smooth="yes"/>
      <point x="754" y="953"/>
      <point x="784" y="969"/>
      <point x="833" y="969" type="curve" smooth="yes"/>
      <point x="1307" y="969" type="line" smooth="yes"/>
      <point x="1340" y="969"/>
      <point x="1369" y="945"/>
      <point x="1369" y="910" type="curve" smooth="yes"/>
      <point x="1369" y="871"/>
      <point x="1344" y="851"/>
      <point x="1257" y="832" type="curve" smooth="yes"/>
      <point x="1200" y="810"/>
      <point x="1146" y="769"/>
      <point x="1041" y="694" type="curve" smooth="yes"/>
      <point x="609" y="345" type="line"/>
    </contour>
    <contour>
      <point x="595" y="1412" type="curve" smooth="yes"/>
      <point x="595" y="226" type="line" smooth="yes"/>
      <point x="595" y="182"/>
      <point x="595" y="155"/>
      <point x="611" y="145" type="curve" smooth="yes"/>
      <point x="649" y="133" type="line" smooth="yes"/>
      <point x="696" y="116"/>
      <point x="723" y="102"/>
      <point x="723" y="63" type="curve" smooth="yes"/>
      <point x="723" y="20"/>
      <point x="685" y="0"/>
      <point x="643" y="0" type="curve" smooth="yes"/>
      <point x="125" y="0" type="line" smooth="yes"/>
      <point x="71" y="0"/>
      <point x="46" y="24"/>
      <point x="46" y="65" type="curve" smooth="yes"/>
      <point x="46" y="102"/>
      <point x="67" y="116"/>
      <point x="113" y="131" type="curve" smooth="yes"/>
      <point x="115" y="139" type="line" smooth="yes"/>
      <point x="134" y="153"/>
      <point x="179" y="165"/>
      <point x="179" y="226" type="curve" smooth="yes"/>
      <point x="179" y="1163" type="line" smooth="yes"/>
      <point x="179" y="1214"/>
      <point x="144" y="1236"/>
      <point x="134" y="1236" type="curve" smooth="yes"/>
      <point x="149" y="1236" type="line" smooth="yes"/>
      <point x="85" y="1236"/>
      <point x="47" y="1255"/>
      <point x="47" y="1293" type="curve" smooth="yes"/>
      <point x="47" y="1320"/>
      <point x="62" y="1348"/>
      <point x="125" y="1367" type="curve" smooth="yes"/>
      <point x="374" y="1446" type="line" smooth="yes"/>
      <point x="444" y="1467"/>
      <point x="480" y="1479"/>
      <point x="526" y="1479" type="curve" smooth="yes"/>
      <point x="569" y="1479"/>
      <point x="595" y="1452"/>
    </contour>
  </outline>
</glyph>
<glyph name="m" format="2">
  <advance width="1956"/>
  <unicode hex="006D"/>
  <outline>
    <contour>
      <point x="77" y="139" type="curve" smooth="yes"/>
      <point x="87" y="133" type="line" smooth="yes"/>
      <point x="40" y="118"/>
      <point x="24" y="100"/>
      <point x="24" y="67" type="curve" smooth="yes"/>
      <point x="24" y="24"/>
      <point x="60" y="0"/>
      <point x="121" y="0" type="curve" smooth="yes"/>
      <point x="587" y="0" type="line" smooth="yes"/>
      <point x="656" y="0"/>
      <point x="692" y="20"/>
      <point x="692" y="65" type="curve" smooth="yes"/>
      <point x="692" y="104"/>
      <point x="670" y="118"/>
      <point x="630" y="133" type="curve" smooth="yes"/>
      <point x="595" y="145" type="line" smooth="yes"/>
      <point x="573" y="155"/>
      <point x="571" y="184"/>
      <point x="571" y="241" type="curve" smooth="yes"/>
      <point x="571" y="930" type="line" smooth="yes"/>
      <point x="571" y="971"/>
      <point x="545" y="1000"/>
      <point x="502" y="1000" type="curve" smooth="yes"/>
      <point x="453" y="1000"/>
      <point x="417" y="985"/>
      <point x="349" y="965" type="curve" smooth="yes"/>
      <point x="90" y="885" type="line" smooth="yes"/>
      <point x="24" y="865"/>
      <point x="11" y="836"/>
      <point x="11" y="810" type="curve" smooth="yes"/>
      <point x="11" y="767"/>
      <point x="43" y="749"/>
      <point x="102" y="749" type="curve" smooth="yes"/>
      <point x="81" y="749" type="line" smooth="yes"/>
      <point x="110" y="749"/>
      <point x="143" y="726"/>
      <point x="143" y="673" type="curve" smooth="yes"/>
      <point x="143" y="228" type="line" smooth="yes"/>
      <point x="143" y="186"/>
      <point x="122" y="155"/>
    </contour>
    <contour>
      <point x="1198" y="720" type="line" smooth="yes"/>
      <point x="1198" y="906"/>
      <point x="1059" y="1000"/>
      <point x="936" y="1000" type="curve" smooth="yes"/>
      <point x="759" y="1000"/>
      <point x="624" y="932"/>
      <point x="500" y="816" type="curve"/>
      <point x="402" y="749" type="line"/>
      <point x="509" y="659" type="line"/>
      <point x="579" y="710" type="line" smooth="yes"/>
      <point x="613" y="767"/>
      <point x="641" y="781"/>
      <point x="686" y="781" type="curve" smooth="yes"/>
      <point x="737" y="781"/>
      <point x="781" y="736"/>
      <point x="781" y="622" type="curve" smooth="yes"/>
      <point x="781" y="251" type="line" smooth="yes"/>
      <point x="781" y="175"/>
      <point x="771" y="149"/>
      <point x="723" y="141" type="curve" smooth="yes"/>
      <point x="714" y="137" type="line" smooth="yes"/>
      <point x="677" y="129"/>
      <point x="646" y="106"/>
      <point x="646" y="69" type="curve" smooth="yes"/>
      <point x="646" y="22"/>
      <point x="677" y="0"/>
      <point x="717" y="0" type="curve" smooth="yes"/>
      <point x="1209" y="0" type="line" smooth="yes"/>
      <point x="1248" y="0"/>
      <point x="1282" y="24"/>
      <point x="1282" y="65" type="curve" smooth="yes"/>
      <point x="1282" y="104"/>
      <point x="1259" y="124"/>
      <point x="1235" y="133" type="curve" smooth="yes"/>
      <point x="1241" y="137" type="line" smooth="yes"/>
      <point x="1223" y="143"/>
      <point x="1198" y="173"/>
      <point x="1198" y="228" type="curve" smooth="yes"/>
    </contour>
    <contour>
      <point x="1093" y="659" type="line" smooth="yes"/>
      <point x="1140" y="710" type="line" smooth="yes"/>
      <point x="1172" y="767"/>
      <point x="1223" y="781"/>
      <point x="1273" y="781" type="curve" smooth="yes"/>
      <point x="1329" y="781"/>
      <point x="1381" y="736"/>
      <point x="1387" y="622" type="curve" smooth="yes"/>
      <point x="1405" y="251" type="line" smooth="yes"/>
      <point x="1413" y="175"/>
      <point x="1396" y="149"/>
      <point x="1362" y="141" type="curve" smooth="yes"/>
      <point x="1348" y="137" type="line" smooth="yes"/>
      <point x="1304" y="129"/>
      <point x="1275" y="106"/>
      <point x="1275" y="69" type="curve" smooth="yes"/>
      <point x="1275" y="22"/>
      <point x="1304" y="0"/>
      <point x="1339" y="0" type="curve" smooth="yes"/>
      <point x="1878" y="0" type="line" smooth="yes"/>
      <point x="1908" y="0"/>
      <point x="1944" y="24"/>
      <point x="1944" y="65" type="curve" smooth="yes"/>
      <point x="1944" y="104"/>
      <point x="1921" y="124"/>
      <point x="1892" y="133" type="curve" smooth="yes"/>
      <point x="1874" y="137" type="line" smooth="yes"/>
      <point x="1856" y="145"/>
      <point x="1847" y="173"/>
      <point x="1841" y="228" type="curve" smooth="yes"/>
      <point x="1806" y="720" type="line" smooth="yes"/>
      <point x="1789" y="906"/>
      <point x="1666" y="1000"/>
      <point x="1524" y="1000" type="curve" smooth="yes"/>
      <point x="1332" y="1000"/>
      <point x="1176" y="932"/>
      <point x="1053" y="816" type="curve" smooth="yes"/>
      <point x="986" y="749" type="line"/>
    </contour>
  </outline>
</glyph>
<glyph name="n" format="2">
  <advance width="1387"/>
  <unicode hex="006E"/>
  <outline>
    <contour>
      <point x="571" y="930" type="line" smooth="yes"/>
      <point x="571" y="971"/>
      <point x="545" y="1000"/>
      <point x="502" y="1000" type="curve" smooth="yes"/>
      <point x="453" y="1000"/>
      <point x="417" y="985"/>
      <point x="349" y="965" type="curve" smooth="yes"/>
      <point x="90" y="885" type="line" smooth="yes"/>
      <point x="26" y="865"/>
      <point x="11" y="836"/>
      <point x="11" y="810" type="curve" smooth="yes"/>
      <point x="11" y="767"/>
      <point x="43" y="749"/>
      <point x="102" y="749" type="curve" smooth="yes"/>
      <point x="75" y="749" type="line" smooth="yes"/>
      <point x="97" y="749"/>
      <point x="143" y="726"/>
      <point x="143" y="673" type="curve" smooth="yes"/>
      <point x="143" y="228" type="line" smooth="yes"/>
      <point x="143" y="186"/>
      <point x="114" y="155"/>
      <point x="68" y="139" type="curve" smooth="yes"/>
      <point x="87" y="133" type="line" smooth="yes"/>
      <point x="40" y="118"/>
      <point x="24" y="100"/>
      <point x="24" y="67" type="curve" smooth="yes"/>
      <point x="24" y="24"/>
      <point x="60" y="0"/>
      <point x="121" y="0" type="curve" smooth="yes"/>
      <point x="587" y="0" type="line" smooth="yes"/>
      <point x="656" y="0"/>
      <point x="692" y="20"/>
      <point x="692" y="65" type="curve" smooth="yes"/>
      <point x="692" y="104"/>
      <point x="672" y="118"/>
      <point x="630" y="133" type="curve" smooth="yes"/>
      <point x="607" y="145" type="line" smooth="yes"/>
      <point x="580" y="155"/>
      <point x="571" y="184"/>
      <point x="571" y="241" type="curve" smooth="yes"/>
    </contour>
    <contour>
      <point x="524" y="659" type="line" smooth="yes"/>
      <point x="570" y="710" type="line" smooth="yes"/>
      <point x="613" y="767"/>
      <point x="661" y="781"/>
      <point x="708" y="781" type="curve" smooth="yes"/>
      <point x="762" y="781"/>
      <point x="811" y="736"/>
      <point x="819" y="622" type="curve" smooth="yes"/>
      <point x="835" y="251" type="line" smooth="yes"/>
      <point x="846" y="175"/>
      <point x="820" y="149"/>
      <point x="768" y="141" type="curve" smooth="yes"/>
      <point x="792" y="137" type="line" smooth="yes"/>
      <point x="743" y="129"/>
      <point x="707" y="106"/>
      <point x="707" y="69" type="curve" smooth="yes"/>
      <point x="707" y="22"/>
      <point x="735" y="0"/>
      <point x="770" y="0" type="curve" smooth="yes"/>
      <point x="1300" y="0" type="line" smooth="yes"/>
      <point x="1337" y="0"/>
      <point x="1375" y="24"/>
      <point x="1375" y="65" type="curve" smooth="yes"/>
      <point x="1375" y="104"/>
      <point x="1343" y="124"/>
      <point x="1303" y="133" type="curve" smooth="yes"/>
      <point x="1317" y="137" type="line" smooth="yes"/>
      <point x="1291" y="145"/>
      <point x="1280" y="173"/>
      <point x="1272" y="228" type="curve" smooth="yes"/>
      <point x="1237" y="720" type="line" smooth="yes"/>
      <point x="1221" y="906"/>
      <point x="1097" y="1000"/>
      <point x="955" y="1000" type="curve" smooth="yes"/>
      <point x="763" y="1000"/>
      <point x="604" y="932"/>
      <point x="484" y="816" type="curve" smooth="yes"/>
      <point x="420" y="749" type="line"/>
    </contour>
  </outline>
</glyph>
<glyph name="p" format="2">
  <advance width="1339"/>
  <unicode hex="0070"/>
  <outline>
    <contour>
      <point x="590" y="902" type="line" smooth="yes"/>
      <point x="590" y="965"/>
      <point x="556" y="1000"/>
      <point x="504" y="1000" type="curve" smooth="yes"/>
      <point x="453" y="1000"/>
      <point x="403" y="979"/>
      <point x="333" y="959" type="curve" smooth="yes"/>
      <point x="82" y="881" type="line" smooth="yes"/>
      <point x="40" y="867"/>
      <point x="20" y="838"/>
      <point x="20" y="812" type="curve" smooth="yes"/>
      <point x="20" y="775"/>
      <point x="52" y="749"/>
      <point x="111" y="749" type="curve" smooth="yes"/>
      <point x="105" y="749" type="line" smooth="yes"/>
      <point x="147" y="749"/>
      <point x="174" y="722"/>
      <point x="174" y="657" type="curve" smooth="yes"/>
      <point x="174" y="-263" type="line" smooth="yes"/>
      <point x="174" y="-304"/>
      <point x="153" y="-345"/>
      <point x="121" y="-357" type="curve" smooth="yes"/>
      <point x="114" y="-365" type="line" smooth="yes"/>
      <point x="64" y="-379"/>
      <point x="24" y="-390"/>
      <point x="22" y="-430" type="curve" smooth="yes"/>
      <point x="20" y="-473"/>
      <point x="49" y="-500"/>
      <point x="125" y="-500" type="curve" smooth="yes"/>
      <point x="681" y="-500" type="line" smooth="yes"/>
      <point x="744" y="-500"/>
      <point x="771" y="-471"/>
      <point x="771" y="-432" type="curve" smooth="yes"/>
      <point x="771" y="-396"/>
      <point x="737" y="-386"/>
      <point x="683" y="-371" type="curve" smooth="yes"/>
      <point x="677" y="-363" type="line" smooth="yes"/>
      <point x="625" y="-345"/>
      <point x="590" y="-322"/>
      <point x="590" y="-259" type="curve" smooth="yes"/>
    </contour>
    <contour>
      <point x="388" y="683" type="line"/>
      <point x="442" y="755"/>
      <point x="550" y="787"/>
      <point x="668" y="787" type="curve" smooth="yes"/>
      <point x="825" y="787"/>
      <point x="882" y="632"/>
      <point x="882" y="453" type="curve" smooth="yes"/>
      <point x="882" y="279"/>
      <point x="800" y="141"/>
      <point x="630" y="141" type="curve" smooth="yes"/>
      <point x="550" y="141"/>
      <point x="453" y="175"/>
      <point x="405" y="263" type="curve"/>
      <point x="329" y="161" type="line"/>
      <point x="421" y="33"/>
      <point x="593" y="-29"/>
      <point x="750" y="-29" type="curve" smooth="yes"/>
      <point x="1112" y="-29"/>
      <point x="1317" y="204"/>
      <point x="1317" y="524" type="curve" smooth="yes"/>
      <point x="1317" y="794"/>
      <point x="1135" y="1000"/>
      <point x="820" y="1000" type="curve" smooth="yes"/>
      <point x="634" y="1000"/>
      <point x="454" y="902"/>
      <point x="345" y="769" type="curve"/>
    </contour>
  </outline>
</glyph>
<glyph name="q" format="2">
  <advance width="1232"/>
  <unicode hex="0071"/>
  <outline>
    <contour>
      <point x="1170" y="-259" type="curve" smooth="yes"/>
      <point x="1170" y="922" type="line" smooth="yes"/>
      <point x="1170" y="974"/>
      <point x="1136" y="1002"/>
      <point x="1083" y="1002" type="curve" smooth="yes"/>
      <point x="1040" y="1002"/>
      <point x="996" y="989"/>
      <point x="927" y="965" type="curve" smooth="yes"/>
      <point x="736" y="887" type="line" smooth="yes"/>
      <point x="736" y="-255" type="line" smooth="yes"/>
      <point x="736" y="-320"/>
      <point x="701" y="-349"/>
      <point x="646" y="-361" type="curve" smooth="yes"/>
      <point x="649" y="-367" type="line" smooth="yes"/>
      <point x="610" y="-375"/>
      <point x="572" y="-394"/>
      <point x="572" y="-432" type="curve" smooth="yes"/>
      <point x="572" y="-471"/>
      <point x="608" y="-500"/>
      <point x="652" y="-500" type="curve" smooth="yes"/>
      <point x="1183" y="-500" type="line" smooth="yes"/>
      <point x="1246" y="-500"/>
      <point x="1269" y="-473"/>
      <point x="1267" y="-430" type="curve" smooth="yes"/>
      <point x="1265" y="-388"/>
      <point x="1234" y="-378"/>
      <point x="1205" y="-363" type="curve" smooth="yes"/>
      <point x="1196" y="-355" type="line" smooth="yes"/>
      <point x="1180" y="-343"/>
      <point x="1170" y="-300"/>
    </contour>
    <contour>
      <point x="876" y="304" type="line"/>
      <point x="804" y="218"/>
      <point x="767" y="184"/>
      <point x="649" y="184" type="curve" smooth="yes"/>
      <point x="542" y="184"/>
      <point x="462" y="312"/>
      <point x="462" y="518" type="curve" smooth="yes"/>
      <point x="462" y="716"/>
      <point x="569" y="840"/>
      <point x="727" y="840" type="curve" smooth="yes"/>
      <point x="801" y="840"/>
      <point x="856" y="792"/>
      <point x="900" y="706" type="curve"/>
      <point x="988" y="830" type="line"/>
      <point x="902" y="951"/>
      <point x="764" y="1000"/>
      <point x="588" y="1000" type="curve" smooth="yes"/>
      <point x="269" y="1000"/>
      <point x="21" y="775"/>
      <point x="21" y="447" type="curve" smooth="yes"/>
      <point x="21" y="167"/>
      <point x="236" y="-29"/>
      <point x="502" y="-29" type="curve" smooth="yes"/>
      <point x="687" y="-29"/>
      <point x="800" y="51"/>
      <point x="954" y="208" type="curve"/>
    </contour>
  </outline>
</glyph>
<glyph name="r" format="2">
  <advance width="1045"/>
  <unicode hex="0072"/>
  <outline>
    <contour>
      <point x="558" y="537" type="line"/>
      <point x="559" y="814"/>
      <point x="649" y="1002"/>
      <point x="839" y="1002" type="curve" smooth="yes"/>
      <point x="966" y="1002"/>
      <point x="1035" y="911"/>
      <point x="1035" y="775" type="curve" smooth="yes"/>
      <point x="1035" y="657"/>
      <point x="942" y="596"/>
      <point x="815" y="596" type="curve" smooth="yes"/>
      <point x="731" y="596"/>
      <point x="688" y="628"/>
      <point x="649" y="677" type="curve" smooth="yes"/>
      <point x="612" y="723"/>
      <point x="611" y="734"/>
      <point x="583" y="734" type="curve" smooth="yes"/>
      <point x="570" y="734"/>
      <point x="584" y="671"/>
      <point x="584" y="524" type="curve"/>
    </contour>
    <contour>
      <point x="584" y="932" type="curve" smooth="yes"/>
      <point x="584" y="282" type="line" smooth="yes"/>
      <point x="584" y="235"/>
      <point x="602" y="188"/>
      <point x="661" y="169" type="curve" smooth="yes"/>
      <point x="773" y="143" type="line" smooth="yes"/>
      <point x="849" y="126"/>
      <point x="879" y="106"/>
      <point x="879" y="67" type="curve" smooth="yes"/>
      <point x="879" y="22"/>
      <point x="839" y="0"/>
      <point x="799" y="0" type="curve" smooth="yes"/>
      <point x="104" y="0" type="line" smooth="yes"/>
      <point x="48" y="0"/>
      <point x="18" y="24"/>
      <point x="18" y="67" type="curve" smooth="yes"/>
      <point x="18" y="96"/>
      <point x="30" y="110"/>
      <point x="62" y="124" type="curve" smooth="yes"/>
      <point x="104" y="141" type="line" smooth="yes"/>
      <point x="141" y="155"/>
      <point x="168" y="192"/>
      <point x="168" y="241" type="curve" smooth="yes"/>
      <point x="168" y="679" type="line" smooth="yes"/>
      <point x="168" y="730"/>
      <point x="144" y="753"/>
      <point x="123" y="753" type="curve" smooth="yes"/>
      <point x="123" y="753" type="line" smooth="yes"/>
      <point x="67" y="753"/>
      <point x="33" y="771"/>
      <point x="33" y="812" type="curve" smooth="yes"/>
      <point x="33" y="838"/>
      <point x="47" y="871"/>
      <point x="106" y="887" type="curve" smooth="yes"/>
      <point x="366" y="967" type="line" smooth="yes"/>
      <point x="433" y="987"/>
      <point x="471" y="1000"/>
      <point x="515" y="1000" type="curve" smooth="yes"/>
      <point x="559" y="1000"/>
      <point x="584" y="973"/>
    </contour>
  </outline>
</glyph>
<glyph name="v" format="2">
  <advance width="1295"/>
  <unicode hex="0076"/>
  <outline>
    <contour>
      <point x="550" y="-20" type="curve" smooth="yes"/>
      <point x="746" y="-20" type="line" smooth="yes"/>
      <point x="788" y="-20"/>
      <point x="848" y="0"/>
      <point x="874" y="57" type="curve" smooth="yes"/>
      <point x="1136" y="681" type="line" smooth="yes"/>
      <point x="1165" y="749"/>
      <point x="1168" y="789"/>
      <point x="1186" y="802" type="curve" smooth="yes"/>
      <point x="1245" y="828"/>
      <point x="1267" y="849"/>
      <point x="1267" y="894" type="curve" smooth="yes"/>
      <point x="1267" y="936"/>
      <point x="1237" y="969"/>
      <point x="1171" y="969" type="curve" smooth="yes"/>
      <point x="868" y="969" type="line" smooth="yes"/>
      <point x="812" y="969"/>
      <point x="778" y="945"/>
      <point x="778" y="908" type="curve" smooth="yes"/>
      <point x="778" y="873"/>
      <point x="812" y="857"/>
      <point x="866" y="834" type="curve" smooth="yes"/>
      <point x="899" y="810" type="line" smooth="yes"/>
      <point x="926" y="796"/>
      <point x="945" y="779"/>
      <point x="945" y="753" type="curve" smooth="yes"/>
      <point x="945" y="720"/>
      <point x="930" y="692"/>
      <point x="909" y="632" type="curve" smooth="yes"/>
      <point x="721" y="141" type="line" smooth="yes"/>
      <point x="833" y="131" type="line"/>
      <point x="610" y="712" type="line" smooth="yes"/>
      <point x="599" y="738"/>
      <point x="587" y="757"/>
      <point x="587" y="783" type="curve" smooth="yes"/>
      <point x="587" y="808"/>
      <point x="612" y="812"/>
      <point x="651" y="828" type="curve" smooth="yes"/>
      <point x="661" y="840" type="line" smooth="yes"/>
      <point x="713" y="859"/>
      <point x="751" y="877"/>
      <point x="751" y="912" type="curve" smooth="yes"/>
      <point x="751" y="945"/>
      <point x="723" y="969"/>
      <point x="659" y="969" type="curve" smooth="yes"/>
      <point x="119" y="969" type="line" smooth="yes"/>
      <point x="56" y="969"/>
      <point x="28" y="942"/>
      <point x="28" y="902" type="curve" smooth="yes"/>
      <point x="28" y="865"/>
      <point x="52" y="840"/>
      <point x="109" y="814" type="curve" smooth="yes"/>
      <point x="135" y="796"/>
      <point x="130" y="771"/>
      <point x="144" y="730" type="curve" smooth="yes"/>
      <point x="401" y="80" type="line" smooth="yes"/>
      <point x="436" y="10"/>
      <point x="476" y="-20"/>
    </contour>
  </outline>
</glyph>
<glyph name="w" format="2">
  <advance width="1866"/>
  <unicode hex="0077"/>
  <outline>
    <contour>
      <point x="526" y="-20" type="curve" smooth="yes"/>
      <point x="696" y="-20" type="line" smooth="yes"/>
      <point x="777" y="-20"/>
      <point x="791" y="-2"/>
      <point x="824" y="55" type="curve" smooth="yes"/>
      <point x="1105" y="641" type="line"/>
      <point x="940" y="761" type="line"/>
      <point x="654" y="141" type="line" smooth="yes"/>
      <point x="787" y="131" type="line"/>
      <point x="553" y="712" type="line" smooth="yes"/>
      <point x="543" y="741"/>
      <point x="528" y="759"/>
      <point x="528" y="783" type="curve" smooth="yes"/>
      <point x="528" y="808"/>
      <point x="551" y="820"/>
      <point x="590" y="830" type="curve" smooth="yes"/>
      <point x="638" y="843" type="line" smooth="yes"/>
      <point x="672" y="851"/>
      <point x="685" y="875"/>
      <point x="685" y="912" type="curve" smooth="yes"/>
      <point x="685" y="951"/>
      <point x="664" y="969"/>
      <point x="625" y="969" type="curve" smooth="yes"/>
      <point x="87" y="969" type="line" smooth="yes"/>
      <point x="36" y="969"/>
      <point x="19" y="940"/>
      <point x="19" y="900" type="curve" smooth="yes"/>
      <point x="19" y="867"/>
      <point x="35" y="840"/>
      <point x="76" y="814" type="curve" smooth="yes"/>
      <point x="97" y="800"/>
      <point x="117" y="781"/>
      <point x="133" y="747" type="curve" smooth="yes"/>
      <point x="396" y="71" type="line" smooth="yes"/>
      <point x="432" y="4"/>
      <point x="466" y="-20"/>
    </contour>
    <contour>
      <point x="1358" y="-20" type="line" smooth="yes"/>
      <point x="1421" y="-20"/>
      <point x="1442" y="-6"/>
      <point x="1465" y="47" type="curve" smooth="yes"/>
      <point x="1724" y="681" type="line" smooth="yes"/>
      <point x="1750" y="742"/>
      <point x="1762" y="772"/>
      <point x="1797" y="804" type="curve" smooth="yes"/>
      <point x="1835" y="834"/>
      <point x="1848" y="861"/>
      <point x="1848" y="902" type="curve" smooth="yes"/>
      <point x="1848" y="940"/>
      <point x="1815" y="969"/>
      <point x="1742" y="969" type="curve" smooth="yes"/>
      <point x="1434" y="969" type="line" smooth="yes"/>
      <point x="1381" y="969"/>
      <point x="1349" y="949"/>
      <point x="1349" y="908" type="curve" smooth="yes"/>
      <point x="1349" y="871"/>
      <point x="1387" y="857"/>
      <point x="1436" y="828" type="curve" smooth="yes"/>
      <point x="1452" y="798" type="line" smooth="yes"/>
      <point x="1476" y="773"/>
      <point x="1486" y="747"/>
      <point x="1486" y="714" type="curve" smooth="yes"/>
      <point x="1486" y="681"/>
      <point x="1468" y="639"/>
      <point x="1444" y="577" type="curve" smooth="yes"/>
      <point x="1296" y="141" type="line" smooth="yes"/>
      <point x="1473" y="131" type="line"/>
      <point x="1243" y="675" type="line" smooth="yes"/>
      <point x="1210" y="728"/>
      <point x="1209" y="743"/>
      <point x="1209" y="761" type="curve" smooth="yes"/>
      <point x="1209" y="792"/>
      <point x="1239" y="822"/>
      <point x="1270" y="834" type="curve" smooth="yes"/>
      <point x="1282" y="845" type="line" smooth="yes"/>
      <point x="1314" y="857"/>
      <point x="1328" y="877"/>
      <point x="1328" y="912" type="curve" smooth="yes"/>
      <point x="1328" y="951"/>
      <point x="1291" y="969"/>
      <point x="1229" y="969" type="curve" smooth="yes"/>
      <point x="774" y="969" type="line" smooth="yes"/>
      <point x="722" y="969"/>
      <point x="697" y="945"/>
      <point x="697" y="912" type="curve" smooth="yes"/>
      <point x="697" y="883"/>
      <point x="709" y="859"/>
      <point x="755" y="836" type="curve" smooth="yes"/>
      <point x="781" y="820"/>
      <point x="790" y="779"/>
      <point x="804" y="747" type="curve" smooth="yes"/>
      <point x="1109" y="63" type="line" smooth="yes"/>
      <point x="1146" y="0"/>
      <point x="1168" y="-20"/>
      <point x="1215" y="-20" type="curve" smooth="yes"/>
    </contour>
  </outline>
</glyph>
<glyph name="x" format="2">
  <advance width="1339"/>
  <unicode hex="0078"/>
  <outline>
    <contour>
      <point x="420" y="508" type="line"/>
      <point x="296" y="337" type="line" smooth="yes"/>
      <point x="245" y="273"/>
      <point x="197" y="225"/>
      <point x="146" y="202" type="curve" smooth="yes"/>
      <point x="54" y="175"/>
      <point x="22" y="139"/>
      <point x="22" y="90" type="curve" smooth="yes"/>
      <point x="22" y="33"/>
      <point x="68" y="0"/>
      <point x="138" y="0" type="curve" smooth="yes"/>
      <point x="408" y="0" type="line" smooth="yes"/>
      <point x="467" y="0"/>
      <point x="505" y="20"/>
      <point x="505" y="65" type="curve" smooth="yes"/>
      <point x="505" y="106"/>
      <point x="483" y="124"/>
      <point x="447" y="141" type="curve" smooth="yes"/>
      <point x="465" y="147" type="line" smooth="yes"/>
      <point x="449" y="161"/>
      <point x="441" y="177"/>
      <point x="441" y="202" type="curve" smooth="yes"/>
      <point x="441" y="224"/>
      <point x="457" y="259"/>
      <point x="475" y="286" type="curve" smooth="yes"/>
      <point x="549" y="420" type="line"/>
    </contour>
    <contour>
      <point x="728" y="724" type="line" smooth="yes"/>
      <point x="700" y="753"/>
      <point x="694" y="763"/>
      <point x="694" y="783" type="curve" smooth="yes"/>
      <point x="694" y="808"/>
      <point x="709" y="820"/>
      <point x="723" y="828" type="curve" smooth="yes"/>
      <point x="747" y="840" type="line" smooth="yes"/>
      <point x="776" y="857"/>
      <point x="792" y="873"/>
      <point x="792" y="912" type="curve" smooth="yes"/>
      <point x="792" y="951"/>
      <point x="754" y="967"/>
      <point x="696" y="967" type="curve" smooth="yes"/>
      <point x="127" y="967" type="line" smooth="yes"/>
      <point x="68" y="967"/>
      <point x="26" y="942"/>
      <point x="26" y="898" type="curve" smooth="yes"/>
      <point x="26" y="859"/>
      <point x="57" y="834"/>
      <point x="87" y="826" type="curve" smooth="yes"/>
      <point x="106" y="820"/>
      <point x="159" y="806"/>
      <point x="228" y="741" type="curve" smooth="yes"/>
      <point x="616" y="263" type="line" smooth="yes"/>
      <point x="672" y="222"/>
      <point x="651" y="200"/>
      <point x="651" y="184" type="curve" smooth="yes"/>
      <point x="651" y="163"/>
      <point x="625" y="145"/>
      <point x="607" y="135" type="curve" smooth="yes"/>
      <point x="617" y="129" type="line" smooth="yes"/>
      <point x="588" y="110"/>
      <point x="565" y="92"/>
      <point x="565" y="59" type="curve" smooth="yes"/>
      <point x="565" y="18"/>
      <point x="592" y="0"/>
      <point x="637" y="0" type="curve" smooth="yes"/>
      <point x="1226" y="0" type="line" smooth="yes"/>
      <point x="1295" y="0"/>
      <point x="1323" y="27"/>
      <point x="1323" y="65" type="curve" smooth="yes"/>
      <point x="1323" y="94"/>
      <point x="1303" y="124"/>
      <point x="1263" y="139" type="curve" smooth="yes"/>
      <point x="1220" y="151"/>
      <point x="1221" y="165"/>
      <point x="1171" y="216" type="curve" smooth="yes"/>
    </contour>
    <contour>
      <point x="877" y="406" type="line"/>
      <point x="1053" y="675" type="line" smooth="yes"/>
      <point x="1114" y="743"/>
      <point x="1149" y="781"/>
      <point x="1194" y="798" type="curve" smooth="yes"/>
      <point x="1272" y="820"/>
      <point x="1301" y="843"/>
      <point x="1301" y="885" type="curve" smooth="yes"/>
      <point x="1301" y="934"/>
      <point x="1254" y="967"/>
      <point x="1185" y="967" type="curve" smooth="yes"/>
      <point x="912" y="967" type="line" smooth="yes"/>
      <point x="851" y="967"/>
      <point x="815" y="951"/>
      <point x="815" y="914" type="curve" smooth="yes"/>
      <point x="815" y="885"/>
      <point x="813" y="859"/>
      <point x="859" y="840" type="curve" smooth="yes"/>
      <point x="849" y="830" type="line" smooth="yes"/>
      <point x="877" y="816"/>
      <point x="893" y="794"/>
      <point x="893" y="771" type="curve" smooth="yes"/>
      <point x="893" y="738"/>
      <point x="879" y="706"/>
      <point x="846" y="667" type="curve" smooth="yes"/>
      <point x="743" y="481" type="line"/>
    </contour>
  </outline>
</glyph>
<glyph name="y" format="2">
  <advance width="1373"/>
  <unicode hex="0079"/>
  <anchor x="729" y="1040" name="center"/>
  <outline>
    <contour>
      <point x="911" y="159" type="line"/>
      <point x="715" y="634" type="line" smooth="yes"/>
      <point x="680" y="679"/>
      <point x="676" y="700"/>
      <point x="676" y="724" type="curve" smooth="yes"/>
      <point x="676" y="765"/>
      <point x="712" y="794"/>
      <point x="736" y="808" type="curve" smooth="yes"/>
      <point x="724" y="816" type="line" smooth="yes"/>
      <point x="747" y="828"/>
      <point x="765" y="859"/>
      <point x="765" y="904" type="curve" smooth="yes"/>
      <point x="765" y="949"/>
      <point x="723" y="969"/>
      <point x="658" y="969" type="curve" smooth="yes"/>
      <point x="50" y="969" type="line" smooth="yes"/>
      <point x="7" y="969"/>
      <point x="-15" y="938"/>
      <point x="-15" y="891" type="curve" smooth="yes"/>
      <point x="-15" y="853"/>
      <point x="14" y="824"/>
      <point x="78" y="802" type="curve" smooth="yes"/>
      <point x="117" y="783"/>
      <point x="135" y="763"/>
      <point x="155" y="724" type="curve" smooth="yes"/>
      <point x="667" y="-184" type="line"/>
    </contour>
    <contour>
      <point x="743" y="-129" type="line" smooth="yes"/>
      <point x="653" y="-271"/>
      <point x="609" y="-306"/>
      <point x="563" y="-306" type="curve" smooth="yes"/>
      <point x="524" y="-306"/>
      <point x="503" y="-286"/>
      <point x="500" y="-263" type="curve" smooth="yes"/>
      <point x="449" y="-190" type="line" smooth="yes"/>
      <point x="407" y="-114"/>
      <point x="346" y="-80"/>
      <point x="231" y="-80" type="curve" smooth="yes"/>
      <point x="141" y="-80"/>
      <point x="58" y="-139"/>
      <point x="58" y="-253" type="curve" smooth="yes"/>
      <point x="58" y="-394"/>
      <point x="182" y="-500"/>
      <point x="403" y="-500" type="curve" smooth="yes"/>
      <point x="648" y="-500"/>
      <point x="805" y="-398"/>
      <point x="924" y="-165" type="curve" smooth="yes"/>
      <point x="1121" y="553" type="line" smooth="yes"/>
      <point x="1162" y="651"/>
      <point x="1235" y="718"/>
      <point x="1274" y="751" type="curve" smooth="yes"/>
      <point x="1333" y="789"/>
      <point x="1373" y="834"/>
      <point x="1373" y="867" type="curve" smooth="yes"/>
      <point x="1373" y="936"/>
      <point x="1323" y="969"/>
      <point x="1244" y="969" type="curve" smooth="yes"/>
      <point x="953" y="969" type="line" smooth="yes"/>
      <point x="887" y="969"/>
      <point x="855" y="940"/>
      <point x="855" y="904" type="curve" smooth="yes"/>
      <point x="855" y="861"/>
      <point x="884" y="840"/>
      <point x="920" y="808" type="curve" smooth="yes"/>
      <point x="915" y="789" type="line" smooth="yes"/>
      <point x="946" y="757"/>
      <point x="961" y="736"/>
      <point x="961" y="681" type="curve" smooth="yes"/>
      <point x="961" y="653"/>
      <point x="976" y="622"/>
      <point x="897" y="500" type="curve" smooth="yes"/>
    </contour>
  </outline>
</glyph>
<glyph name="z" format="2">
  <advance width="1114"/>
  <unicode hex="007A"/>
  <anchor x="655" y="1044" name="center"/>
  <outline>
    <contour>
      <point x="997" y="761" type="line" smooth="yes"/>
      <point x="1049" y="822"/>
      <point x="1068" y="857"/>
      <point x="1068" y="889" type="curve" smooth="yes"/>
      <point x="1068" y="938"/>
      <point x="1022" y="969"/>
      <point x="930" y="969" type="curve" smooth="yes"/>
      <point x="375" y="969" type="line" smooth="yes"/>
      <point x="311" y="969"/>
      <point x="256" y="1002"/>
      <point x="200" y="1002" type="curve" smooth="yes"/>
      <point x="157" y="1002"/>
      <point x="127" y="983"/>
      <point x="102" y="906" type="curve" smooth="yes"/>
      <point x="80" y="775" type="line" smooth="yes"/>
      <point x="73" y="747"/>
      <point x="65" y="724"/>
      <point x="65" y="698" type="curve" smooth="yes"/>
      <point x="65" y="659"/>
      <point x="105" y="634"/>
      <point x="147" y="634" type="curve" smooth="yes"/>
      <point x="198" y="634"/>
      <point x="222" y="659"/>
      <point x="277" y="716" type="curve" smooth="yes"/>
      <point x="288" y="747" type="line" smooth="yes"/>
      <point x="352" y="812"/>
      <point x="410" y="832"/>
      <point x="529" y="832" type="curve" smooth="yes"/>
      <point x="678" y="832" type="line"/>
      <point x="659" y="906" type="line"/>
      <point x="90" y="198" type="line" smooth="yes"/>
      <point x="67" y="163"/>
      <point x="39" y="126"/>
      <point x="39" y="90" type="curve" smooth="yes"/>
      <point x="39" y="43"/>
      <point x="101" y="-2"/>
      <point x="178" y="-2" type="curve" smooth="yes"/>
      <point x="696" y="-2" type="line" smooth="yes"/>
      <point x="796" y="-2"/>
      <point x="835" y="-31"/>
      <point x="879" y="-31" type="curve" smooth="yes"/>
      <point x="959" y="-31"/>
      <point x="1010" y="-8"/>
      <point x="1027" y="57" type="curve" smooth="yes"/>
      <point x="1057" y="216" type="line" smooth="yes"/>
      <point x="1072" y="259"/>
      <point x="1076" y="282"/>
      <point x="1076" y="304" type="curve" smooth="yes"/>
      <point x="1076" y="349"/>
      <point x="1042" y="375"/>
      <point x="990" y="375" type="curve" smooth="yes"/>
      <point x="946" y="375"/>
      <point x="912" y="349"/>
      <point x="876" y="298" type="curve" smooth="yes"/>
      <point x="871" y="261" type="line" smooth="yes"/>
      <point x="799" y="173"/>
      <point x="708" y="137"/>
      <point x="553" y="137" type="curve" smooth="yes"/>
      <point x="406" y="137" type="line"/>
      <point x="431" y="61" type="line"/>
    </contour>
  </outline>
</glyph>
<glyph name="bar" format="2">
  <advance width="735"/>
  <unicode hex="007C"/>
  <outline>
    <contour>
      <point x="307" y="530" type="curve" smooth="yes"/>
      <point x="307" y="336"/>
      <point x="165" y="-172"/>
      <point x="165" y="-360" type="curve" smooth="yes"/>
      <point x="165" y="-446"/>
      <point x="247" y="-500"/>
      <point x="367" y="-500" type="curve" smooth="yes"/>
      <point x="489" y="-500"/>
      <point x="562" y="-446"/>
      <point x="562" y="-366" type="curve" smooth="yes"/>
      <point x="562" y="-162"/>
      <point x="424" y="318"/>
      <point x="424" y="526" type="curve" smooth="yes"/>
      <point x="424" y="686"/>
      <point x="554" y="1208"/>
      <point x="554" y="1394" type="curve" smooth="yes"/>
      <point x="554" y="1470"/>
      <point x="480" y="1530"/>
      <point x="361" y="1530" type="curve" smooth="yes"/>
      <point x="246" y="1530"/>
      <point x="167" y="1478"/>
      <point x="167" y="1390" type="curve" smooth="yes"/>
      <point x="167" y="1216"/>
      <point x="307" y="709"/>
    </contour>
  </outline>
</glyph>
<glyph name="braceright" format="2">
  <advance width="843"/>
  <unicode hex="007D"/>
  <outline>
    <contour>
      <point x="268" y="562" type="curve" smooth="yes"/>
      <point x="268" y="542"/>
      <point x="245" y="524"/>
      <point x="206" y="524" type="curve" smooth="yes"/>
      <point x="142" y="524"/>
      <point x="99" y="456"/>
      <point x="99" y="360" type="curve" smooth="yes"/>
      <point x="99" y="210"/>
      <point x="177" y="80"/>
      <point x="177" y="-56" type="curve" smooth="yes"/>
      <point x="177" y="-158"/>
      <point x="105" y="-240"/>
      <point x="16" y="-240" type="curve" smooth="yes"/>
      <point x="37" y="-240" type="line" smooth="yes"/>
      <point x="-41" y="-240"/>
      <point x="-93" y="-264"/>
      <point x="-93" y="-306" type="curve" smooth="yes"/>
      <point x="-93" y="-342"/>
      <point x="-54" y="-370"/>
      <point x="33" y="-370" type="curve" smooth="yes"/>
      <point x="222" y="-370" type="line" smooth="yes"/>
      <point x="451" y="-370"/>
      <point x="614" y="-244"/>
      <point x="614" y="-60" type="curve" smooth="yes"/>
      <point x="614" y="116"/>
      <point x="410" y="230"/>
      <point x="410" y="372" type="curve" smooth="yes"/>
      <point x="410" y="432"/>
      <point x="470" y="466"/>
      <point x="521" y="468" type="curve" smooth="yes"/>
      <point x="606" y="468"/>
      <point x="585" y="428"/>
      <point x="672" y="428" type="curve" smooth="yes"/>
      <point x="744" y="428"/>
      <point x="803" y="490"/>
      <point x="803" y="560" type="curve" smooth="yes"/>
      <point x="803" y="636"/>
      <point x="752" y="692"/>
      <point x="676" y="692" type="curve" smooth="yes"/>
      <point x="575" y="692"/>
      <point x="573" y="652"/>
      <point x="513" y="652" type="curve" smooth="yes"/>
      <point x="461" y="654"/>
      <point x="410" y="696"/>
      <point x="410" y="758" type="curve" smooth="yes"/>
      <point x="410" y="892"/>
      <point x="614" y="1010"/>
      <point x="614" y="1200" type="curve" smooth="yes"/>
      <point x="614" y="1380"/>
      <point x="451" y="1510"/>
      <point x="222" y="1510" type="curve" smooth="yes"/>
      <point x="33" y="1510" type="line" smooth="yes"/>
      <point x="-54" y="1510"/>
      <point x="-93" y="1474"/>
      <point x="-93" y="1446" type="curve" smooth="yes"/>
      <point x="-93" y="1398"/>
      <point x="-41" y="1380"/>
      <point x="37" y="1380" type="curve" smooth="yes"/>
      <point x="16" y="1380" type="line" smooth="yes"/>
      <point x="105" y="1380"/>
      <point x="177" y="1296"/>
      <point x="177" y="1196" type="curve" smooth="yes"/>
      <point x="177" y="1050"/>
      <point x="99" y="912"/>
      <point x="99" y="768" type="curve" smooth="yes"/>
      <point x="99" y="676"/>
      <point x="136" y="600"/>
      <point x="206" y="600" type="curve" smooth="yes"/>
      <point x="245" y="600"/>
      <point x="268" y="588"/>
    </contour>
  </outline>
</glyph>
<glyph name="asciitilde" format="2">
  <advance width="1480"/>
  <unicode hex="007E"/>
  <outline>
    <contour>
      <point x="-23" y="457" type="curve" smooth="yes"/>
      <point x="-23" y="627"/>
      <point x="140" y="754"/>
      <point x="411" y="754" type="curve" smooth="yes"/>
      <point x="629" y="754"/>
      <point x="729" y="727"/>
      <point x="834" y="667" type="curve" smooth="yes"/>
      <point x="939" y="610"/>
      <point x="992" y="594"/>
      <point x="1055" y="594" type="curve" smooth="yes"/>
      <point x="1136" y="594"/>
      <point x="1186" y="618"/>
      <point x="1186" y="667" type="curve" smooth="yes"/>
      <point x="1186" y="725"/>
      <point x="1239" y="754"/>
      <point x="1328" y="754" type="curve" smooth="yes"/>
      <point x="1404" y="754"/>
      <point x="1477" y="733"/>
      <point x="1477" y="644" type="curve" smooth="yes"/>
      <point x="1477" y="462"/>
      <point x="1261" y="374"/>
      <point x="1006" y="374" type="curve" smooth="yes"/>
      <point x="847" y="374"/>
      <point x="749" y="391"/>
      <point x="617" y="455" type="curve" smooth="yes"/>
      <point x="481" y="518"/>
      <point x="435" y="534"/>
      <point x="381" y="534" type="curve" smooth="yes"/>
      <point x="315" y="534"/>
      <point x="279" y="505"/>
      <point x="279" y="442" type="curve" smooth="yes"/>
      <point x="279" y="388"/>
      <point x="212" y="362"/>
      <point x="127" y="362" type="curve" smooth="yes"/>
      <point x="54" y="362"/>
      <point x="-23" y="381"/>
    </contour>
  </outline>
</glyph>
<glyph name="exclamdown" format="2">
  <advance width="542"/>
  <unicode hex="00A1"/>
  <outline>
    <contour>
      <point x="270" y="-548" type="curve" smooth="yes"/>
      <point x="88" y="-548"/>
      <point x="4" y="-484"/>
      <point x="4" y="-384" type="curve" smooth="yes"/>
      <point x="4" y="-351"/>
      <point x="11" y="-298"/>
      <point x="23" y="-258" type="curve" smooth="yes"/>
      <point x="146" y="402" type="line" smooth="yes"/>
      <point x="159" y="458"/>
      <point x="190" y="488"/>
      <point x="260" y="488" type="curve" smooth="yes"/>
      <point x="330" y="488"/>
      <point x="356" y="460"/>
      <point x="373" y="398" type="curve" smooth="yes"/>
      <point x="509" y="-260" type="line" smooth="yes"/>
      <point x="523" y="-312"/>
      <point x="527" y="-349"/>
      <point x="527" y="-386" type="curve" smooth="yes"/>
      <point x="527" y="-488"/>
      <point x="399" y="-548"/>
    </contour>
    <contour>
      <point x="276" y="958" type="curve" smooth="yes"/>
      <point x="127" y="958"/>
      <point x="11" y="870"/>
      <point x="11" y="764" type="curve" smooth="yes"/>
      <point x="11" y="658"/>
      <point x="127" y="572"/>
      <point x="276" y="572" type="curve" smooth="yes"/>
      <point x="421" y="572"/>
      <point x="537" y="658"/>
      <point x="537" y="764" type="curve" smooth="yes"/>
      <point x="537" y="870"/>
      <point x="421" y="958"/>
    </contour>
  </outline>
</glyph>
<glyph name="sterling" format="2">
  <advance width="1269"/>
  <unicode hex="00A3"/>
  <outline>
    <contour>
      <point x="89" y="634" type="curve" smooth="yes"/>
      <point x="89" y="596"/>
      <point x="119" y="572"/>
      <point x="175" y="572" type="curve" smooth="yes"/>
      <point x="913" y="572" type="line" smooth="yes"/>
      <point x="968" y="572"/>
      <point x="1003" y="596"/>
      <point x="1003" y="634" type="curve" smooth="yes"/>
      <point x="1003" y="672"/>
      <point x="968" y="698"/>
      <point x="913" y="698" type="curve" smooth="yes"/>
      <point x="177" y="698" type="line" smooth="yes"/>
      <point x="124" y="698"/>
      <point x="89" y="672"/>
    </contour>
    <contour>
      <point x="208" y="200" type="curve" smooth="yes"/>
      <point x="334" y="200"/>
      <point x="556" y="-30"/>
      <point x="890" y="-30" type="curve" smooth="yes"/>
      <point x="1112" y="-30"/>
      <point x="1250" y="96"/>
      <point x="1250" y="316" type="curve" smooth="yes"/>
      <point x="1250" y="372"/>
      <point x="1207" y="404"/>
      <point x="1158" y="404" type="curve" smooth="yes"/>
      <point x="1110" y="404"/>
      <point x="1065" y="370"/>
      <point x="1040" y="330" type="curve" smooth="yes"/>
      <point x="995" y="258"/>
      <point x="919" y="218"/>
      <point x="783" y="218" type="curve" smooth="yes"/>
      <point x="665" y="218"/>
      <point x="470" y="358"/>
      <point x="290" y="358" type="curve" smooth="yes"/>
      <point x="119" y="358"/>
      <point x="10" y="278"/>
      <point x="10" y="162" type="curve" smooth="yes"/>
      <point x="10" y="48"/>
      <point x="128" y="-30"/>
      <point x="311" y="-30" type="curve" smooth="yes"/>
      <point x="459" y="-30"/>
      <point x="657" y="56"/>
      <point x="657" y="258" type="curve" smooth="yes"/>
      <point x="657" y="474"/>
      <point x="606" y="702"/>
      <point x="606" y="956" type="curve" smooth="yes"/>
      <point x="606" y="1140"/>
      <point x="653" y="1218"/>
      <point x="748" y="1218" type="curve" smooth="yes"/>
      <point x="797" y="1218"/>
      <point x="832" y="1180"/>
      <point x="832" y="1098" type="curve" smooth="yes"/>
      <point x="832" y="1050" type="line" smooth="yes"/>
      <point x="832" y="952"/>
      <point x="931" y="884"/>
      <point x="1040" y="884" type="curve" smooth="yes"/>
      <point x="1170" y="884"/>
      <point x="1248" y="942"/>
      <point x="1248" y="1046" type="curve" smooth="yes"/>
      <point x="1248" y="1208"/>
      <point x="1092" y="1328"/>
      <point x="750" y="1328" type="curve" smooth="yes"/>
      <point x="416" y="1328"/>
      <point x="206" y="1168"/>
      <point x="206" y="906" type="curve" smooth="yes"/>
      <point x="206" y="684"/>
      <point x="484" y="456"/>
      <point x="484" y="262" type="curve" smooth="yes"/>
      <point x="484" y="100"/>
      <point x="385" y="58"/>
      <point x="290" y="58" type="curve" smooth="yes"/>
      <point x="229" y="58"/>
      <point x="165" y="88"/>
      <point x="165" y="134" type="curve" smooth="yes"/>
      <point x="165" y="174"/>
      <point x="192" y="200"/>
    </contour>
  </outline>
</glyph>
<glyph name="yen" format="2">
  <advance width="1259"/>
  <unicode hex="00A5"/>
  <outline>
    <contour>
      <point x="1149" y="370" type="curve" smooth="yes"/>
      <point x="1201" y="370"/>
      <point x="1224" y="396"/>
      <point x="1224" y="424" type="curve" smooth="yes"/>
      <point x="1224" y="462"/>
      <point x="1199" y="488"/>
      <point x="1149" y="490" type="curve" smooth="yes"/>
      <point x="1086" y="492"/>
      <point x="1009" y="460"/>
      <point x="616" y="460" type="curve" smooth="yes"/>
      <point x="245" y="460"/>
      <point x="179" y="484"/>
      <point x="115" y="484" type="curve" smooth="yes"/>
      <point x="66" y="484"/>
      <point x="41" y="450"/>
      <point x="41" y="416" type="curve" smooth="yes"/>
      <point x="41" y="388"/>
      <point x="64" y="362"/>
      <point x="111" y="362" type="curve" smooth="yes"/>
      <point x="167" y="362"/>
      <point x="239" y="386"/>
      <point x="616" y="386" type="curve" smooth="yes"/>
      <point x="1007" y="386"/>
      <point x="1086" y="370"/>
    </contour>
    <contour>
      <point x="503" y="662" type="line"/>
      <point x="229" y="668"/>
      <point x="171" y="686"/>
      <point x="115" y="686" type="curve" smooth="yes"/>
      <point x="66" y="686"/>
      <point x="41" y="652"/>
      <point x="41" y="618" type="curve" smooth="yes"/>
      <point x="41" y="590"/>
      <point x="64" y="564"/>
      <point x="111" y="564" type="curve" smooth="yes"/>
      <point x="163" y="564"/>
      <point x="227" y="584"/>
      <point x="538" y="588" type="curve"/>
    </contour>
    <contour>
      <point x="1149" y="572" type="curve" smooth="yes"/>
      <point x="1201" y="572"/>
      <point x="1224" y="598"/>
      <point x="1224" y="626" type="curve" smooth="yes"/>
      <point x="1224" y="664"/>
      <point x="1199" y="690"/>
      <point x="1149" y="692" type="curve" smooth="yes"/>
      <point x="1112" y="694"/>
      <point x="1069" y="676"/>
      <point x="956" y="668" type="curve"/>
      <point x="898" y="586" type="line"/>
      <point x="1053" y="582"/>
      <point x="1106" y="572"/>
    </contour>
    <contour>
      <point x="461" y="449" type="line"/>
      <point x="461" y="227" type="line" smooth="yes"/>
      <point x="461" y="179"/>
      <point x="439" y="157"/>
      <point x="393" y="146" type="curve" smooth="yes"/>
      <point x="346" y="135" type="line" smooth="yes"/>
      <point x="312" y="128"/>
      <point x="294" y="108"/>
      <point x="294" y="64" type="curve" smooth="yes"/>
      <point x="294" y="22"/>
      <point x="333" y="0"/>
      <point x="387" y="0" type="curve" smooth="yes"/>
      <point x="958" y="0" type="line" smooth="yes"/>
      <point x="1024" y="0"/>
      <point x="1052" y="20"/>
      <point x="1052" y="64" type="curve" smooth="yes"/>
      <point x="1052" y="108"/>
      <point x="1033" y="128"/>
      <point x="999" y="135" type="curve" smooth="yes"/>
      <point x="952" y="146" type="line" smooth="yes"/>
      <point x="907" y="157"/>
      <point x="885" y="179"/>
      <point x="885" y="227" type="curve" smooth="yes"/>
      <point x="885" y="449" type="line"/>
    </contour>
    <contour>
      <point x="858" y="375" type="line"/>
      <point x="1135" y="979" type="line" smooth="yes"/>
      <point x="1180" y="1070"/>
      <point x="1200" y="1096"/>
      <point x="1242" y="1113" type="curve" smooth="yes"/>
      <point x="1283" y="1125"/>
      <point x="1295" y="1166"/>
      <point x="1295" y="1202" type="curve" smooth="yes"/>
      <point x="1295" y="1253"/>
      <point x="1265" y="1279"/>
      <point x="1195" y="1279" type="curve" smooth="yes"/>
      <point x="915" y="1279" type="line" smooth="yes"/>
      <point x="857" y="1279"/>
      <point x="822" y="1252"/>
      <point x="822" y="1211" type="curve" smooth="yes"/>
      <point x="822" y="1177"/>
      <point x="842" y="1142"/>
      <point x="888" y="1127" type="curve" smooth="yes"/>
      <point x="952" y="1104"/>
      <point x="965" y="1078"/>
      <point x="967" y="1051" type="curve" smooth="yes"/>
      <point x="967" y="1030"/>
      <point x="960" y="1005"/>
      <point x="945" y="976" type="curve" smooth="yes"/>
      <point x="728" y="462" type="line"/>
      <point x="849" y="499" type="line"/>
      <point x="617" y="1018" type="line" smooth="yes"/>
      <point x="589" y="1072"/>
      <point x="615" y="1118"/>
      <point x="674" y="1131" type="curve" smooth="yes"/>
      <point x="713" y="1140" type="line" smooth="yes"/>
      <point x="745" y="1147"/>
      <point x="758" y="1169"/>
      <point x="758" y="1211" type="curve" smooth="yes"/>
      <point x="758" y="1253"/>
      <point x="724" y="1279"/>
      <point x="674" y="1279" type="curve" smooth="yes"/>
      <point x="135" y="1279" type="line" smooth="yes"/>
      <point x="76" y="1279"/>
      <point x="39" y="1257"/>
      <point x="39" y="1215" type="curve" smooth="yes"/>
      <point x="39" y="1182"/>
      <point x="45" y="1149"/>
      <point x="87" y="1135" type="curve" smooth="yes"/>
      <point x="135" y="1118"/>
      <point x="139" y="1094"/>
      <point x="177" y="1025" type="curve" smooth="yes"/>
      <point x="491" y="375" type="line"/>
    </contour>
  </outline>
</glyph>
<glyph name="section" format="2">
  <advance width="1162"/>
  <unicode hex="00A7"/>
  <outline>
    <contour>
      <point x="595" y="-338" type="curve" smooth="yes"/>
      <point x="476" y="-338"/>
      <point x="354" y="-296"/>
      <point x="280" y="-154" type="curve" smooth="yes"/>
      <point x="222" y="-82"/>
      <point x="200" y="-60"/>
      <point x="157" y="-60" type="curve" smooth="yes"/>
      <point x="95" y="-60"/>
      <point x="68" y="-88"/>
      <point x="68" y="-132" type="curve" smooth="yes"/>
      <point x="68" y="-154"/>
      <point x="82" y="-184"/>
      <point x="87" y="-220" type="curve" smooth="yes"/>
      <point x="97" y="-402" type="line" smooth="yes"/>
      <point x="115" y="-468"/>
      <point x="155" y="-488"/>
      <point x="192" y="-488" type="curve" smooth="yes"/>
      <point x="225" y="-488"/>
      <point x="247" y="-440"/>
      <point x="282" y="-440" type="curve" smooth="yes"/>
      <point x="334" y="-440"/>
      <point x="447" y="-486"/>
      <point x="591" y="-486" type="curve" smooth="yes"/>
      <point x="904" y="-486"/>
      <point x="1102" y="-326"/>
      <point x="1102" y="-136" type="curve" smooth="yes"/>
      <point x="1102" y="8"/>
      <point x="1020" y="150"/>
      <point x="740" y="266" type="curve" smooth="yes"/>
      <point x="486" y="376"/>
      <point x="459" y="460"/>
      <point x="459" y="526" type="curve" smooth="yes"/>
      <point x="459" y="620"/>
      <point x="523" y="682"/>
      <point x="599" y="682" type="curve"/>
      <point x="581" y="812" type="line"/>
      <point x="293" y="812"/>
      <point x="62" y="644"/>
      <point x="62" y="456" type="curve" smooth="yes"/>
      <point x="62" y="288"/>
      <point x="227" y="166"/>
      <point x="422" y="76" type="curve" smooth="yes"/>
      <point x="628" y="-22"/>
      <point x="684" y="-90"/>
      <point x="686" y="-188" type="curve" smooth="yes"/>
      <point x="688" y="-268"/>
      <point x="655" y="-338"/>
    </contour>
    <contour>
      <point x="657" y="218" type="curve"/>
      <point x="735" y="90" type="line"/>
      <point x="981" y="90"/>
      <point x="1133" y="246"/>
      <point x="1133" y="428" type="curve" smooth="yes"/>
      <point x="1133" y="582"/>
      <point x="1032" y="726"/>
      <point x="793" y="846" type="curve" smooth="yes"/>
      <point x="499" y="970"/>
      <point x="435" y="1040"/>
      <point x="435" y="1130" type="curve" smooth="yes"/>
      <point x="435" y="1222"/>
      <point x="509" y="1282"/>
      <point x="608" y="1282" type="curve" smooth="yes"/>
      <point x="713" y="1282"/>
      <point x="834" y="1240"/>
      <point x="929" y="1086" type="curve" smooth="yes"/>
      <point x="972" y="1032"/>
      <point x="1009" y="1000"/>
      <point x="1063" y="1000" type="curve" smooth="yes"/>
      <point x="1127" y="1000"/>
      <point x="1152" y="1028"/>
      <point x="1152" y="1072" type="curve" smooth="yes"/>
      <point x="1152" y="1088"/>
      <point x="1139" y="1116"/>
      <point x="1133" y="1140" type="curve" smooth="yes"/>
      <point x="1071" y="1364" type="line" smooth="yes"/>
      <point x="1049" y="1414"/>
      <point x="1001" y="1432"/>
      <point x="958" y="1432" type="curve" smooth="yes"/>
      <point x="919" y="1432"/>
      <point x="904" y="1386"/>
      <point x="857" y="1386" type="curve" smooth="yes"/>
      <point x="814" y="1386"/>
      <point x="731" y="1430"/>
      <point x="614" y="1430" type="curve" smooth="yes"/>
      <point x="297" y="1430"/>
      <point x="52" y="1254"/>
      <point x="52" y="1060" type="curve" smooth="yes"/>
      <point x="52" y="888"/>
      <point x="161" y="750"/>
      <point x="449" y="636" type="curve" smooth="yes"/>
      <point x="707" y="528"/>
      <point x="768" y="434"/>
      <point x="768" y="368" type="curve" smooth="yes"/>
      <point x="768" y="280"/>
      <point x="727" y="218"/>
    </contour>
  </outline>
</glyph>
<glyph name="dieresis" format="2">
  <advance width="880"/>
  <unicode hex="00A8"/>
  <outline>
    <contour>
      <point x="232" y="920" type="curve" smooth="yes"/>
      <point x="351" y="920"/>
      <point x="450" y="1004"/>
      <point x="450" y="1106" type="curve" smooth="yes"/>
      <point x="450" y="1209"/>
      <point x="351" y="1289"/>
      <point x="232" y="1289" type="curve" smooth="yes"/>
      <point x="113" y="1289"/>
      <point x="14" y="1209"/>
      <point x="14" y="1106" type="curve" smooth="yes"/>
      <point x="14" y="1004"/>
      <point x="113" y="920"/>
    </contour>
    <contour>
      <point x="657" y="920" type="curve" smooth="yes"/>
      <point x="777" y="920"/>
      <point x="876" y="1004"/>
      <point x="876" y="1106" type="curve" smooth="yes"/>
      <point x="876" y="1209"/>
      <point x="777" y="1289"/>
      <point x="657" y="1289" type="curve" smooth="yes"/>
      <point x="539" y="1289"/>
      <point x="440" y="1209"/>
      <point x="440" y="1106" type="curve" smooth="yes"/>
      <point x="440" y="1004"/>
      <point x="539" y="920"/>
    </contour>
  </outline>
</glyph>
<glyph name="copyright" format="2">
  <advance width="1664"/>
  <unicode hex="00A9"/>
  <outline>
    <contour>
      <point x="831" y="-30" type="curve" smooth="yes"/>
      <point x="413" y="-30"/>
      <point x="115" y="267"/>
      <point x="115" y="667" type="curve" smooth="yes"/>
      <point x="115" y="1065"/>
      <point x="413" y="1353"/>
      <point x="831" y="1353" type="curve" smooth="yes"/>
      <point x="1250" y="1353"/>
      <point x="1549" y="1067"/>
      <point x="1549" y="667" type="curve" smooth="yes"/>
      <point x="1549" y="265"/>
      <point x="1252" y="-30"/>
    </contour>
    <contour>
      <point x="831" y="71" type="curve" smooth="yes"/>
      <point x="1177" y="71"/>
      <point x="1427" y="325"/>
      <point x="1427" y="667" type="curve" smooth="yes"/>
      <point x="1427" y="1006"/>
      <point x="1177" y="1252"/>
      <point x="831" y="1252" type="curve" smooth="yes"/>
      <point x="481" y="1252"/>
      <point x="238" y="1008"/>
      <point x="238" y="667" type="curve" smooth="yes"/>
      <point x="238" y="323"/>
      <point x="481" y="71"/>
    </contour>
    <contour>
      <point x="1223" y="483" type="curve" smooth="yes"/>
      <point x="1223" y="503"/>
      <point x="1209" y="519"/>
      <point x="1189" y="519" type="curve" smooth="yes"/>
      <point x="1170" y="519"/>
      <point x="1158" y="515"/>
      <point x="1130" y="487" type="curve" smooth="yes"/>
      <point x="1092" y="430"/>
      <point x="999" y="392"/>
      <point x="923" y="392" type="curve" smooth="yes"/>
      <point x="774" y="392"/>
      <point x="675" y="518"/>
      <point x="675" y="697" type="curve" smooth="yes"/>
      <point x="675" y="879"/>
      <point x="745" y="986"/>
      <point x="842" y="986" type="curve" smooth="yes"/>
      <point x="920" y="986"/>
      <point x="1009" y="953"/>
      <point x="1064" y="854" type="curve" smooth="yes"/>
      <point x="1097" y="816"/>
      <point x="1125" y="806"/>
      <point x="1154" y="806" type="curve" smooth="yes"/>
      <point x="1193" y="806"/>
      <point x="1216" y="822"/>
      <point x="1216" y="844" type="curve" smooth="yes"/>
      <point x="1216" y="859"/>
      <point x="1216" y="869"/>
      <point x="1202" y="903" type="curve" smooth="yes"/>
      <point x="1171" y="1028" type="line" smooth="yes"/>
      <point x="1146" y="1083"/>
      <point x="1129" y="1101"/>
      <point x="1090" y="1101" type="curve" smooth="yes"/>
      <point x="1045" y="1101"/>
      <point x="1041" y="1071"/>
      <point x="991" y="1071" type="curve" smooth="yes"/>
      <point x="971" y="1071"/>
      <point x="934" y="1097"/>
      <point x="871" y="1097" type="curve" smooth="yes"/>
      <point x="600" y="1097"/>
      <point x="412" y="913"/>
      <point x="412" y="650" type="curve" smooth="yes"/>
      <point x="412" y="402"/>
      <point x="578" y="228"/>
      <point x="846" y="228" type="curve" smooth="yes"/>
      <point x="1059" y="228"/>
      <point x="1223" y="362"/>
    </contour>
  </outline>
</glyph>
<glyph name="guillemetleft" format="2">
  <advance width="1335"/>
  <unicode hex="00AB"/>
  <outline>
    <contour>
      <point x="74" y="501" type="curve" smooth="yes"/>
      <point x="74" y="475"/>
      <point x="80" y="436"/>
      <point x="140" y="410" type="curve" smooth="yes"/>
      <point x="243" y="360"/>
      <point x="381" y="257"/>
      <point x="458" y="154" type="curve" smooth="yes"/>
      <point x="500" y="113"/>
      <point x="536" y="99"/>
      <point x="571" y="99" type="curve" smooth="yes"/>
      <point x="616" y="99"/>
      <point x="646" y="118"/>
      <point x="646" y="154" type="curve" smooth="yes"/>
      <point x="646" y="188"/>
      <point x="626" y="215"/>
      <point x="594" y="261" type="curve" smooth="yes"/>
      <point x="565" y="367"/>
      <point x="504" y="462"/>
      <point x="427" y="549" type="curve"/>
      <point x="427" y="471" type="line"/>
      <point x="502" y="563"/>
      <point x="572" y="648"/>
      <point x="590" y="741" type="curve" smooth="yes"/>
      <point x="622" y="787"/>
      <point x="646" y="814"/>
      <point x="646" y="848" type="curve" smooth="yes"/>
      <point x="646" y="883"/>
      <point x="624" y="903"/>
      <point x="591" y="903" type="curve" smooth="yes"/>
      <point x="555" y="903"/>
      <point x="516" y="887"/>
      <point x="477" y="846" type="curve" smooth="yes"/>
      <point x="396" y="737"/>
      <point x="231" y="635"/>
      <point x="140" y="592" type="curve" smooth="yes"/>
      <point x="84" y="568"/>
      <point x="74" y="527"/>
    </contour>
    <contour>
      <point x="618" y="501" type="curve" smooth="yes"/>
      <point x="618" y="475"/>
      <point x="624" y="436"/>
      <point x="684" y="410" type="curve" smooth="yes"/>
      <point x="787" y="360"/>
      <point x="925" y="257"/>
      <point x="1002" y="154" type="curve" smooth="yes"/>
      <point x="1043" y="113"/>
      <point x="1079" y="99"/>
      <point x="1114" y="99" type="curve" smooth="yes"/>
      <point x="1160" y="99"/>
      <point x="1190" y="118"/>
      <point x="1190" y="154" type="curve" smooth="yes"/>
      <point x="1190" y="188"/>
      <point x="1170" y="215"/>
      <point x="1138" y="261" type="curve" smooth="yes"/>
      <point x="1109" y="367"/>
      <point x="1048" y="462"/>
      <point x="971" y="549" type="curve"/>
      <point x="971" y="471" type="line"/>
      <point x="1045" y="563"/>
      <point x="1115" y="648"/>
      <point x="1134" y="741" type="curve" smooth="yes"/>
      <point x="1166" y="787"/>
      <point x="1190" y="814"/>
      <point x="1190" y="848" type="curve" smooth="yes"/>
      <point x="1190" y="883"/>
      <point x="1168" y="903"/>
      <point x="1135" y="903" type="curve" smooth="yes"/>
      <point x="1099" y="903"/>
      <point x="1060" y="887"/>
      <point x="1021" y="846" type="curve" smooth="yes"/>
      <point x="939" y="737"/>
      <point x="775" y="635"/>
      <point x="684" y="592" type="curve" smooth="yes"/>
      <point x="628" y="568"/>
      <point x="618" y="527"/>
    </contour>
  </outline>
</glyph>
<glyph name="macron" format="2">
  <advance width="814"/>
  <unicode hex="00AF"/>
  <outline>
    <contour>
      <point x="23" y="1135" type="curve" smooth="yes"/>
      <point x="23" y="1083"/>
      <point x="64" y="1048"/>
      <point x="129" y="1048" type="curve" smooth="yes"/>
      <point x="683" y="1048" type="line" smooth="yes"/>
      <point x="748" y="1048"/>
      <point x="791" y="1083"/>
      <point x="791" y="1135" type="curve" smooth="yes"/>
      <point x="791" y="1190"/>
      <point x="746" y="1226"/>
      <point x="683" y="1226" type="curve" smooth="yes"/>
      <point x="131" y="1226" type="line" smooth="yes"/>
      <point x="68" y="1226"/>
      <point x="23" y="1190"/>
    </contour>
  </outline>
</glyph>
<glyph name="degree" format="2">
  <advance width="750"/>
  <unicode hex="00B0"/>
  <outline>
    <contour>
      <point x="379" y="1343" type="curve" smooth="yes"/>
      <point x="191" y="1343"/>
      <point x="63" y="1230"/>
      <point x="63" y="1089" type="curve" smooth="yes"/>
      <point x="63" y="943"/>
      <point x="191" y="838"/>
      <point x="367" y="838" type="curve" smooth="yes"/>
      <point x="549" y="838"/>
      <point x="687" y="945"/>
      <point x="687" y="1103" type="curve" smooth="yes"/>
      <point x="687" y="1244"/>
      <point x="559" y="1343"/>
    </contour>
    <contour>
      <point x="439" y="1061" type="curve" smooth="yes"/>
      <point x="439" y="978"/>
      <point x="419" y="927"/>
      <point x="391" y="927" type="curve" smooth="yes"/>
      <point x="347" y="927"/>
      <point x="307" y="1012"/>
      <point x="307" y="1119" type="curve" smooth="yes"/>
      <point x="307" y="1200"/>
      <point x="331" y="1256"/>
      <point x="358" y="1256" type="curve" smooth="yes"/>
      <point x="407" y="1256"/>
      <point x="439" y="1170"/>
    </contour>
  </outline>
</glyph>
<glyph name="plusminus" format="2">
  <advance width="1026"/>
  <unicode hex="00B1"/>
  <outline>
    <contour>
      <point x="23" y="873" type="curve" smooth="yes"/>
      <point x="23" y="814"/>
      <point x="94" y="768"/>
      <point x="177" y="768" type="curve" smooth="yes"/>
      <point x="295" y="768"/>
      <point x="433" y="796"/>
      <point x="519" y="796" type="curve" smooth="yes"/>
      <point x="608" y="796"/>
      <point x="740" y="768"/>
      <point x="849" y="768" type="curve" smooth="yes"/>
      <point x="942" y="768"/>
      <point x="1003" y="814"/>
      <point x="1003" y="873" type="curve" smooth="yes"/>
      <point x="1003" y="933"/>
      <point x="940" y="982"/>
      <point x="849" y="982" type="curve" smooth="yes"/>
      <point x="740" y="982"/>
      <point x="608" y="953"/>
      <point x="519" y="953" type="curve" smooth="yes"/>
      <point x="418" y="953"/>
      <point x="295" y="982"/>
      <point x="179" y="982" type="curve" smooth="yes"/>
      <point x="102" y="982"/>
      <point x="23" y="933"/>
    </contour>
    <contour>
      <point x="521" y="428" type="curve" smooth="yes"/>
      <point x="603" y="428"/>
      <point x="667" y="481"/>
      <point x="667" y="541" type="curve" smooth="yes"/>
      <point x="667" y="657"/>
      <point x="639" y="792"/>
      <point x="639" y="877" type="curve" smooth="yes"/>
      <point x="639" y="964"/>
      <point x="667" y="1093"/>
      <point x="667" y="1200" type="curve" smooth="yes"/>
      <point x="667" y="1269"/>
      <point x="603" y="1313"/>
      <point x="521" y="1313" type="curve" smooth="yes"/>
      <point x="438" y="1313"/>
      <point x="371" y="1267"/>
      <point x="371" y="1200" type="curve" smooth="yes"/>
      <point x="371" y="1093"/>
      <point x="400" y="964"/>
      <point x="400" y="877" type="curve" smooth="yes"/>
      <point x="400" y="778"/>
      <point x="371" y="657"/>
      <point x="371" y="543" type="curve" smooth="yes"/>
      <point x="371" y="487"/>
      <point x="438" y="428"/>
    </contour>
    <contour>
      <point x="23" y="214" type="curve" smooth="yes"/>
      <point x="23" y="156"/>
      <point x="96" y="109"/>
      <point x="177" y="109" type="curve" smooth="yes"/>
      <point x="295" y="109"/>
      <point x="433" y="127"/>
      <point x="519" y="127" type="curve" smooth="yes"/>
      <point x="608" y="127"/>
      <point x="740" y="109"/>
      <point x="849" y="109" type="curve" smooth="yes"/>
      <point x="943" y="109"/>
      <point x="1003" y="156"/>
      <point x="1003" y="214" type="curve" smooth="yes"/>
      <point x="1003" y="275"/>
      <point x="939" y="323"/>
      <point x="849" y="323" type="curve" smooth="yes"/>
      <point x="740" y="323"/>
      <point x="608" y="305"/>
      <point x="519" y="305" type="curve" smooth="yes"/>
      <point x="418" y="305"/>
      <point x="295" y="323"/>
      <point x="179" y="323" type="curve" smooth="yes"/>
      <point x="103" y="323"/>
      <point x="23" y="275"/>
    </contour>
  </outline>
</glyph>
<glyph name="twosuperior" format="2">
  <advance width="781"/>
  <unicode hex="00B2"/>
  <outline>
    <contour>
      <point x="262" y="955" type="curve" smooth="yes"/>
      <point x="118" y="862"/>
      <point x="55" y="776"/>
      <point x="55" y="687" type="curve" smooth="yes"/>
      <point x="55" y="636"/>
      <point x="91" y="606"/>
      <point x="155" y="606" type="curve" smooth="yes"/>
      <point x="226" y="606"/>
      <point x="210" y="691"/>
      <point x="278" y="691" type="curve" smooth="yes"/>
      <point x="361" y="691"/>
      <point x="432" y="602"/>
      <point x="556" y="602" type="curve" smooth="yes"/>
      <point x="672" y="602"/>
      <point x="759" y="698"/>
      <point x="759" y="812" type="curve" smooth="yes"/>
      <point x="759" y="861"/>
      <point x="734" y="897"/>
      <point x="696" y="897" type="curve" smooth="yes"/>
      <point x="672" y="897"/>
      <point x="647" y="885"/>
      <point x="637" y="854" type="curve" smooth="yes"/>
      <point x="617" y="810"/>
      <point x="588" y="792"/>
      <point x="547" y="792" type="curve" smooth="yes"/>
      <point x="508" y="792"/>
      <point x="445" y="828"/>
      <point x="385" y="828" type="curve" smooth="yes"/>
      <point x="269" y="828"/>
      <point x="216" y="758"/>
      <point x="216" y="685" type="curve"/>
      <point x="238" y="687" type="line"/>
      <point x="238" y="762"/>
      <point x="260" y="820"/>
      <point x="340" y="879" type="curve" smooth="yes"/>
      <point x="595" y="962"/>
      <point x="700" y="1039"/>
      <point x="700" y="1151" type="curve" smooth="yes"/>
      <point x="700" y="1266"/>
      <point x="595" y="1343"/>
      <point x="419" y="1343" type="curve" smooth="yes"/>
      <point x="206" y="1343"/>
      <point x="52" y="1227"/>
      <point x="52" y="1111" type="curve" smooth="yes"/>
      <point x="52" y="1046"/>
      <point x="93" y="1012"/>
      <point x="162" y="1012" type="curve" smooth="yes"/>
      <point x="239" y="1012"/>
      <point x="302" y="1050"/>
      <point x="302" y="1119" type="curve" smooth="yes"/>
      <point x="302" y="1182" type="line" smooth="yes"/>
      <point x="302" y="1214"/>
      <point x="310" y="1238"/>
      <point x="335" y="1238" type="curve" smooth="yes"/>
      <point x="376" y="1238"/>
      <point x="408" y="1205"/>
      <point x="408" y="1139" type="curve" smooth="yes"/>
      <point x="408" y="1059"/>
      <point x="357" y="1006"/>
    </contour>
  </outline>
</glyph>
<glyph name="threesuperior" format="2">
  <advance width="778"/>
  <unicode hex="00B3"/>
  <outline>
    <contour>
      <point x="450" y="982" type="line"/>
      <point x="610" y="1198" type="line" smooth="yes"/>
      <point x="662" y="1234"/>
      <point x="688" y="1265"/>
      <point x="688" y="1287" type="curve" smooth="yes"/>
      <point x="688" y="1321"/>
      <point x="657" y="1343"/>
      <point x="583" y="1343" type="curve" smooth="yes"/>
      <point x="232" y="1343" type="line" smooth="yes"/>
      <point x="152" y="1343"/>
      <point x="104" y="1313"/>
      <point x="100" y="1271" type="curve" smooth="yes"/>
      <point x="88" y="1113" type="line" smooth="yes"/>
      <point x="85" y="1081"/>
      <point x="117" y="1056"/>
      <point x="159" y="1056" type="curve" smooth="yes"/>
      <point x="191" y="1056"/>
      <point x="220" y="1083"/>
      <point x="238" y="1109" type="curve" smooth="yes"/>
      <point x="242" y="1129" type="line" smooth="yes"/>
      <point x="267" y="1170"/>
      <point x="309" y="1186"/>
      <point x="374" y="1186" type="curve" smooth="yes"/>
      <point x="553" y="1186" type="line"/>
      <point x="553" y="1285" type="line"/>
      <point x="291" y="1020" type="line" smooth="yes"/>
      <point x="270" y="1000"/>
      <point x="253" y="984"/>
      <point x="253" y="962" type="curve" smooth="yes"/>
      <point x="253" y="935"/>
      <point x="278" y="923"/>
      <point x="304" y="923" type="curve" smooth="yes"/>
      <point x="355" y="923" type="line" smooth="yes"/>
      <point x="414" y="923"/>
      <point x="452" y="879"/>
      <point x="452" y="788" type="curve" smooth="yes"/>
      <point x="452" y="725"/>
      <point x="426" y="687"/>
      <point x="392" y="687" type="curve" smooth="yes"/>
      <point x="345" y="687"/>
      <point x="315" y="716"/>
      <point x="315" y="760" type="curve" smooth="yes"/>
      <point x="315" y="800" type="line" smooth="yes"/>
      <point x="315" y="848"/>
      <point x="256" y="887"/>
      <point x="192" y="887" type="curve" smooth="yes"/>
      <point x="99" y="887"/>
      <point x="33" y="836"/>
      <point x="33" y="774" type="curve" smooth="yes"/>
      <point x="33" y="675"/>
      <point x="148" y="596"/>
      <point x="354" y="596" type="curve" smooth="yes"/>
      <point x="572" y="596"/>
      <point x="732" y="683"/>
      <point x="732" y="814" type="curve" smooth="yes"/>
      <point x="732" y="951"/>
      <point x="597" y="1018"/>
      <point x="382" y="1018" type="curve" smooth="yes"/>
      <point x="376" y="1018"/>
      <point x="349" y="1018"/>
      <point x="343" y="1018" type="curve"/>
    </contour>
  </outline>
</glyph>
<glyph name="acute" format="2">
  <advance width="608"/>
  <unicode hex="00B4"/>
  <anchor x="98" y="974" name="center"/>
  <outline>
    <contour>
      <point x="81" y="1170" type="curve" smooth="yes"/>
      <point x="221" y="1291" type="line" smooth="yes"/>
      <point x="355" y="1373"/>
      <point x="481" y="1414"/>
      <point x="577" y="1414" type="curve" smooth="yes"/>
      <point x="690" y="1414"/>
      <point x="733" y="1382"/>
      <point x="733" y="1321" type="curve" smooth="yes"/>
      <point x="733" y="1265"/>
      <point x="654" y="1214"/>
      <point x="518" y="1172" type="curve" smooth="yes"/>
      <point x="297" y="1081" type="line" smooth="yes"/>
      <point x="212" y="1054"/>
      <point x="147" y="1038"/>
      <point x="100" y="1038" type="curve" smooth="yes"/>
      <point x="47" y="1038"/>
      <point x="19" y="1059"/>
      <point x="19" y="1091" type="curve" smooth="yes"/>
      <point x="19" y="1118"/>
      <point x="45" y="1147"/>
    </contour>
  </outline>
</glyph>
<glyph name="periodcentered" format="2">
  <advance width="672"/>
  <unicode hex="00B7"/>
  <outline>
    <contour>
      <point x="334" y="378" type="curve" smooth="yes"/>
      <point x="477" y="378"/>
      <point x="587" y="467"/>
      <point x="587" y="574" type="curve" smooth="yes"/>
      <point x="587" y="681"/>
      <point x="477" y="768"/>
      <point x="334" y="768" type="curve" smooth="yes"/>
      <point x="196" y="768"/>
      <point x="85" y="681"/>
      <point x="85" y="574" type="curve" smooth="yes"/>
      <point x="85" y="467"/>
      <point x="196" y="378"/>
    </contour>
  </outline>
</glyph>
<glyph name="onesuperior" format="2">
  <advance width="701"/>
  <unicode hex="00B9"/>
  <outline>
    <contour>
      <point x="112" y="1147" type="line" smooth="yes"/>
      <point x="61" y="1147"/>
      <point x="39" y="1172"/>
      <point x="39" y="1210" type="curve" smooth="yes"/>
      <point x="39" y="1244"/>
      <point x="69" y="1269"/>
      <point x="116" y="1269" type="curve" smooth="yes"/>
      <point x="190" y="1269" type="line" smooth="yes"/>
      <point x="269" y="1269"/>
      <point x="335" y="1281"/>
      <point x="351" y="1313" type="curve" smooth="yes"/>
      <point x="382" y="1335"/>
      <point x="406" y="1343"/>
      <point x="437" y="1343" type="curve" smooth="yes"/>
      <point x="480" y="1343"/>
      <point x="508" y="1327"/>
      <point x="508" y="1283" type="curve" smooth="yes"/>
      <point x="508" y="802" type="line" smooth="yes"/>
      <point x="508" y="766"/>
      <point x="537" y="743"/>
      <point x="572" y="739" type="curve" smooth="yes"/>
      <point x="589" y="735" type="line" smooth="yes"/>
      <point x="638" y="731"/>
      <point x="671" y="713"/>
      <point x="671" y="681" type="curve" smooth="yes"/>
      <point x="671" y="632"/>
      <point x="648" y="616"/>
      <point x="589" y="616" type="curve" smooth="yes"/>
      <point x="106" y="616" type="line" smooth="yes"/>
      <point x="59" y="616"/>
      <point x="31" y="632"/>
      <point x="31" y="681" type="curve" smooth="yes"/>
      <point x="31" y="715"/>
      <point x="59" y="735"/>
      <point x="106" y="739" type="curve" smooth="yes"/>
      <point x="119" y="743" type="line" smooth="yes"/>
      <point x="165" y="747"/>
      <point x="196" y="766"/>
      <point x="196" y="802" type="curve" smooth="yes"/>
      <point x="196" y="1081" type="line" smooth="yes"/>
      <point x="196" y="1129"/>
      <point x="173" y="1147"/>
      <point x="134" y="1147" type="curve" smooth="yes"/>
    </contour>
  </outline>
</glyph>
<glyph name="ordmasculine" format="2">
  <advance width="1057"/>
  <unicode hex="00BA"/>
  <outline>
    <contour>
      <point x="534" y="1444" type="curve" smooth="yes"/>
      <point x="256" y="1444"/>
      <point x="39" y="1249"/>
      <point x="39" y="1030" type="curve" smooth="yes"/>
      <point x="39" y="774"/>
      <point x="229" y="599"/>
      <point x="519" y="599" type="curve" smooth="yes"/>
      <point x="796" y="599"/>
      <point x="1015" y="779"/>
      <point x="1015" y="1030" type="curve" smooth="yes"/>
      <point x="1015" y="1273"/>
      <point x="824" y="1444"/>
    </contour>
    <contour>
      <point x="640" y="934" type="curve" smooth="yes"/>
      <point x="640" y="800"/>
      <point x="624" y="741"/>
      <point x="571" y="741" type="curve" smooth="yes"/>
      <point x="506" y="741"/>
      <point x="421" y="894"/>
      <point x="421" y="1109" type="curve" smooth="yes"/>
      <point x="421" y="1241"/>
      <point x="440" y="1305"/>
      <point x="487" y="1305" type="curve" smooth="yes"/>
      <point x="548" y="1305"/>
      <point x="640" y="1135"/>
    </contour>
  </outline>
</glyph>
